<svg width="24" height="24" viewBox="0 0 24 24" fill="none" xmlns="http://www.w3.org/2000/svg">
<path fill-rule="evenodd" clip-rule="evenodd" d="M12 22.6667C17.891 22.6667 22.6667 17.891 22.6667 12C22.6667 6.10896 17.891 1.33333 12 1.33333C6.10896 1.33333 1.33333 6.10896 1.33333 12C1.33333 17.891 6.10896 22.6667 12 22.6667ZM12 24C18.6274 24 24 18.6274 24 12C24 5.37258 18.6274 0 12 0C5.37258 0 0 5.37258 0 12C0 18.6274 5.37258 24 12 24Z" fill="#3C51C2"/>
<path d="M16 10.6667C16 12.8758 14.2091 14.6667 12 14.6667C9.79086 14.6667 8 12.8758 8 10.6667C8 8.45755 9.79086 6.66669 12 6.66669C14.2091 6.66669 16 8.45755 16 10.6667Z" fill="#3C51C2"/>
<path d="M20 20.6667V19.3333C13.6 13.4667 6.66667 16.8889 4 19.3333L5.33333 22L10 23.3334L16 22.6667L20 20.6667Z" fill="#3C51C2"/>
</svg>
