<svg width="595" height="842" viewBox="0 0 595 842" fill="none" xmlns="http://www.w3.org/2000/svg">
<g clip-path="url(#clip0)">
<rect width="595" height="842" fill="white"/>
<path d="M452 0H552V94C552 97.3137 549.314 100 546 100H458C454.686 100 452 97.3137 452 94V0Z" fill="#D2C22F"/>
<path d="M484.342 43H470.697V40.293L477.137 33.4297C478.021 32.4635 478.673 31.6204 479.092 30.9004C479.52 30.1803 479.734 29.4967 479.734 28.8496C479.734 27.9655 479.511 27.2728 479.064 26.7715C478.618 26.2611 477.98 26.0059 477.15 26.0059C476.257 26.0059 475.551 26.3158 475.031 26.9355C474.521 27.5462 474.266 28.3529 474.266 29.3555H470.301C470.301 28.1432 470.588 27.0358 471.162 26.0332C471.745 25.0306 472.566 24.2467 473.623 23.6816C474.68 23.1074 475.879 22.8203 477.219 22.8203C479.27 22.8203 480.86 23.3125 481.99 24.2969C483.13 25.2812 483.699 26.6712 483.699 28.4668C483.699 29.4512 483.444 30.4538 482.934 31.4746C482.423 32.4954 481.548 33.6849 480.309 35.043L475.783 39.8145H484.342V43ZM500.174 34.7695C500.174 37.5221 499.604 39.6276 498.465 41.0859C497.326 42.5443 495.658 43.2734 493.461 43.2734C491.292 43.2734 489.633 42.5579 488.484 41.127C487.336 39.696 486.748 37.6452 486.721 34.9746V31.3105C486.721 28.5306 487.295 26.4206 488.443 24.9805C489.601 23.5404 491.264 22.8203 493.434 22.8203C495.603 22.8203 497.262 23.5358 498.41 24.9668C499.559 26.3887 500.146 28.4349 500.174 31.1055V34.7695ZM496.223 30.75C496.223 29.1003 495.995 27.9017 495.539 27.1543C495.092 26.3978 494.391 26.0195 493.434 26.0195C492.504 26.0195 491.816 26.3796 491.369 27.0996C490.932 27.8105 490.699 28.9271 490.672 30.4492V35.2891C490.672 36.9115 490.891 38.1191 491.328 38.9121C491.775 39.696 492.486 40.0879 493.461 40.0879C494.427 40.0879 495.124 39.7096 495.553 38.9531C495.981 38.1966 496.204 37.0391 496.223 35.4805V30.75ZM516.498 43H502.854V40.293L509.293 33.4297C510.177 32.4635 510.829 31.6204 511.248 30.9004C511.676 30.1803 511.891 29.4967 511.891 28.8496C511.891 27.9655 511.667 27.2728 511.221 26.7715C510.774 26.2611 510.136 26.0059 509.307 26.0059C508.413 26.0059 507.707 26.3158 507.188 26.9355C506.677 27.5462 506.422 28.3529 506.422 29.3555H502.457C502.457 28.1432 502.744 27.0358 503.318 26.0332C503.902 25.0306 504.722 24.2467 505.779 23.6816C506.837 23.1074 508.035 22.8203 509.375 22.8203C511.426 22.8203 513.016 23.3125 514.146 24.2969C515.286 25.2812 515.855 26.6712 515.855 28.4668C515.855 29.4512 515.6 30.4538 515.09 31.4746C514.579 32.4954 513.704 33.6849 512.465 35.043L507.939 39.8145H516.498V43ZM528.529 43H524.578V27.7695L519.861 29.2324V26.0195L528.105 23.0664H528.529V43ZM474.361 68.0156L472.229 70.3125V76H468.127V56.0938H472.229V65.1172L474.033 62.6426L479.105 56.0938H484.15L477.082 64.9395L484.355 76H479.475L474.361 68.0156ZM490.002 68.9863V76H485.9V56.0938H493.666C495.161 56.0938 496.473 56.3672 497.604 56.9141C498.743 57.4609 499.618 58.2402 500.229 59.252C500.839 60.2546 501.145 61.3984 501.145 62.6836C501.145 64.6341 500.475 66.1745 499.135 67.3047C497.804 68.4258 495.958 68.9863 493.598 68.9863H490.002ZM490.002 65.6641H493.666C494.751 65.6641 495.576 65.4089 496.141 64.8984C496.715 64.388 497.002 63.6589 497.002 62.7109C497.002 61.7357 496.715 60.9473 496.141 60.3457C495.566 59.7441 494.773 59.4342 493.762 59.416H490.002V65.6641ZM514.297 70.7773C514.297 70.0026 514.023 69.4102 513.477 69C512.93 68.5807 511.945 68.1432 510.523 67.6875C509.102 67.2227 507.976 66.7669 507.146 66.3203C504.886 65.099 503.756 63.4538 503.756 61.3848C503.756 60.3092 504.057 59.3522 504.658 58.5137C505.269 57.666 506.139 57.0052 507.27 56.5312C508.409 56.0573 509.685 55.8203 511.098 55.8203C512.52 55.8203 513.786 56.0801 514.898 56.5996C516.01 57.11 516.872 57.8346 517.482 58.7734C518.102 59.7122 518.412 60.7786 518.412 61.9727H514.311C514.311 61.0612 514.023 60.3548 513.449 59.8535C512.875 59.3431 512.068 59.0879 511.029 59.0879C510.027 59.0879 509.247 59.3021 508.691 59.7305C508.135 60.1497 507.857 60.7057 507.857 61.3984C507.857 62.0456 508.181 62.5879 508.828 63.0254C509.484 63.4629 510.446 63.873 511.713 64.2559C514.046 64.9577 515.746 65.8281 516.812 66.8672C517.879 67.9062 518.412 69.2005 518.412 70.75C518.412 72.4727 517.76 73.8262 516.457 74.8105C515.154 75.7858 513.399 76.2734 511.193 76.2734C509.662 76.2734 508.268 75.9954 507.01 75.4395C505.752 74.8743 504.79 74.1042 504.125 73.1289C503.469 72.1536 503.141 71.0234 503.141 69.7383H507.256C507.256 71.9349 508.568 73.0332 511.193 73.0332C512.169 73.0332 512.93 72.8372 513.477 72.4453C514.023 72.0443 514.297 71.4883 514.297 70.7773ZM531.523 70.7773C531.523 70.0026 531.25 69.4102 530.703 69C530.156 68.5807 529.172 68.1432 527.75 67.6875C526.328 67.2227 525.202 66.7669 524.373 66.3203C522.113 65.099 520.982 63.4538 520.982 61.3848C520.982 60.3092 521.283 59.3522 521.885 58.5137C522.495 57.666 523.366 57.0052 524.496 56.5312C525.635 56.0573 526.911 55.8203 528.324 55.8203C529.746 55.8203 531.013 56.0801 532.125 56.5996C533.237 57.11 534.098 57.8346 534.709 58.7734C535.329 59.7122 535.639 60.7786 535.639 61.9727H531.537C531.537 61.0612 531.25 60.3548 530.676 59.8535C530.102 59.3431 529.295 59.0879 528.256 59.0879C527.253 59.0879 526.474 59.3021 525.918 59.7305C525.362 60.1497 525.084 60.7057 525.084 61.3984C525.084 62.0456 525.408 62.5879 526.055 63.0254C526.711 63.4629 527.673 63.873 528.939 64.2559C531.273 64.9577 532.973 65.8281 534.039 66.8672C535.105 67.9062 535.639 69.2005 535.639 70.75C535.639 72.4727 534.987 73.8262 533.684 74.8105C532.38 75.7858 530.626 76.2734 528.42 76.2734C526.889 76.2734 525.494 75.9954 524.236 75.4395C522.979 74.8743 522.017 74.1042 521.352 73.1289C520.695 72.1536 520.367 71.0234 520.367 69.7383H524.482C524.482 71.9349 525.795 73.0332 528.42 73.0332C529.395 73.0332 530.156 72.8372 530.703 72.4453C531.25 72.0443 531.523 71.4883 531.523 70.7773Z" fill="white"/>
<path d="M61.3825 792.496C61.6975 792.676 61.93 792.871 62.08 793.081C62.215 793.276 62.2825 793.524 62.2825 793.824C62.2825 794.139 62.17 794.484 61.945 794.859C61.705 795.219 61.4425 795.654 61.1575 796.164C60.8725 796.674 60.6175 797.274 60.3925 797.964C60.1525 798.639 60.0325 799.441 60.0325 800.371C60.0325 801.211 60.1375 801.946 60.3475 802.576C60.5425 803.206 60.82 803.739 61.18 804.174C61.54 804.594 61.975 804.909 62.485 805.119C62.98 805.329 63.5275 805.434 64.1275 805.434C64.8925 805.434 65.53 805.224 66.04 804.804C66.55 804.369 66.985 803.799 67.345 803.094C67.705 802.389 68.0275 801.586 68.3125 800.686C68.5975 799.786 68.905 798.864 69.235 797.919C69.55 796.974 69.925 796.051 70.36 795.151C70.78 794.251 71.32 793.449 71.98 792.744C72.625 792.039 73.42 791.476 74.365 791.056C75.31 790.621 76.4575 790.404 77.8075 790.404C79.2775 790.404 80.6575 790.659 81.9475 791.169C83.2225 791.664 84.34 792.399 85.3 793.374C86.245 794.334 86.995 795.511 87.55 796.906C88.09 798.301 88.36 799.899 88.36 801.699C88.36 802.734 88.255 803.754 88.045 804.759C87.85 805.764 87.565 806.731 87.19 807.661C86.815 808.576 86.365 809.439 85.84 810.249C85.315 811.059 84.73 811.779 84.085 812.409L81.1825 810.631C80.9725 810.481 80.8 810.286 80.665 810.046C80.515 809.806 80.44 809.551 80.44 809.281C80.44 808.906 80.5975 808.501 80.9125 808.066C81.2125 807.631 81.55 807.114 81.925 806.514C82.3 805.914 82.645 805.216 82.96 804.421C83.26 803.611 83.41 802.644 83.41 801.519C83.41 799.794 83.005 798.459 82.195 797.514C81.37 796.569 80.1925 796.096 78.6625 796.096C77.8075 796.096 77.11 796.314 76.57 796.749C76.03 797.169 75.58 797.731 75.22 798.436C74.845 799.141 74.53 799.944 74.275 800.844C74.02 801.744 73.7425 802.659 73.4425 803.589C73.1425 804.519 72.7825 805.434 72.3625 806.334C71.9425 807.234 71.395 808.036 70.72 808.741C70.045 809.446 69.205 810.016 68.2 810.451C67.18 810.871 65.9275 811.081 64.4425 811.081C63.2575 811.081 62.1025 810.849 60.9775 810.384C59.8525 809.904 58.855 809.214 57.985 808.314C57.115 807.414 56.4175 806.304 55.8925 804.984C55.3675 803.664 55.105 802.149 55.105 800.439C55.105 798.519 55.405 796.749 56.005 795.129C56.605 793.509 57.445 792.129 58.525 790.989L61.3825 792.496ZM88 772.299L88 778.374L55.465 778.374L55.465 772.299L88 772.299ZM55.465 730.837L88 730.837L88 733.942C88 734.422 87.925 734.827 87.775 735.157C87.61 735.472 87.34 735.78 86.965 736.08L65.275 753.067C66.265 752.977 67.18 752.932 68.02 752.932L88 752.932L88 758.265L55.465 758.265L55.465 755.092C55.465 754.837 55.48 754.62 55.51 754.44C55.525 754.245 55.57 754.08 55.645 753.945C55.705 753.795 55.8025 753.652 55.9375 753.517C56.0575 753.382 56.2225 753.232 56.4325 753.067L78.2125 736.012C77.6875 736.057 77.17 736.095 76.66 736.125C76.15 736.155 75.6775 736.17 75.2425 736.17L55.465 736.17L55.465 730.837ZM88 710.767L88 716.842L55.465 716.842L55.465 710.767L88 710.767ZM60.28 690.657L69.91 690.657L69.91 678.462L74.7475 678.462L74.7475 690.657L88 690.657L88 696.732L55.465 696.732L55.465 676.212L60.28 676.212L60.28 690.657ZM75.4 635.73L88 635.73L88 641.76L75.4 641.76L55.465 653.617L55.465 648.285C55.465 647.76 55.5925 647.347 55.8475 647.047C56.1025 646.732 56.425 646.47 56.815 646.26L67.6825 640.32C68.3275 639.975 68.935 639.675 69.505 639.42C70.075 639.15 70.645 638.91 71.215 638.7C70.645 638.505 70.075 638.28 69.505 638.025C68.935 637.77 68.3275 637.477 67.6825 637.147L56.815 631.23C56.485 631.065 56.1775 630.817 55.8925 630.487C55.6075 630.157 55.465 629.737 55.465 629.227L55.465 623.872L75.4 635.73ZM75.715 599.966L64.8925 603.926C64.4125 604.121 63.8425 604.324 63.1825 604.534C62.5225 604.744 61.81 604.954 61.045 605.164C61.81 605.359 62.53 605.561 63.205 605.771C63.865 605.981 64.4425 606.184 64.9375 606.379L75.715 610.316L75.715 599.966ZM88 589.279L88 593.959C88 594.484 87.8725 594.911 87.6175 595.241C87.3475 595.571 87.0175 595.819 86.6275 595.984L79.99 598.414L79.99 611.891L86.6275 614.321C86.9725 614.441 87.2875 614.674 87.5725 615.019C87.8575 615.364 88 615.791 88 616.301L88 621.026L55.465 608.224L55.465 602.059L88 589.279ZM75.4 568.572L88 568.572L88 574.602L75.4 574.602L55.465 586.46L55.465 581.127C55.465 580.602 55.5925 580.19 55.8475 579.89C56.1025 579.575 56.425 579.312 56.815 579.102L67.6825 573.162C68.3275 572.817 68.935 572.517 69.505 572.262C70.075 571.992 70.645 571.752 71.215 571.542C70.645 571.347 70.075 571.122 69.505 570.867C68.935 570.612 68.3275 570.32 67.6825 569.99L56.815 564.072C56.485 563.907 56.1775 563.66 55.8925 563.33C55.6075 563 55.465 562.58 55.465 562.07L55.465 556.715L75.4 568.572ZM88 540.54L88 546.615L55.465 546.615L55.465 540.54L88 540.54ZM55.465 499.078L88 499.078L88 502.183C88 502.663 87.925 503.068 87.775 503.398C87.61 503.713 87.34 504.021 86.965 504.321L65.275 521.308C66.265 521.218 67.18 521.173 68.02 521.173L88 521.173L88 526.506L55.465 526.506L55.465 523.333C55.465 523.078 55.48 522.861 55.51 522.681C55.525 522.486 55.57 522.321 55.645 522.186C55.705 522.036 55.8025 521.893 55.9375 521.758C56.0575 521.623 56.2225 521.473 56.4325 521.308L78.2125 504.253C77.6875 504.298 77.17 504.336 76.66 504.366C76.15 504.396 75.6775 504.411 75.2425 504.411L55.465 504.411L55.465 499.078ZM83.005 466.026L88 466.026L88 485.083L55.465 485.083L55.465 479.031L83.005 479.031L83.005 466.026ZM75.715 437.764L64.8925 441.724C64.4125 441.919 63.8425 442.122 63.1825 442.332C62.5225 442.542 61.81 442.752 61.045 442.962C61.81 443.157 62.53 443.359 63.205 443.569C63.865 443.779 64.4425 443.982 64.9375 444.177L75.715 448.114L75.715 437.764ZM88 427.077L88 431.757C88 432.282 87.8725 432.709 87.6175 433.039C87.3475 433.369 87.0175 433.617 86.6275 433.782L79.99 436.212L79.99 449.689L86.6275 452.119C86.9725 452.239 87.2875 452.472 87.5725 452.817C87.8575 453.162 88 453.589 88 454.099L88 458.824L55.465 446.022L55.465 439.857L88 427.077ZM70.945 407.127C70.945 405.987 70.8025 404.997 70.5175 404.157C70.2325 403.302 69.8425 402.604 69.3475 402.064C68.8375 401.509 68.2375 401.097 67.5475 400.827C66.8575 400.557 66.1 400.422 65.275 400.422C63.625 400.422 62.3575 400.969 61.4725 402.064C60.5875 403.144 60.145 404.802 60.145 407.037L60.145 410.907L70.945 410.907L70.945 407.127ZM88 391.557L88 397.024C88 398.059 87.595 398.809 86.785 399.274L76.3675 406.114C75.9775 406.369 75.7 406.654 75.535 406.969C75.37 407.269 75.2875 407.719 75.2875 408.319L75.2875 410.907L88 410.907L88 416.959L55.465 416.959L55.465 407.037C55.465 404.832 55.6975 402.942 56.1625 401.367C56.6125 399.777 57.25 398.479 58.075 397.474C58.9 396.454 59.89 395.704 61.045 395.224C62.185 394.744 63.445 394.504 64.825 394.504C65.92 394.504 66.955 394.669 67.93 394.999C68.905 395.314 69.79 395.779 70.585 396.394C71.38 396.994 72.0775 397.744 72.6775 398.644C73.2775 399.529 73.75 400.542 74.095 401.682C74.32 401.292 74.59 400.932 74.905 400.602C75.205 400.272 75.565 399.972 75.985 399.702L88 391.557ZM88 375.218L88 381.293L55.465 381.293L55.465 375.218L88 375.218Z" fill="#D2C22F"/>
<path d="M104.138 174H96.3375C95.4625 174 94.7375 173.787 94.1625 173.362C93.6125 172.912 93.2125 172.362 92.9625 171.712L88.9125 160.65H66.45L62.4 171.712C62.2 172.287 61.8 172.812 61.2 173.287C60.625 173.762 59.9125 174 59.0625 174H51.225L72.525 119.775H82.8375L104.138 174ZM69.0375 153.525H86.325L79.725 135.487C79.425 134.687 79.0875 133.75 78.7125 132.675C78.3625 131.575 78.0125 130.387 77.6625 129.112C77.3125 130.387 76.9625 131.575 76.6125 132.675C76.2875 133.775 75.9625 134.737 75.6375 135.562L69.0375 153.525ZM123.56 165.675H145.272V174H113.472V119.775H123.56V165.675ZM203.63 174H195.83C194.955 174 194.23 173.787 193.655 173.362C193.105 172.912 192.705 172.362 192.455 171.712L188.405 160.65H165.942L161.892 171.712C161.692 172.287 161.292 172.812 160.692 173.287C160.117 173.762 159.405 174 158.555 174H150.717L172.017 119.775H182.33L203.63 174ZM168.53 153.525H185.817L179.217 135.487C178.917 134.687 178.58 133.75 178.205 132.675C177.855 131.575 177.505 130.387 177.155 129.112C176.805 130.387 176.455 131.575 176.105 132.675C175.78 133.775 175.455 134.737 175.13 135.562L168.53 153.525ZM218.252 119.775C218.702 119.775 219.077 119.8 219.377 119.85C219.677 119.875 219.939 119.95 220.164 120.075C220.414 120.175 220.652 120.337 220.877 120.562C221.102 120.762 221.352 121.037 221.627 121.387L250.089 157.65C249.989 156.775 249.914 155.925 249.864 155.1C249.839 154.25 249.827 153.462 249.827 152.737V119.775H258.714V174H253.502C252.702 174 252.039 173.875 251.514 173.625C250.989 173.375 250.477 172.925 249.977 172.275L221.627 136.162C221.702 136.962 221.752 137.762 221.777 138.562C221.827 139.337 221.852 140.05 221.852 140.7V174H212.964V119.775H218.252ZM90.675 209.775V217.8H66.6375V232.837H85.575V240.6H66.6375V255.937H90.675V264H56.475V209.775H90.675ZM124.745 233.925H145.97V261.675C143.17 262.625 140.245 263.375 137.195 263.925C134.195 264.475 130.77 264.75 126.92 264.75C118.92 264.75 112.77 262.4 108.47 257.7C104.17 253 102.02 246.15 102.02 237.15C102.02 231.55 103.095 226.7 105.245 222.6C107.445 218.5 110.62 215.325 114.77 213.075C118.92 210.825 123.995 209.7 129.995 209.7C132.845 209.7 135.645 210 138.395 210.6C141.145 211.2 143.645 212 145.895 213L142.145 222.075C140.495 221.225 138.62 220.525 136.52 219.975C134.42 219.425 132.22 219.15 129.92 219.15C126.62 219.15 123.745 219.9 121.295 221.4C118.895 222.9 117.02 225.025 115.67 227.775C114.37 230.475 113.72 233.675 113.72 237.375C113.72 240.875 114.195 243.975 115.145 246.675C116.095 249.375 117.595 251.5 119.645 253.05C121.695 254.55 124.37 255.3 127.67 255.3C129.27 255.3 130.62 255.225 131.72 255.075C132.87 254.925 133.92 254.75 134.87 254.55V243.375H124.745V233.925ZM142.295 193.575C142.045 197.225 140.595 200.2 137.945 202.5C135.295 204.8 131.895 205.95 127.745 205.95C123.445 205.95 120.045 204.825 117.545 202.575C115.045 200.325 113.695 197.325 113.495 193.575H119.72C119.87 194.975 120.295 196 120.995 196.65C121.745 197.3 122.72 197.725 123.92 197.925C125.12 198.075 126.42 198.15 127.82 198.15C129.02 198.15 130.195 198.05 131.345 197.85C132.545 197.6 133.57 197.15 134.42 196.5C135.27 195.85 135.77 194.875 135.92 193.575H142.295ZM182.467 264H158.092V257.55L164.617 254.55V219.9L158.092 216.9V210.45H182.467V216.9L175.942 219.9V254.55L182.467 257.55V264ZM170.467 194.4C172.117 194.4 173.542 194.8 174.742 195.6C175.942 196.35 176.542 197.775 176.542 199.875C176.542 201.925 175.942 203.35 174.742 204.15C173.542 204.95 172.117 205.35 170.467 205.35C168.767 205.35 167.317 204.95 166.117 204.15C164.967 203.35 164.392 201.925 164.392 199.875C164.392 197.775 164.967 196.35 166.117 195.6C167.317 194.8 168.767 194.4 170.467 194.4ZM232.28 209.775V218.062H215.968V264H205.88V218.062H189.493V209.775H232.28ZM263.722 264H239.347V257.55L245.872 254.55V219.9L239.347 216.9V210.45H263.722V216.9L257.197 219.9V254.55L263.722 257.55V264ZM251.722 194.4C253.372 194.4 254.797 194.8 255.997 195.6C257.197 196.35 257.797 197.775 257.797 199.875C257.797 201.925 257.197 203.35 255.997 204.15C254.797 204.95 253.372 205.35 251.722 205.35C250.022 205.35 248.572 204.95 247.372 204.15C246.222 203.35 245.647 201.925 245.647 199.875C245.647 197.775 246.222 196.35 247.372 195.6C248.572 194.8 250.022 194.4 251.722 194.4ZM302.548 241.5C302.973 242.3 303.36 243.137 303.71 244.012C304.085 244.862 304.448 245.725 304.798 246.6C305.148 245.7 305.51 244.812 305.885 243.937C306.26 243.062 306.66 242.225 307.085 241.425L323.135 211.387C323.335 211.012 323.535 210.712 323.735 210.487C323.96 210.262 324.198 210.1 324.448 210C324.723 209.9 325.023 209.837 325.348 209.812C325.673 209.787 326.06 209.775 326.51 209.775H334.123V264H325.235V228.975C325.235 228.325 325.248 227.612 325.273 226.837C325.323 226.062 325.385 225.275 325.46 224.475L309.073 255.225C308.698 255.925 308.21 256.475 307.61 256.875C307.01 257.25 306.31 257.437 305.51 257.437H304.123C303.323 257.437 302.623 257.25 302.023 256.875C301.423 256.475 300.935 255.925 300.56 255.225L283.948 224.362C284.048 225.187 284.11 226 284.135 226.8C284.185 227.575 284.21 228.3 284.21 228.975V264H275.323V209.775H282.935C283.385 209.775 283.773 209.787 284.098 209.812C284.423 209.837 284.71 209.9 284.96 210C285.235 210.1 285.485 210.262 285.71 210.487C285.935 210.712 286.148 211.012 286.348 211.387L302.548 241.5ZM370.099 264H345.724V257.55L352.249 254.55V219.9L345.724 216.9V210.45H370.099V216.9L363.574 219.9V254.55L370.099 257.55V264ZM358.099 194.4C359.749 194.4 361.174 194.8 362.374 195.6C363.574 196.35 364.174 197.775 364.174 199.875C364.174 201.925 363.574 203.35 362.374 204.15C361.174 204.95 359.749 205.35 358.099 205.35C356.399 205.35 354.949 204.95 353.749 204.15C352.599 203.35 352.024 201.925 352.024 199.875C352.024 197.775 352.599 196.35 353.749 195.6C354.949 194.8 356.399 194.4 358.099 194.4Z" fill="#D2C22F"/>
<rect x="77" y="59" width="243" height="40" rx="20" fill="#D2C22F"/>
<path d="M116.693 76.536C116.634 76.6533 116.565 76.736 116.485 76.784C116.41 76.832 116.32 76.856 116.213 76.856C116.106 76.856 115.986 76.816 115.853 76.736C115.72 76.6507 115.562 76.5573 115.381 76.456C115.2 76.3547 114.986 76.264 114.741 76.184C114.501 76.0987 114.216 76.056 113.885 76.056C113.586 76.056 113.325 76.0933 113.101 76.168C112.882 76.2373 112.696 76.336 112.541 76.464C112.392 76.592 112.28 76.7467 112.205 76.928C112.13 77.104 112.093 77.2987 112.093 77.512C112.093 77.784 112.168 78.0107 112.317 78.192C112.472 78.3733 112.674 78.528 112.925 78.656C113.176 78.784 113.461 78.8987 113.781 79C114.101 79.1013 114.426 79.2107 114.757 79.328C115.093 79.44 115.421 79.5733 115.741 79.728C116.061 79.8773 116.346 80.0693 116.597 80.304C116.848 80.5333 117.048 80.816 117.197 81.152C117.352 81.488 117.429 81.896 117.429 82.376C117.429 82.8987 117.338 83.3893 117.157 83.848C116.981 84.3013 116.72 84.6987 116.373 85.04C116.032 85.376 115.613 85.6427 115.117 85.84C114.621 86.032 114.053 86.128 113.413 86.128C113.045 86.128 112.682 86.0907 112.325 86.016C111.968 85.9467 111.624 85.8453 111.293 85.712C110.968 85.5787 110.661 85.4187 110.373 85.232C110.09 85.0453 109.837 84.8373 109.613 84.608L110.237 83.576C110.296 83.5013 110.365 83.44 110.445 83.392C110.53 83.3387 110.624 83.312 110.725 83.312C110.858 83.312 111.002 83.368 111.157 83.48C111.312 83.5867 111.493 83.7067 111.701 83.84C111.914 83.9733 112.162 84.096 112.445 84.208C112.733 84.3147 113.077 84.368 113.477 84.368C114.09 84.368 114.565 84.224 114.901 83.936C115.237 83.6427 115.405 83.224 115.405 82.68C115.405 82.376 115.328 82.128 115.173 81.936C115.024 81.744 114.824 81.584 114.573 81.456C114.322 81.3227 114.037 81.2107 113.717 81.12C113.397 81.0293 113.072 80.9307 112.741 80.824C112.41 80.7173 112.085 80.5893 111.765 80.44C111.445 80.2907 111.16 80.096 110.909 79.856C110.658 79.616 110.456 79.3173 110.301 78.96C110.152 78.5973 110.077 78.152 110.077 77.624C110.077 77.2027 110.16 76.792 110.325 76.392C110.496 75.992 110.741 75.6373 111.061 75.328C111.386 75.0187 111.784 74.7707 112.253 74.584C112.722 74.3973 113.258 74.304 113.861 74.304C114.544 74.304 115.173 74.4107 115.749 74.624C116.325 74.8373 116.816 75.136 117.221 75.52L116.693 76.536ZM122.295 86H120.135V74.432H122.295V86ZM126.83 74.432C126.926 74.432 127.006 74.4373 127.07 74.448C127.134 74.4533 127.19 74.4693 127.238 74.496C127.292 74.5173 127.342 74.552 127.39 74.6C127.438 74.6427 127.492 74.7013 127.55 74.776L133.622 82.512C133.601 82.3253 133.585 82.144 133.574 81.968C133.569 81.7867 133.566 81.6187 133.566 81.464V74.432H135.462V86H134.35C134.18 86 134.038 85.9733 133.926 85.92C133.814 85.8667 133.705 85.7707 133.598 85.632L127.55 77.928C127.566 78.0987 127.577 78.2693 127.582 78.44C127.593 78.6053 127.598 78.7573 127.598 78.896V86H125.702V74.432H126.83ZM141.02 86H138.86V74.432H141.02V86ZM151.723 74.432V76.144H146.595V79.568H150.923V81.288H146.595V86H144.427V74.432H151.723ZM169.201 80.216C169.201 81.064 169.06 81.8507 168.777 82.576C168.495 83.296 168.097 83.92 167.585 84.448C167.073 84.976 166.457 85.3893 165.737 85.688C165.017 85.9813 164.22 86.128 163.345 86.128C162.471 86.128 161.671 85.9813 160.945 85.688C160.225 85.3893 159.607 84.976 159.089 84.448C158.577 83.92 158.18 83.296 157.897 82.576C157.615 81.8507 157.473 81.064 157.473 80.216C157.473 79.368 157.615 78.584 157.897 77.864C158.18 77.1387 158.577 76.512 159.089 75.984C159.607 75.456 160.225 75.0453 160.945 74.752C161.671 74.4533 162.471 74.304 163.345 74.304C164.22 74.304 165.017 74.4533 165.737 74.752C166.457 75.0507 167.073 75.464 167.585 75.992C168.097 76.5147 168.495 77.1387 168.777 77.864C169.06 78.584 169.201 79.368 169.201 80.216ZM166.993 80.216C166.993 79.5813 166.908 79.0133 166.737 78.512C166.572 78.0053 166.332 77.576 166.017 77.224C165.703 76.872 165.319 76.6027 164.865 76.416C164.417 76.2293 163.911 76.136 163.345 76.136C162.78 76.136 162.271 76.2293 161.817 76.416C161.364 76.6027 160.977 76.872 160.657 77.224C160.343 77.576 160.1 78.0053 159.929 78.512C159.759 79.0133 159.673 79.5813 159.673 80.216C159.673 80.8507 159.759 81.4213 159.929 81.928C160.1 82.4293 160.343 82.856 160.657 83.208C160.977 83.5547 161.364 83.8213 161.817 84.008C162.271 84.1947 162.78 84.288 163.345 84.288C163.911 84.288 164.417 84.1947 164.865 84.008C165.319 83.8213 165.703 83.5547 166.017 83.208C166.332 82.856 166.572 82.4293 166.737 81.928C166.908 81.4213 166.993 80.8507 166.993 80.216ZM162.705 72.664C162.705 72.808 162.676 72.944 162.617 73.072C162.559 73.2 162.479 73.312 162.377 73.408C162.276 73.504 162.159 73.5787 162.025 73.632C161.892 73.6853 161.751 73.712 161.601 73.712C161.463 73.712 161.329 73.6853 161.201 73.632C161.079 73.5787 160.969 73.504 160.873 73.408C160.777 73.312 160.7 73.2 160.641 73.072C160.588 72.944 160.561 72.808 160.561 72.664C160.561 72.52 160.588 72.384 160.641 72.256C160.7 72.1227 160.777 72.008 160.873 71.912C160.969 71.8107 161.079 71.7307 161.201 71.672C161.329 71.6133 161.463 71.584 161.601 71.584C161.751 71.584 161.892 71.6133 162.025 71.672C162.159 71.7307 162.276 71.8107 162.377 71.912C162.479 72.008 162.559 72.1227 162.617 72.256C162.676 72.384 162.705 72.52 162.705 72.664ZM166.161 72.664C166.161 72.808 166.132 72.944 166.073 73.072C166.02 73.2 165.945 73.312 165.849 73.408C165.753 73.504 165.639 73.5787 165.505 73.632C165.377 73.6853 165.239 73.712 165.089 73.712C164.945 73.712 164.807 73.6853 164.673 73.632C164.545 73.5787 164.431 73.504 164.329 73.408C164.233 73.312 164.156 73.2 164.097 73.072C164.044 72.944 164.017 72.808 164.017 72.664C164.017 72.52 164.044 72.384 164.097 72.256C164.156 72.1227 164.233 72.008 164.329 71.912C164.431 71.8107 164.545 71.7307 164.673 71.672C164.807 71.6133 164.945 71.584 165.089 71.584C165.239 71.584 165.377 71.6133 165.505 71.672C165.639 71.7307 165.753 71.8107 165.849 71.912C165.945 72.008 166.02 72.1227 166.073 72.256C166.132 72.384 166.161 72.52 166.161 72.664ZM176.31 79.584H180.838V85.504C180.241 85.7067 179.617 85.8667 178.966 85.984C178.326 86.1013 177.596 86.16 176.774 86.16C175.068 86.16 173.756 85.6587 172.838 84.656C171.921 83.6533 171.462 82.192 171.462 80.272C171.462 79.0773 171.692 78.0427 172.15 77.168C172.62 76.2933 173.297 75.616 174.182 75.136C175.068 74.656 176.15 74.416 177.43 74.416C178.038 74.416 178.636 74.48 179.222 74.608C179.809 74.736 180.342 74.9067 180.822 75.12L180.022 77.056C179.67 76.8747 179.27 76.7253 178.822 76.608C178.374 76.4907 177.905 76.432 177.414 76.432C176.71 76.432 176.097 76.592 175.574 76.912C175.062 77.232 174.662 77.6853 174.374 78.272C174.097 78.848 173.958 79.5307 173.958 80.32C173.958 81.0667 174.06 81.728 174.262 82.304C174.465 82.88 174.785 83.3333 175.222 83.664C175.66 83.984 176.23 84.144 176.934 84.144C177.276 84.144 177.564 84.128 177.798 84.096C178.044 84.064 178.268 84.0267 178.47 83.984V81.6H176.31V79.584ZM180.054 70.976C180.001 71.7547 179.692 72.3893 179.126 72.88C178.561 73.3707 177.836 73.616 176.95 73.616C176.033 73.616 175.308 73.376 174.774 72.896C174.241 72.416 173.953 71.776 173.91 70.976H175.238C175.27 71.2747 175.361 71.4933 175.51 71.632C175.67 71.7707 175.878 71.8613 176.134 71.904C176.39 71.936 176.668 71.952 176.966 71.952C177.222 71.952 177.473 71.9307 177.718 71.888C177.974 71.8347 178.193 71.7387 178.374 71.6C178.556 71.4613 178.662 71.2533 178.694 70.976H180.054ZM186.304 81.48V86H184.152V74.432H187.68C188.47 74.432 189.144 74.5147 189.704 74.68C190.27 74.84 190.731 75.0667 191.088 75.36C191.451 75.6533 191.715 76.0053 191.88 76.416C192.051 76.8213 192.136 77.2693 192.136 77.76C192.136 78.1493 192.078 78.5173 191.96 78.864C191.848 79.2107 191.683 79.5253 191.464 79.808C191.251 80.0907 190.984 80.3387 190.664 80.552C190.35 80.7653 189.99 80.936 189.584 81.064C189.856 81.2187 190.091 81.44 190.288 81.728L193.184 86H191.248C191.062 86 190.902 85.9627 190.768 85.888C190.64 85.8133 190.531 85.7067 190.44 85.568L188.008 81.864C187.918 81.7253 187.816 81.6267 187.704 81.568C187.598 81.5093 187.438 81.48 187.224 81.48H186.304ZM186.304 79.936H187.648C188.054 79.936 188.406 79.8853 188.704 79.784C189.008 79.6827 189.256 79.544 189.448 79.368C189.646 79.1867 189.792 78.9733 189.888 78.728C189.984 78.4827 190.032 78.2133 190.032 77.92C190.032 77.3333 189.838 76.8827 189.448 76.568C189.064 76.2533 188.475 76.096 187.68 76.096H186.304V79.936ZM202.661 74.432V76.144H197.533V79.352H201.573V81.008H197.533V84.28H202.661V86H195.365V74.432H202.661ZM213.473 74.432V76.2H209.993V86H207.841V76.2H204.345V74.432H213.473ZM221.445 81.2C221.535 81.3707 221.618 81.5493 221.693 81.736C221.773 81.9173 221.85 82.1013 221.925 82.288C221.999 82.096 222.077 81.9067 222.157 81.72C222.237 81.5333 222.322 81.3547 222.413 81.184L225.837 74.776C225.879 74.696 225.922 74.632 225.965 74.584C226.013 74.536 226.063 74.5013 226.117 74.48C226.175 74.4587 226.239 74.4453 226.309 74.44C226.378 74.4347 226.461 74.432 226.557 74.432H228.181V86H226.285V78.528C226.285 78.3893 226.287 78.2373 226.293 78.072C226.303 77.9067 226.317 77.7387 226.333 77.568L222.837 84.128C222.757 84.2773 222.653 84.3947 222.525 84.48C222.397 84.56 222.247 84.6 222.077 84.6H221.781C221.61 84.6 221.461 84.56 221.333 84.48C221.205 84.3947 221.101 84.2773 221.021 84.128L217.477 77.544C217.498 77.72 217.511 77.8933 217.517 78.064C217.527 78.2293 217.533 78.384 217.533 78.528V86H215.637V74.432H217.261C217.357 74.432 217.439 74.4347 217.509 74.44C217.578 74.4453 217.639 74.4587 217.693 74.48C217.751 74.5013 217.805 74.536 217.853 74.584C217.901 74.632 217.946 74.696 217.989 74.776L221.445 81.2ZM238.608 74.432V76.144H233.48V79.352H237.52V81.008H233.48V84.28H238.608V86H231.312V74.432H238.608ZM242.396 74.432C242.492 74.432 242.572 74.4373 242.636 74.448C242.7 74.4533 242.756 74.4693 242.804 74.496C242.857 74.5173 242.908 74.552 242.956 74.6C243.004 74.6427 243.057 74.7013 243.116 74.776L249.188 82.512C249.167 82.3253 249.151 82.144 249.14 81.968C249.135 81.7867 249.132 81.6187 249.132 81.464V74.432H251.028V86H249.916C249.745 86 249.604 85.9733 249.492 85.92C249.38 85.8667 249.271 85.7707 249.164 85.632L243.116 77.928C243.132 78.0987 243.143 78.2693 243.148 78.44C243.159 78.6053 243.164 78.7573 243.164 78.896V86H241.268V74.432H242.396ZM256.314 84.224H260.946V86H254.162V74.432H256.314V84.224ZM267.771 86H262.571V84.624L263.963 83.984V76.592L262.571 75.952V74.576H267.771V75.952L266.379 76.592V83.984L267.771 84.624V86ZM265.211 71.152C265.563 71.152 265.867 71.2373 266.123 71.408C266.379 71.568 266.507 71.872 266.507 72.32C266.507 72.7573 266.379 73.0613 266.123 73.232C265.867 73.4027 265.563 73.488 265.211 73.488C264.849 73.488 264.539 73.4027 264.283 73.232C264.038 73.0613 263.915 72.7573 263.915 72.32C263.915 71.872 264.038 71.568 264.283 71.408C264.539 71.2373 264.849 71.152 265.211 71.152ZM274.854 79.584H279.382V85.504C278.785 85.7067 278.161 85.8667 277.51 85.984C276.87 86.1013 276.139 86.16 275.318 86.16C273.611 86.16 272.299 85.6587 271.382 84.656C270.465 83.6533 270.006 82.192 270.006 80.272C270.006 79.0773 270.235 78.0427 270.694 77.168C271.163 76.2933 271.841 75.616 272.726 75.136C273.611 74.656 274.694 74.416 275.974 74.416C276.582 74.416 277.179 74.48 277.766 74.608C278.353 74.736 278.886 74.9067 279.366 75.12L278.566 77.056C278.214 76.8747 277.814 76.7253 277.366 76.608C276.918 76.4907 276.449 76.432 275.958 76.432C275.254 76.432 274.641 76.592 274.118 76.912C273.606 77.232 273.206 77.6853 272.918 78.272C272.641 78.848 272.502 79.5307 272.502 80.32C272.502 81.0667 272.603 81.728 272.806 82.304C273.009 82.88 273.329 83.3333 273.766 83.664C274.203 83.984 274.774 84.144 275.478 84.144C275.819 84.144 276.107 84.128 276.342 84.096C276.587 84.064 276.811 84.0267 277.014 83.984V81.6H274.854V79.584ZM278.598 70.976C278.545 71.7547 278.235 72.3893 277.67 72.88C277.105 73.3707 276.379 73.616 275.494 73.616C274.577 73.616 273.851 73.376 273.318 72.896C272.785 72.416 272.497 71.776 272.454 70.976H273.782C273.814 71.2747 273.905 71.4933 274.054 71.632C274.214 71.7707 274.422 71.8613 274.678 71.904C274.934 71.936 275.211 71.952 275.51 71.952C275.766 71.952 276.017 71.9307 276.262 71.888C276.518 71.8347 276.737 71.7387 276.918 71.6C277.099 71.4613 277.206 71.2533 277.238 70.976H278.598ZM287.168 86H281.968V84.624L283.36 83.984V76.592L281.968 75.952V74.576H287.168V75.952L285.776 76.592V83.984L287.168 84.624V86ZM284.608 71.152C284.96 71.152 285.264 71.2373 285.52 71.408C285.776 71.568 285.904 71.872 285.904 72.32C285.904 72.7573 285.776 73.0613 285.52 73.232C285.264 73.4027 284.96 73.488 284.608 73.488C284.246 73.488 283.936 73.4027 283.68 73.232C283.435 73.0613 283.312 72.7573 283.312 72.32C283.312 71.872 283.435 71.568 283.68 71.408C283.936 71.2373 284.246 71.152 284.608 71.152Z" fill="white"/>
<path d="M396.213 593H592.795C595.117 593 597 594.883 597 597.206V656.794C597 659.117 595.117 661 592.795 661H396.213C392.467 661 390.591 656.469 393.24 653.82L417.077 629.974C418.719 628.332 418.719 625.668 417.077 624.026L393.24 600.18C390.591 597.531 392.467 593 396.213 593Z" fill="#D2C22F"/>
<path d="M432.971 615.44H433.538C433.766 615.44 433.955 615.41 434.105 615.35C434.255 615.284 434.384 615.182 434.492 615.044L438.083 610.499C438.233 610.307 438.389 610.175 438.551 610.103C438.719 610.025 438.929 609.986 439.181 609.986H441.269L436.886 615.395C436.748 615.563 436.616 615.704 436.49 615.818C436.364 615.932 436.229 616.025 436.085 616.097C436.283 616.169 436.46 616.271 436.616 616.403C436.778 616.535 436.934 616.703 437.084 616.907L441.602 623H439.46C439.172 623 438.956 622.961 438.812 622.883C438.674 622.799 438.557 622.679 438.461 622.523L434.78 617.717C434.66 617.561 434.525 617.45 434.375 617.384C434.225 617.312 434.012 617.276 433.736 617.276H432.971V623H430.55V609.977H432.971V615.44ZM448.266 613.622C448.956 613.622 449.58 613.733 450.138 613.955C450.702 614.177 451.182 614.492 451.578 614.9C451.974 615.308 452.28 615.806 452.496 616.394C452.712 616.982 452.82 617.639 452.82 618.365C452.82 619.097 452.712 619.757 452.496 620.345C452.28 620.933 451.974 621.434 451.578 621.848C451.182 622.262 450.702 622.58 450.138 622.802C449.58 623.024 448.956 623.135 448.266 623.135C447.576 623.135 446.949 623.024 446.385 622.802C445.821 622.58 445.338 622.262 444.936 621.848C444.54 621.434 444.231 620.933 444.009 620.345C443.793 619.757 443.685 619.097 443.685 618.365C443.685 617.639 443.793 616.982 444.009 616.394C444.231 615.806 444.54 615.308 444.936 614.9C445.338 614.492 445.821 614.177 446.385 613.955C446.949 613.733 447.576 613.622 448.266 613.622ZM448.266 621.425C449.034 621.425 449.601 621.167 449.967 620.651C450.339 620.135 450.525 619.379 450.525 618.383C450.525 617.387 450.339 616.628 449.967 616.106C449.601 615.584 449.034 615.323 448.266 615.323C447.486 615.323 446.91 615.587 446.538 616.115C446.166 616.637 445.98 617.393 445.98 618.383C445.98 619.373 446.166 620.129 446.538 620.651C446.91 621.167 447.486 621.425 448.266 621.425ZM456.355 623V613.766H457.714C458.002 613.766 458.191 613.901 458.281 614.171L458.434 614.9C458.62 614.708 458.815 614.534 459.019 614.378C459.229 614.222 459.448 614.087 459.676 613.973C459.91 613.859 460.159 613.772 460.423 613.712C460.687 613.652 460.975 613.622 461.287 613.622C461.791 613.622 462.238 613.709 462.628 613.883C463.018 614.051 463.342 614.291 463.6 614.603C463.864 614.909 464.062 615.278 464.194 615.71C464.332 616.136 464.401 616.607 464.401 617.123V623H462.178V617.123C462.178 616.559 462.046 616.124 461.782 615.818C461.524 615.506 461.134 615.35 460.612 615.35C460.228 615.35 459.868 615.437 459.532 615.611C459.196 615.785 458.878 616.022 458.578 616.322V623H456.355ZM470.419 613.766V619.634C470.419 620.198 470.548 620.636 470.806 620.948C471.07 621.254 471.463 621.407 471.985 621.407C472.369 621.407 472.729 621.323 473.065 621.155C473.401 620.981 473.719 620.744 474.019 620.444V613.766H476.242V623H474.883C474.595 623 474.406 622.865 474.316 622.595L474.163 621.857C473.971 622.049 473.773 622.226 473.569 622.388C473.365 622.544 473.146 622.679 472.912 622.793C472.684 622.901 472.435 622.985 472.165 623.045C471.901 623.111 471.616 623.144 471.31 623.144C470.806 623.144 470.359 623.06 469.969 622.892C469.585 622.718 469.261 622.475 468.997 622.163C468.733 621.851 468.532 621.482 468.394 621.056C468.262 620.624 468.196 620.15 468.196 619.634V613.766H470.419ZM497.261 623H495.389C495.179 623 495.005 622.949 494.867 622.847C494.735 622.739 494.639 622.607 494.579 622.451L493.607 619.796H488.216L487.244 622.451C487.196 622.589 487.1 622.715 486.956 622.829C486.818 622.943 486.647 623 486.443 623H484.562L489.674 609.986H492.149L497.261 623ZM488.837 618.086H492.986L491.402 613.757C491.33 613.565 491.249 613.34 491.159 613.082C491.075 612.818 490.991 612.533 490.907 612.227C490.823 612.533 490.739 612.818 490.655 613.082C490.577 613.346 490.499 613.577 490.421 613.775L488.837 618.086ZM500.276 623V613.766H501.635C501.923 613.766 502.112 613.901 502.202 614.171L502.355 614.9C502.541 614.708 502.736 614.534 502.94 614.378C503.15 614.222 503.369 614.087 503.597 613.973C503.831 613.859 504.08 613.772 504.344 613.712C504.608 613.652 504.896 613.622 505.208 613.622C505.712 613.622 506.159 613.709 506.549 613.883C506.939 614.051 507.263 614.291 507.521 614.603C507.785 614.909 507.983 615.278 508.115 615.71C508.253 616.136 508.322 616.607 508.322 617.123V623H506.099V617.123C506.099 616.559 505.967 616.124 505.703 615.818C505.445 615.506 505.055 615.35 504.533 615.35C504.149 615.35 503.789 615.437 503.453 615.611C503.117 615.785 502.799 616.022 502.499 616.322V623H500.276ZM514.673 609.626V623H512.45V609.626H514.673ZM526.229 623H525.23C525.02 623 524.855 622.97 524.735 622.91C524.615 622.844 524.525 622.715 524.465 622.523L524.267 621.866C524.033 622.076 523.802 622.262 523.574 622.424C523.352 622.58 523.121 622.712 522.881 622.82C522.641 622.928 522.386 623.009 522.116 623.063C521.846 623.117 521.546 623.144 521.216 623.144C520.826 623.144 520.466 623.093 520.136 622.991C519.806 622.883 519.521 622.724 519.281 622.514C519.047 622.304 518.864 622.043 518.732 621.731C518.6 621.419 518.534 621.056 518.534 620.642C518.534 620.294 518.624 619.952 518.804 619.616C518.99 619.274 519.296 618.968 519.722 618.698C520.148 618.422 520.715 618.194 521.423 618.014C522.131 617.834 523.01 617.732 524.06 617.708V617.168C524.06 616.55 523.928 616.094 523.664 615.8C523.406 615.5 523.028 615.35 522.53 615.35C522.17 615.35 521.87 615.392 521.63 615.476C521.39 615.56 521.18 615.656 521 615.764C520.826 615.866 520.664 615.959 520.514 616.043C520.364 616.127 520.199 616.169 520.019 616.169C519.869 616.169 519.74 616.13 519.632 616.052C519.524 615.974 519.437 615.878 519.371 615.764L518.966 615.053C520.028 614.081 521.309 613.595 522.809 613.595C523.349 613.595 523.829 613.685 524.249 613.865C524.675 614.039 525.035 614.285 525.329 614.603C525.623 614.915 525.845 615.29 525.995 615.728C526.151 616.166 526.229 616.646 526.229 617.168V623ZM521.909 621.614C522.137 621.614 522.347 621.593 522.539 621.551C522.731 621.509 522.911 621.446 523.079 621.362C523.253 621.278 523.418 621.176 523.574 621.056C523.736 620.93 523.898 620.783 524.06 620.615V619.058C523.412 619.088 522.869 619.145 522.431 619.229C521.999 619.307 521.651 619.409 521.387 619.535C521.123 619.661 520.934 619.808 520.82 619.976C520.712 620.144 520.658 620.327 520.658 620.525C520.658 620.915 520.772 621.194 521 621.362C521.234 621.53 521.537 621.614 521.909 621.614ZM533.248 623.144C532.45 623.144 531.835 622.919 531.403 622.469C530.971 622.013 530.755 621.386 530.755 620.588V615.431H529.819C529.699 615.431 529.594 615.392 529.504 615.314C529.42 615.236 529.378 615.119 529.378 614.963V614.081L530.863 613.838L531.331 611.318C531.355 611.198 531.409 611.105 531.493 611.039C531.583 610.973 531.694 610.94 531.826 610.94H532.978V613.847H535.408V615.431H532.978V620.435C532.978 620.723 533.05 620.948 533.194 621.11C533.338 621.272 533.53 621.353 533.77 621.353C533.908 621.353 534.022 621.338 534.112 621.308C534.208 621.272 534.289 621.236 534.355 621.2C534.427 621.164 534.49 621.131 534.544 621.101C534.598 621.065 534.652 621.047 534.706 621.047C534.772 621.047 534.826 621.065 534.868 621.101C534.91 621.131 534.955 621.179 535.003 621.245L535.669 622.325C535.345 622.595 534.973 622.799 534.553 622.937C534.133 623.075 533.698 623.144 533.248 623.144ZM541.343 613.766V623H539.12V613.766H541.343ZM545.662 623V613.766H547.021C547.309 613.766 547.498 613.901 547.588 614.171L547.732 614.855C547.894 614.675 548.062 614.51 548.236 614.36C548.416 614.21 548.605 614.081 548.803 613.973C549.007 613.865 549.223 613.781 549.451 613.721C549.685 613.655 549.94 613.622 550.216 613.622C550.798 613.622 551.275 613.781 551.647 614.099C552.025 614.411 552.307 614.828 552.493 615.35C552.637 615.044 552.817 614.783 553.033 614.567C553.249 614.345 553.486 614.165 553.744 614.027C554.002 613.889 554.275 613.787 554.563 613.721C554.857 613.655 555.151 613.622 555.445 613.622C555.955 613.622 556.408 613.7 556.804 613.856C557.2 614.012 557.533 614.24 557.803 614.54C558.073 614.84 558.277 615.206 558.415 615.638C558.559 616.07 558.631 616.565 558.631 617.123V623H556.408V617.123C556.408 616.535 556.279 616.094 556.021 615.8C555.763 615.5 555.385 615.35 554.887 615.35C554.659 615.35 554.446 615.389 554.248 615.467C554.056 615.545 553.885 615.659 553.735 615.809C553.591 615.953 553.477 616.136 553.393 616.358C553.309 616.58 553.267 616.835 553.267 617.123V623H551.035V617.123C551.035 616.505 550.909 616.055 550.657 615.773C550.411 615.491 550.045 615.35 549.559 615.35C549.241 615.35 548.941 615.431 548.659 615.593C548.383 615.749 548.125 615.965 547.885 616.241V623H545.662ZM564.982 609.626V623H562.759V609.626H564.982ZM571.668 613.766V623H569.445V613.766H571.668ZM477.132 638.493C477.132 639.447 476.973 640.323 476.655 641.121C476.337 641.919 475.89 642.606 475.314 643.182C474.738 643.758 474.045 644.205 473.235 644.523C472.425 644.841 471.528 645 470.544 645H465.576V631.986H470.544C471.528 631.986 472.425 632.148 473.235 632.472C474.045 632.79 474.738 633.237 475.314 633.813C475.89 634.383 476.337 635.067 476.655 635.865C476.973 636.663 477.132 637.539 477.132 638.493ZM474.657 638.493C474.657 637.779 474.561 637.14 474.369 636.576C474.177 636.006 473.904 635.526 473.55 635.136C473.196 634.74 472.764 634.437 472.254 634.227C471.75 634.017 471.18 633.912 470.544 633.912H468.015V643.074H470.544C471.18 643.074 471.75 642.969 472.254 642.759C472.764 642.549 473.196 642.249 473.55 641.859C473.904 641.463 474.177 640.983 474.369 640.419C474.561 639.849 474.657 639.207 474.657 638.493ZM484.513 635.622C485.095 635.622 485.629 635.715 486.115 635.901C486.607 636.087 487.03 636.36 487.384 636.72C487.738 637.074 488.014 637.512 488.212 638.034C488.41 638.55 488.509 639.141 488.509 639.807C488.509 639.975 488.5 640.116 488.482 640.23C488.47 640.338 488.443 640.425 488.401 640.491C488.365 640.551 488.314 640.596 488.248 640.626C488.182 640.65 488.098 640.662 487.996 640.662H482.29C482.356 641.61 482.611 642.306 483.055 642.75C483.499 643.194 484.087 643.416 484.819 643.416C485.179 643.416 485.488 643.374 485.746 643.29C486.01 643.206 486.238 643.113 486.43 643.011C486.628 642.909 486.799 642.816 486.943 642.732C487.093 642.648 487.237 642.606 487.375 642.606C487.465 642.606 487.543 642.624 487.609 642.66C487.675 642.696 487.732 642.747 487.78 642.813L488.428 643.623C488.182 643.911 487.906 644.154 487.6 644.352C487.294 644.544 486.973 644.7 486.637 644.82C486.307 644.934 485.968 645.015 485.62 645.063C485.278 645.111 484.945 645.135 484.621 645.135C483.979 645.135 483.382 645.03 482.83 644.82C482.278 644.604 481.798 644.289 481.39 643.875C480.982 643.455 480.661 642.939 480.427 642.327C480.193 641.709 480.076 640.995 480.076 640.185C480.076 639.555 480.178 638.964 480.382 638.412C480.586 637.854 480.877 637.371 481.255 636.963C481.639 636.549 482.104 636.222 482.65 635.982C483.202 635.742 483.823 635.622 484.513 635.622ZM484.558 637.215C483.91 637.215 483.403 637.398 483.037 637.764C482.671 638.13 482.437 638.649 482.335 639.321H486.511C486.511 639.033 486.472 638.763 486.394 638.511C486.316 638.253 486.196 638.028 486.034 637.836C485.872 637.644 485.668 637.494 485.422 637.386C485.176 637.272 484.888 637.215 484.558 637.215ZM492.112 645V635.766H493.417C493.645 635.766 493.804 635.808 493.894 635.892C493.984 635.976 494.044 636.12 494.074 636.324L494.209 637.44C494.539 636.87 494.926 636.42 495.37 636.09C495.814 635.76 496.312 635.595 496.864 635.595C497.32 635.595 497.698 635.7 497.998 635.91L497.71 637.575C497.692 637.683 497.653 637.761 497.593 637.809C497.533 637.851 497.452 637.872 497.35 637.872C497.26 637.872 497.137 637.851 496.981 637.809C496.825 637.767 496.618 637.746 496.36 637.746C495.898 637.746 495.502 637.875 495.172 638.133C494.842 638.385 494.563 638.757 494.335 639.249V645H492.112ZM506.741 637.566C506.681 637.662 506.618 637.731 506.552 637.773C506.486 637.809 506.402 637.827 506.3 637.827C506.192 637.827 506.075 637.797 505.949 637.737C505.829 637.677 505.688 637.611 505.526 637.539C505.364 637.461 505.178 637.392 504.968 637.332C504.764 637.272 504.521 637.242 504.239 637.242C503.801 637.242 503.456 637.335 503.204 637.521C502.952 637.707 502.826 637.95 502.826 638.25C502.826 638.448 502.889 638.616 503.015 638.754C503.147 638.886 503.318 639.003 503.528 639.105C503.744 639.207 503.987 639.3 504.257 639.384C504.527 639.462 504.803 639.549 505.085 639.645C505.367 639.741 505.643 639.852 505.913 639.978C506.183 640.098 506.423 640.254 506.633 640.446C506.849 640.632 507.02 640.857 507.146 641.121C507.278 641.385 507.344 641.703 507.344 642.075C507.344 642.519 507.263 642.93 507.101 643.308C506.939 643.68 506.702 644.004 506.39 644.28C506.078 644.55 505.691 644.763 505.229 644.919C504.773 645.069 504.248 645.144 503.654 645.144C503.336 645.144 503.024 645.114 502.718 645.054C502.418 645 502.127 644.922 501.845 644.82C501.569 644.718 501.311 644.598 501.071 644.46C500.837 644.322 500.63 644.172 500.45 644.01L500.963 643.164C501.029 643.062 501.107 642.984 501.197 642.93C501.287 642.876 501.401 642.849 501.539 642.849C501.677 642.849 501.806 642.888 501.926 642.966C502.052 643.044 502.196 643.128 502.358 643.218C502.52 643.308 502.709 643.392 502.925 643.47C503.147 643.548 503.426 643.587 503.762 643.587C504.026 643.587 504.251 643.557 504.437 643.497C504.629 643.431 504.785 643.347 504.905 643.245C505.031 643.143 505.121 643.026 505.175 642.894C505.235 642.756 505.265 642.615 505.265 642.471C505.265 642.255 505.199 642.078 505.067 641.94C504.941 641.802 504.77 641.682 504.554 641.58C504.344 641.478 504.101 641.388 503.825 641.31C503.555 641.226 503.276 641.136 502.988 641.04C502.706 640.944 502.427 640.833 502.151 640.707C501.881 640.575 501.638 640.41 501.422 640.212C501.212 640.014 501.041 639.771 500.909 639.483C500.783 639.195 500.72 638.847 500.72 638.439C500.72 638.061 500.795 637.701 500.945 637.359C501.095 637.017 501.314 636.72 501.602 636.468C501.896 636.21 502.259 636.006 502.691 635.856C503.129 635.7 503.633 635.622 504.203 635.622C504.839 635.622 505.418 635.727 505.94 635.937C506.462 636.147 506.897 636.423 507.245 636.765L506.741 637.566ZM518.826 637.44H519.393C519.621 637.44 519.81 637.41 519.96 637.35C520.11 637.284 520.239 637.182 520.347 637.044L523.938 632.499C524.088 632.307 524.244 632.175 524.406 632.103C524.574 632.025 524.784 631.986 525.036 631.986H527.124L522.741 637.395C522.603 637.563 522.471 637.704 522.345 637.818C522.219 637.932 522.084 638.025 521.94 638.097C522.138 638.169 522.315 638.271 522.471 638.403C522.633 638.535 522.789 638.703 522.939 638.907L527.457 645H525.315C525.027 645 524.811 644.961 524.667 644.883C524.529 644.799 524.412 644.679 524.316 644.523L520.635 639.717C520.515 639.561 520.38 639.45 520.23 639.384C520.08 639.312 519.867 639.276 519.591 639.276H518.826V645H516.405V631.977H518.826V637.44ZM532.933 635.766V645H530.71V635.766H532.933ZM533.266 633.075C533.266 633.267 533.227 633.447 533.149 633.615C533.071 633.783 532.966 633.93 532.834 634.056C532.708 634.182 532.558 634.284 532.384 634.362C532.21 634.434 532.024 634.47 531.826 634.47C531.634 634.47 531.451 634.434 531.277 634.362C531.109 634.284 530.962 634.182 530.836 634.056C530.71 633.93 530.608 633.783 530.53 633.615C530.458 633.447 530.422 633.267 530.422 633.075C530.422 632.877 530.458 632.691 530.53 632.517C530.608 632.343 530.71 632.193 530.836 632.067C530.962 631.941 531.109 631.842 531.277 631.77C531.451 631.692 531.634 631.653 531.826 631.653C532.024 631.653 532.21 631.692 532.384 631.77C532.558 631.842 532.708 631.941 532.834 632.067C532.966 632.193 533.071 632.343 533.149 632.517C533.227 632.691 533.266 632.877 533.266 633.075ZM540.286 645.144C539.488 645.144 538.873 644.919 538.441 644.469C538.009 644.013 537.793 643.386 537.793 642.588V637.431H536.857C536.737 637.431 536.632 637.392 536.542 637.314C536.458 637.236 536.416 637.119 536.416 636.963V636.081L537.901 635.838L538.369 633.318C538.393 633.198 538.447 633.105 538.531 633.039C538.621 632.973 538.732 632.94 538.864 632.94H540.016V635.847H542.446V637.431H540.016V642.435C540.016 642.723 540.088 642.948 540.232 643.11C540.376 643.272 540.568 643.353 540.808 643.353C540.946 643.353 541.06 643.338 541.15 643.308C541.246 643.272 541.327 643.236 541.393 643.2C541.465 643.164 541.528 643.131 541.582 643.101C541.636 643.065 541.69 643.047 541.744 643.047C541.81 643.047 541.864 643.065 541.906 643.101C541.948 643.131 541.993 643.179 542.041 643.245L542.707 644.325C542.383 644.595 542.011 644.799 541.591 644.937C541.171 645.075 540.736 645.144 540.286 645.144ZM553.25 645H552.251C552.041 645 551.876 644.97 551.756 644.91C551.636 644.844 551.546 644.715 551.486 644.523L551.288 643.866C551.054 644.076 550.823 644.262 550.595 644.424C550.373 644.58 550.142 644.712 549.902 644.82C549.662 644.928 549.407 645.009 549.137 645.063C548.867 645.117 548.567 645.144 548.237 645.144C547.847 645.144 547.487 645.093 547.157 644.991C546.827 644.883 546.542 644.724 546.302 644.514C546.068 644.304 545.885 644.043 545.753 643.731C545.621 643.419 545.555 643.056 545.555 642.642C545.555 642.294 545.645 641.952 545.825 641.616C546.011 641.274 546.317 640.968 546.743 640.698C547.169 640.422 547.736 640.194 548.444 640.014C549.152 639.834 550.031 639.732 551.081 639.708V639.168C551.081 638.55 550.949 638.094 550.685 637.8C550.427 637.5 550.049 637.35 549.551 637.35C549.191 637.35 548.891 637.392 548.651 637.476C548.411 637.56 548.201 637.656 548.021 637.764C547.847 637.866 547.685 637.959 547.535 638.043C547.385 638.127 547.22 638.169 547.04 638.169C546.89 638.169 546.761 638.13 546.653 638.052C546.545 637.974 546.458 637.878 546.392 637.764L545.987 637.053C547.049 636.081 548.33 635.595 549.83 635.595C550.37 635.595 550.85 635.685 551.27 635.865C551.696 636.039 552.056 636.285 552.35 636.603C552.644 636.915 552.866 637.29 553.016 637.728C553.172 638.166 553.25 638.646 553.25 639.168V645ZM548.93 643.614C549.158 643.614 549.368 643.593 549.56 643.551C549.752 643.509 549.932 643.446 550.1 643.362C550.274 643.278 550.439 643.176 550.595 643.056C550.757 642.93 550.919 642.783 551.081 642.615V641.058C550.433 641.088 549.89 641.145 549.452 641.229C549.02 641.307 548.672 641.409 548.408 641.535C548.144 641.661 547.955 641.808 547.841 641.976C547.733 642.144 547.679 642.327 547.679 642.525C547.679 642.915 547.793 643.194 548.021 643.362C548.255 643.53 548.558 643.614 548.93 643.614ZM557.263 645V631.626H559.486V636.9C559.852 636.51 560.266 636.201 560.728 635.973C561.19 635.739 561.73 635.622 562.348 635.622C562.852 635.622 563.311 635.727 563.725 635.937C564.145 636.141 564.505 636.441 564.805 636.837C565.111 637.233 565.345 637.722 565.507 638.304C565.675 638.886 565.759 639.555 565.759 640.311C565.759 641.001 565.666 641.64 565.48 642.228C565.294 642.816 565.027 643.326 564.679 643.758C564.337 644.19 563.92 644.529 563.428 644.775C562.942 645.015 562.396 645.135 561.79 645.135C561.508 645.135 561.25 645.105 561.016 645.045C560.782 644.991 560.569 644.913 560.377 644.811C560.185 644.709 560.005 644.586 559.837 644.442C559.675 644.292 559.519 644.127 559.369 643.947L559.27 644.568C559.234 644.724 559.171 644.835 559.081 644.901C558.997 644.967 558.88 645 558.73 645H557.263ZM561.583 637.35C561.121 637.35 560.725 637.449 560.395 637.647C560.071 637.839 559.768 638.112 559.486 638.466V642.606C559.738 642.918 560.011 643.137 560.305 643.263C560.605 643.383 560.929 643.443 561.277 643.443C561.613 643.443 561.916 643.38 562.186 643.254C562.456 643.128 562.684 642.936 562.87 642.678C563.062 642.42 563.209 642.096 563.311 641.706C563.413 641.31 563.464 640.845 563.464 640.311C563.464 639.771 563.419 639.315 563.329 638.943C563.245 638.565 563.122 638.259 562.96 638.025C562.798 637.791 562.6 637.62 562.366 637.512C562.138 637.404 561.877 637.35 561.583 637.35ZM571.668 635.766V645H569.445V635.766H571.668Z" fill="white"/>
<path d="M59.939 89.269C60.681 89.269 61.3693 89.3927 62.004 89.64C62.634 89.8873 63.18 90.235 63.642 90.683C64.104 91.131 64.4657 91.67 64.727 92.3C64.9837 92.93 65.112 93.6277 65.112 94.393C65.112 95.1583 64.9837 95.8583 64.727 96.493C64.4657 97.123 64.104 97.6643 63.642 98.117C63.18 98.565 62.634 98.9127 62.004 99.16C61.3693 99.4073 60.681 99.531 59.939 99.531C59.197 99.531 58.511 99.4073 57.881 99.16C57.2463 98.9127 56.698 98.565 56.236 98.117C55.774 97.6643 55.4147 97.123 55.158 96.493C54.8967 95.8583 54.766 95.1583 54.766 94.393C54.766 93.6277 54.8967 92.93 55.158 92.3C55.4193 91.67 55.781 91.131 56.243 90.683C56.7003 90.235 57.2463 89.8873 57.881 89.64C58.511 89.3927 59.197 89.269 59.939 89.269ZM59.939 91.201C59.3837 91.201 58.8867 91.2757 58.448 91.425C58.0047 91.5697 57.629 91.7797 57.321 92.055C57.013 92.3303 56.7773 92.6663 56.614 93.063C56.4507 93.455 56.369 93.8983 56.369 94.393C56.369 94.8877 56.4507 95.3333 56.614 95.73C56.7773 96.1267 57.013 96.465 57.321 96.745C57.629 97.0203 58.0047 97.2327 58.448 97.382C58.8867 97.5313 59.3837 97.606 59.939 97.606C60.4943 97.606 60.9937 97.5313 61.437 97.382C61.8757 97.2327 62.249 97.0203 62.557 96.745C62.8603 96.465 63.0937 96.1267 63.257 95.73C63.4203 95.3333 63.502 94.8877 63.502 94.393C63.502 93.8983 63.4203 93.455 63.257 93.063C63.0937 92.6663 62.8603 92.3303 62.557 92.055C62.249 91.7797 61.8757 91.5697 61.437 91.425C60.9937 91.2757 60.4943 91.201 59.939 91.201ZM53.331 94.953C53.457 94.953 53.576 94.9787 53.688 95.03C53.8 95.0813 53.898 95.1513 53.982 95.24C54.066 95.3287 54.1313 95.4313 54.178 95.548C54.2247 95.6647 54.248 95.7883 54.248 95.919C54.248 96.0403 54.2247 96.157 54.178 96.269C54.1313 96.3763 54.066 96.472 53.982 96.556C53.898 96.64 53.8 96.7077 53.688 96.759C53.576 96.8057 53.457 96.829 53.331 96.829C53.205 96.829 53.086 96.8057 52.974 96.759C52.8573 96.7077 52.757 96.64 52.673 96.556C52.5843 96.472 52.5143 96.3763 52.463 96.269C52.4117 96.157 52.386 96.0403 52.386 95.919C52.386 95.7883 52.4117 95.6647 52.463 95.548C52.5143 95.4313 52.5843 95.3287 52.673 95.24C52.757 95.1513 52.8573 95.0813 52.974 95.03C53.086 94.9787 53.205 94.953 53.331 94.953ZM53.331 91.929C53.457 91.929 53.576 91.9547 53.688 92.006C53.8 92.0527 53.898 92.118 53.982 92.202C54.066 92.286 54.1313 92.3863 54.178 92.503C54.2247 92.615 54.248 92.7363 54.248 92.867C54.248 92.993 54.2247 93.1143 54.178 93.231C54.1313 93.343 54.066 93.4433 53.982 93.532C53.898 93.616 53.8 93.6837 53.688 93.735C53.576 93.7817 53.457 93.805 53.331 93.805C53.205 93.805 53.086 93.7817 52.974 93.735C52.8573 93.6837 52.757 93.616 52.673 93.532C52.5843 93.4433 52.5143 93.343 52.463 93.231C52.4117 93.1143 52.386 92.993 52.386 92.867C52.386 92.7363 52.4117 92.615 52.463 92.503C52.5143 92.3863 52.5843 92.286 52.673 92.202C52.757 92.118 52.8573 92.0527 52.974 92.006C53.086 91.9547 53.205 91.929 53.331 91.929ZM65 78.5392L65 79.9952C65 80.1585 64.9603 80.2939 64.881 80.4012C64.797 80.5039 64.6943 80.5785 64.573 80.6252L62.508 81.3812L62.508 85.5742L64.573 86.3302C64.6803 86.3675 64.7783 86.4422 64.867 86.5542C64.9557 86.6615 65 86.7945 65 86.9532L65 88.4162L54.878 84.4402L54.878 82.5152L65 78.5392ZM61.178 85.0912L61.178 81.8642L57.811 83.0962C57.6617 83.1522 57.4867 83.2152 57.286 83.2852C57.0807 83.3505 56.859 83.4159 56.621 83.4812C56.859 83.5465 57.0807 83.6119 57.286 83.6772C57.4913 83.7379 57.671 83.7985 57.825 83.8592L61.178 85.0912ZM65 76.7967L54.878 76.7968L54.878 73.3037C54.878 72.6411 54.941 72.0764 55.067 71.6098C55.193 71.1384 55.3727 70.7534 55.606 70.4547C55.8393 70.1514 56.1217 69.9297 56.453 69.7897C56.7843 69.6497 57.1577 69.5797 57.573 69.5797C57.811 69.5797 58.0397 69.6147 58.259 69.6847C58.4737 69.7547 58.6767 69.8644 58.868 70.0137C59.0547 70.1584 59.225 70.3451 59.379 70.5737C59.533 70.7977 59.6637 71.0661 59.771 71.3787C60.0837 69.9881 60.835 69.2927 62.025 69.2927C62.4543 69.2927 62.851 69.3744 63.215 69.5377C63.579 69.7011 63.894 69.9391 64.16 70.2517C64.4213 70.5644 64.6267 70.9494 64.776 71.4067C64.9253 71.8641 65 72.3867 65 72.9747L65 76.7967ZM60.562 74.9137L63.53 74.9137L63.53 73.0027C63.53 72.6527 63.488 72.3611 63.404 72.1277C63.32 71.8897 63.208 71.7007 63.068 71.5607C62.928 71.4161 62.7647 71.3134 62.578 71.2527C62.3913 71.1874 62.193 71.1547 61.983 71.1547C61.7637 71.1547 61.5677 71.1897 61.395 71.2597C61.2177 71.3297 61.0683 71.4394 60.947 71.5887C60.821 71.7381 60.7253 71.9294 60.66 72.1627C60.5947 72.3961 60.562 72.6784 60.562 73.0097L60.562 74.9137ZM59.26 74.9137L59.26 73.4087C59.26 72.7694 59.1433 72.2841 58.91 71.9527C58.6767 71.6214 58.3057 71.4557 57.797 71.4557C57.2697 71.4557 56.894 71.6051 56.67 71.9037C56.446 72.2024 56.334 72.6691 56.334 73.3037L56.334 74.9137L59.26 74.9137ZM54.878 59.8446L56.425 59.8446L56.425 62.8896L65 62.8896L65 64.7726L56.425 64.7726L56.425 67.8316L54.878 67.8316L54.878 59.8446Z" fill="#D2C22F"/>
</g>
<defs>
<clipPath id="clip0">
<rect width="595" height="842" fill="white"/>
</clipPath>
</defs>
</svg>
