<svg width="40" height="34" viewBox="0 0 40 34" fill="none" xmlns="http://www.w3.org/2000/svg">
<circle cx="17" cy="17" r="17" fill="#FFEB84"/>
<path fill-rule="evenodd" clip-rule="evenodd" d="M10.1965 6.64317C8.082 7.71454 9.08054 11.0132 9.84412 12.5286C8.54719 12.5286 8.50491 13.1865 8.64588 13.5154L9.59743 14.0441C10.3587 14.4106 10.314 16.1233 10.1965 16.9339C7.48993 17.7797 8.03501 18.2026 8.64588 18.3084C7.12342 21.748 8.64588 23.7357 9.59743 24.2996L20.8397 28C25.4682 26.884 35.0776 24.5463 36.4873 24.1233C37.897 23.7004 37.897 23.5477 37.7208 23.5242L35.6767 22.7841C35.2773 21.9971 34.8239 20.289 36.2054 19.7533C37.5869 19.2176 36.9689 18.5668 36.4873 18.3084C38.2353 16.8141 37.6385 14.0675 37.1217 12.8811L38.5313 12.5286C39.6591 12.2467 37.6385 11.5184 36.4873 11.1894C36.2171 10.3201 35.9657 8.52511 37.1217 8.29956C38.2776 8.07401 38.3081 7.50073 38.1789 7.24229L27.6767 4L10.1965 6.64317ZM35.9587 8.58149L22.6019 11.2951V14.8194L35.9587 11.2951C35.3948 10.3647 35.7238 9.09838 35.9587 8.58149ZM21.8971 11.3656V14.8194L10.7605 11.7533C10.2084 10.8605 9.43538 8.78591 10.7605 7.62996L21.8971 11.3656ZM10.6547 17.1806C11.1622 16.4194 10.8662 14.9369 10.6547 14.2907L24.2583 17.1806V20.4581L10.6547 17.1806ZM24.8927 17.1101L35.712 13.4097C36.2994 13.7386 37.1711 14.9745 35.9587 17.2864L24.8927 20.4582V17.1101ZM21.0512 26.3084V22.7137L9.84419 19.2247C8.40631 20.296 9.24507 22.3495 9.84419 23.2423L21.0512 26.3084ZM21.8266 22.8194V26.1322L35.0777 22.8194C34.7252 22.2555 34.2319 20.9163 35.0777 20.0705L21.8266 22.8194Z" fill="white"/>
<path fill-rule="evenodd" clip-rule="evenodd" d="M10.1965 6.64317C8.082 7.71454 9.08054 11.0132 9.84412 12.5286C8.54719 12.5286 8.50491 13.1865 8.64588 13.5154L9.59743 14.0441C10.3587 14.4106 10.314 16.1233 10.1965 16.9339C7.48993 17.7797 8.03501 18.2026 8.64588 18.3084C7.12342 21.748 8.64588 23.7357 9.59743 24.2996L20.8397 28C25.4682 26.884 35.0776 24.5463 36.4873 24.1233C37.897 23.7004 37.897 23.5477 37.7208 23.5242L35.6767 22.7841C35.2773 21.9971 34.8239 20.289 36.2054 19.7533C37.5869 19.2176 36.9689 18.5668 36.4873 18.3084C38.2353 16.8141 37.6385 14.0675 37.1217 12.8811L38.5313 12.5286C39.6591 12.2467 37.6385 11.5184 36.4873 11.1894C36.2171 10.3201 35.9657 8.52511 37.1217 8.29956C38.2776 8.07401 38.3081 7.50073 38.1789 7.24229L27.6767 4L10.1965 6.64317ZM35.9587 8.58149L22.6019 11.2951V14.8194L35.9587 11.2951C35.3948 10.3647 35.7238 9.09838 35.9587 8.58149ZM21.8971 11.3656V14.8194L10.7605 11.7533C10.2084 10.8605 9.43538 8.78591 10.7605 7.62996L21.8971 11.3656ZM10.6547 17.1806C11.1622 16.4194 10.8662 14.9369 10.6547 14.2907L24.2583 17.1806V20.4581L10.6547 17.1806ZM24.8927 17.1101L35.712 13.4097C36.2994 13.7386 37.1711 14.9745 35.9587 17.2864L24.8927 20.4582V17.1101ZM21.0512 26.3084V22.7137L9.84419 19.2247C8.40631 20.296 9.24507 22.3495 9.84419 23.2423L21.0512 26.3084ZM21.8266 22.8194V26.1322L35.0777 22.8194C34.7252 22.2555 34.2319 20.9163 35.0777 20.0705L21.8266 22.8194Z" fill="white"/>
<path fill-rule="evenodd" clip-rule="evenodd" d="M11.1965 5.64317C9.082 6.71454 10.0805 10.0132 10.8441 11.5286C9.54719 11.5286 9.50491 12.1865 9.64588 12.5154L10.5974 13.0441C11.3587 13.4106 11.314 15.1233 11.1965 15.9339C8.48993 16.7797 9.03501 17.2026 9.64588 17.3084C8.12342 20.748 9.64588 22.7357 10.5974 23.2996L21.8397 27C26.4682 25.884 36.0776 23.5463 37.4873 23.1233C38.897 22.7004 38.897 22.5477 38.7208 22.5242L36.6767 21.7841C36.2773 20.9971 35.8239 19.289 37.2054 18.7533C38.5869 18.2176 37.9689 17.5668 37.4873 17.3084C39.2353 15.8141 38.6385 13.0675 38.1217 11.8811L39.5313 11.5286C40.6591 11.2467 38.6385 10.5184 37.4873 10.1894C37.2171 9.32012 36.9657 7.52511 38.1217 7.29956C39.2776 7.07401 39.3081 6.50073 39.1789 6.24229L28.6767 3L11.1965 5.64317ZM36.9587 7.58149L23.6019 10.2951V13.8194L36.9587 10.2951C36.3948 9.36475 36.7238 8.09838 36.9587 7.58149ZM22.8971 10.3656V13.8194L11.7605 10.7533C11.2084 9.8605 10.4354 7.78591 11.7605 6.62996L22.8971 10.3656ZM11.6547 16.1806C12.1622 15.4194 11.8662 13.9369 11.6547 13.2907L25.2583 16.1806V19.4581L11.6547 16.1806ZM25.8927 16.1101L36.712 12.4097C37.2994 12.7386 38.1711 13.9745 36.9587 16.2864L25.8927 19.4582V16.1101ZM22.0512 25.3084V21.7137L10.8442 18.2247C9.40631 19.296 10.2451 21.3495 10.8442 22.2423L22.0512 25.3084ZM22.8266 21.8194V25.1322L36.0777 21.8194C35.7252 21.2555 35.2319 19.9163 36.0777 19.0705L22.8266 21.8194Z" fill="white"/>
<path fill-rule="evenodd" clip-rule="evenodd" d="M11.1965 5.64317C9.082 6.71454 10.0805 10.0132 10.8441 11.5286C9.54719 11.5286 9.50491 12.1865 9.64588 12.5154L10.5974 13.0441C11.3587 13.4106 11.314 15.1233 11.1965 15.9339C8.48993 16.7797 9.03501 17.2026 9.64588 17.3084C8.12342 20.748 9.64588 22.7357 10.5974 23.2996L21.8397 27C26.4682 25.884 36.0776 23.5463 37.4873 23.1233C38.897 22.7004 38.897 22.5477 38.7208 22.5242L36.6767 21.7841C36.2773 20.9971 35.8239 19.289 37.2054 18.7533C38.5869 18.2176 37.9689 17.5668 37.4873 17.3084C39.2353 15.8141 38.6385 13.0675 38.1217 11.8811L39.5313 11.5286C40.6591 11.2467 38.6385 10.5184 37.4873 10.1894C37.2171 9.32012 36.9657 7.52511 38.1217 7.29956C39.2776 7.07401 39.3081 6.50073 39.1789 6.24229L28.6767 3L11.1965 5.64317ZM36.9587 7.58149L23.6019 10.2951V13.8194L36.9587 10.2951C36.3948 9.36475 36.7238 8.09838 36.9587 7.58149ZM22.8971 10.3656V13.8194L11.7605 10.7533C11.2084 9.8605 10.4354 7.78591 11.7605 6.62996L22.8971 10.3656ZM11.6547 16.1806C12.1622 15.4194 11.8662 13.9369 11.6547 13.2907L25.2583 16.1806V19.4581L11.6547 16.1806ZM25.8927 16.1101L36.712 12.4097C37.2994 12.7386 38.1711 13.9745 36.9587 16.2864L25.8927 19.4582V16.1101ZM22.0512 25.3084V21.7137L10.8442 18.2247C9.40631 19.296 10.2451 21.3495 10.8442 22.2423L22.0512 25.3084ZM22.8266 21.8194V25.1322L36.0777 21.8194C35.7252 21.2555 35.2319 19.9163 36.0777 19.0705L22.8266 21.8194Z" fill="#564A0C"/>
</svg>
