<svg width="73" height="57" viewBox="0 0 73 57" fill="none" xmlns="http://www.w3.org/2000/svg">
<path fill-rule="evenodd" clip-rule="evenodd" d="M7.55173 22.6552C7.55173 21.821 8.19573 21.1448 8.99015 21.1448H21.2168C22.0112 21.1448 22.6552 21.821 22.6552 22.6552C22.6552 23.4893 22.0112 24.1655 21.2168 24.1655H8.99015C8.19573 24.1655 7.55173 23.4893 7.55173 22.6552Z" fill="white"/>
<path fill-rule="evenodd" clip-rule="evenodd" d="M23.6621 22.9069C23.6621 21.9337 24.4561 21.1448 25.4356 21.1448H37.4955C38.4749 21.1448 39.269 21.9337 39.269 22.9069C39.269 23.8801 38.4749 24.669 37.4955 24.669H25.4356C24.4561 24.669 23.6621 23.8801 23.6621 22.9069Z" fill="white"/>
<path fill-rule="evenodd" clip-rule="evenodd" d="M51.7898 21.1448H37.4272L32.255 21.2109C32.0281 21.2138 31.8247 21.3508 31.7373 21.5595L30.4576 24.6168H31.1702C31.9556 24.6168 32.5923 25.2512 32.5923 26.0339C32.5923 26.8165 31.9556 27.451 31.1702 27.451H29.2713L27.8477 30.8521H28.3261C29.1115 30.8521 29.7482 31.4865 29.7482 32.2692C29.7482 33.0518 29.1115 33.6863 28.3261 33.6863H26.6613L25.2377 37.0874H26.3353C27.1207 37.0874 27.7573 37.7218 27.7573 38.5045C27.7573 39.2871 27.1207 39.9216 26.3353 39.9216H24.0514L22.5621 43.4795C23.2486 43.58 23.7756 44.1694 23.7756 44.8815C23.7756 45.6641 23.1389 46.2986 22.3536 46.2986H21.3821L21.1887 46.7607C21.1597 46.8299 21.1448 46.904 21.1448 46.9789V48.6288C21.1448 48.9162 21.3607 49.1581 21.6472 49.1917L23.3763 49.3944C23.4971 49.4086 23.6193 49.3838 23.7249 49.3236L23.9644 49.1873C24.0275 49.1513 24.0836 49.1028 24.1294 49.0464C26.0102 46.7274 28.1139 46.2005 28.9885 46.2257C29.0215 46.2267 29.0539 46.2256 29.0867 46.2223C31.2957 45.9963 33.2625 48.1971 34.1285 49.5602C34.2377 49.732 34.4247 49.8414 34.6288 49.8414H51.7898C52.104 49.8414 52.3586 49.5876 52.3586 49.2745V21.7117C52.3586 21.3986 52.104 21.1448 51.7898 21.1448Z" fill="white"/>
<path fill-rule="evenodd" clip-rule="evenodd" d="M19.131 28.9483C19.131 27.9751 19.9251 27.1862 20.9046 27.1862H32.9644C33.9439 27.1862 34.7379 27.9751 34.7379 28.9483C34.7379 29.9215 33.9439 30.7104 32.9644 30.7104H20.9046C19.9251 30.7104 19.131 29.9215 19.131 28.9483Z" fill="white"/>
<path fill-rule="evenodd" clip-rule="evenodd" d="M11.5793 34.9897C11.5793 34.0165 12.367 33.2276 13.3387 33.2276H35.9993C36.9709 33.2276 37.7586 34.0165 37.7586 34.9897C37.7586 35.9628 36.9709 36.7517 35.9993 36.7517H13.3387C12.367 36.7517 11.5793 35.9628 11.5793 34.9897Z" fill="white"/>
<path fill-rule="evenodd" clip-rule="evenodd" d="M7.55173 41.5345C7.55173 40.5613 8.34289 39.7724 9.31885 39.7724H30.4536C31.4295 39.7724 32.2207 40.5613 32.2207 41.5345C32.2207 42.5076 31.4295 43.2965 30.4536 43.2965H9.31885C8.34289 43.2965 7.55173 42.5076 7.55173 41.5345Z" fill="white"/>
<path fill-rule="evenodd" clip-rule="evenodd" d="M11.5793 48.0793C11.5793 47.1061 12.3545 46.3172 13.3108 46.3172H22.9375C23.8938 46.3172 24.669 47.1061 24.669 48.0793C24.669 49.0525 23.8938 49.8414 22.9375 49.8414H13.3108C12.3545 49.8414 11.5793 49.0525 11.5793 48.0793Z" fill="white"/>
<path fill-rule="evenodd" clip-rule="evenodd" d="M0 29.2C0 28.3659 0.635748 27.6897 1.41998 27.6897H15.1938C15.978 27.6897 16.6138 28.3659 16.6138 29.2C16.6138 30.0342 15.978 30.7104 15.1938 30.7104H1.41998C0.635748 30.7104 0 30.0342 0 29.2Z" fill="white"/>
<path fill-rule="evenodd" clip-rule="evenodd" d="M2.51724 35.2414C2.51724 34.4072 3.1851 33.731 4.00894 33.731H9.08072C9.90456 33.731 10.5724 34.4072 10.5724 35.2414C10.5724 36.0755 9.90456 36.7517 9.08072 36.7517H4.00894C3.1851 36.7517 2.51724 36.0755 2.51724 35.2414Z" fill="white"/>
<path fill-rule="evenodd" clip-rule="evenodd" d="M29.2 54.0093C30.3897 54.0093 31.3541 53.0448 31.3541 51.8552C31.3541 50.6655 30.3897 49.7011 29.2 49.7011C28.0103 49.7011 27.0459 50.6655 27.0459 51.8552C27.0459 53.0448 28.0103 54.0093 29.2 54.0093ZM29.2 56.3862C31.7024 56.3862 33.731 54.3576 33.731 51.8552C33.731 49.3527 31.7024 47.3241 29.2 47.3241C26.6976 47.3241 24.669 49.3527 24.669 51.8552C24.669 54.3576 26.6976 56.3862 29.2 56.3862Z" fill="white"/>
<path fill-rule="evenodd" clip-rule="evenodd" d="M63.1828 54.0093C64.3063 54.0093 65.2172 53.0448 65.2172 51.8552C65.2172 50.6655 64.3063 49.7011 63.1828 49.7011C62.0592 49.7011 61.1483 50.6655 61.1483 51.8552C61.1483 53.0448 62.0592 54.0093 63.1828 54.0093ZM63.1828 56.3862C65.5462 56.3862 67.4621 54.3576 67.4621 51.8552C67.4621 49.3527 65.5462 47.3241 63.1828 47.3241C60.8194 47.3241 58.9034 49.3527 58.9034 51.8552C58.9034 54.3576 60.8194 56.3862 63.1828 56.3862Z" fill="white"/>
<path fill-rule="evenodd" clip-rule="evenodd" d="M53.869 29.7694C53.869 29.4549 54.1237 29.2 54.4379 29.2H65.3719C65.5612 29.2 65.7381 29.2943 65.8438 29.4514L72.903 39.9459C72.9662 40.0399 73 40.1506 73 40.2639V49.272C73 49.5865 72.7453 49.8414 72.431 49.8414H68.0574C67.8217 49.8414 67.6128 49.695 67.5085 49.4835C66.9266 48.304 65.4354 46.4564 62.9722 46.3537C60.4883 46.2501 58.9143 48.2192 58.2931 49.4868C58.1901 49.6971 57.9821 49.8414 57.7481 49.8414H54.4379C54.1237 49.8414 53.869 49.5865 53.869 49.272V29.7694ZM59.4162 30.6236C59.102 30.6236 58.8473 30.8785 58.8473 31.193V38.3819C58.8473 38.6963 59.102 38.9513 59.4162 38.9513H69.2867C69.7302 38.9513 70.0032 38.4659 69.7731 38.0865L65.4142 30.8976C65.311 30.7274 65.1266 30.6236 64.9278 30.6236H59.4162Z" fill="white"/>
<path d="M37.2285 19.822H34.2345C34.2345 4.14404 45.2839 1.09358 50.2739 0.17135C55.2639 -0.750885 64.3173 1.94488 68.5232 10.8125C71.8879 17.9066 68.642 25.3555 66.5984 28.1931H62.8203C64.9589 26.0885 68.7085 20.2051 66.5984 13.5083C63.9609 5.13722 53.1966 -0.183364 44.3571 4.9244C37.2855 9.01061 36.6582 16.5587 37.2285 19.822Z" fill="white"/>
<path fill-rule="evenodd" clip-rule="evenodd" d="M51.9055 5.53793C52.4894 5.53793 52.9627 6.01568 52.9627 6.60501V18.779L60.8728 23.1701C61.3844 23.4542 61.571 24.103 61.2896 24.6194C61.0082 25.1358 60.3654 25.3241 59.8538 25.0401L50.8483 20.0409V6.60501C50.8483 6.01568 51.3216 5.53793 51.9055 5.53793Z" fill="white"/>
</svg>
