<svg width="595" height="842" viewBox="0 0 595 842" fill="none" xmlns="http://www.w3.org/2000/svg">
<g clip-path="url(#clip0)">
<rect width="595" height="842" fill="white"/>
<path d="M452 0H552V94C552 97.3137 549.314 100 546 100H458C454.686 100 452 97.3137 452 94V0Z" fill="#DA1B1B"/>
<path d="M484.342 43H470.697V40.293L477.137 33.4297C478.021 32.4635 478.673 31.6204 479.092 30.9004C479.52 30.1803 479.734 29.4967 479.734 28.8496C479.734 27.9655 479.511 27.2728 479.064 26.7715C478.618 26.2611 477.98 26.0059 477.15 26.0059C476.257 26.0059 475.551 26.3158 475.031 26.9355C474.521 27.5462 474.266 28.3529 474.266 29.3555H470.301C470.301 28.1432 470.588 27.0358 471.162 26.0332C471.745 25.0306 472.566 24.2467 473.623 23.6816C474.68 23.1074 475.879 22.8203 477.219 22.8203C479.27 22.8203 480.86 23.3125 481.99 24.2969C483.13 25.2812 483.699 26.6712 483.699 28.4668C483.699 29.4512 483.444 30.4538 482.934 31.4746C482.423 32.4954 481.548 33.6849 480.309 35.043L475.783 39.8145H484.342V43ZM500.174 34.7695C500.174 37.5221 499.604 39.6276 498.465 41.0859C497.326 42.5443 495.658 43.2734 493.461 43.2734C491.292 43.2734 489.633 42.5579 488.484 41.127C487.336 39.696 486.748 37.6452 486.721 34.9746V31.3105C486.721 28.5306 487.295 26.4206 488.443 24.9805C489.601 23.5404 491.264 22.8203 493.434 22.8203C495.603 22.8203 497.262 23.5358 498.41 24.9668C499.559 26.3887 500.146 28.4349 500.174 31.1055V34.7695ZM496.223 30.75C496.223 29.1003 495.995 27.9017 495.539 27.1543C495.092 26.3978 494.391 26.0195 493.434 26.0195C492.504 26.0195 491.816 26.3796 491.369 27.0996C490.932 27.8105 490.699 28.9271 490.672 30.4492V35.2891C490.672 36.9115 490.891 38.1191 491.328 38.9121C491.775 39.696 492.486 40.0879 493.461 40.0879C494.427 40.0879 495.124 39.7096 495.553 38.9531C495.981 38.1966 496.204 37.0391 496.223 35.4805V30.75ZM516.498 43H502.854V40.293L509.293 33.4297C510.177 32.4635 510.829 31.6204 511.248 30.9004C511.676 30.1803 511.891 29.4967 511.891 28.8496C511.891 27.9655 511.667 27.2728 511.221 26.7715C510.774 26.2611 510.136 26.0059 509.307 26.0059C508.413 26.0059 507.707 26.3158 507.188 26.9355C506.677 27.5462 506.422 28.3529 506.422 29.3555H502.457C502.457 28.1432 502.744 27.0358 503.318 26.0332C503.902 25.0306 504.722 24.2467 505.779 23.6816C506.837 23.1074 508.035 22.8203 509.375 22.8203C511.426 22.8203 513.016 23.3125 514.146 24.2969C515.286 25.2812 515.855 26.6712 515.855 28.4668C515.855 29.4512 515.6 30.4538 515.09 31.4746C514.579 32.4954 513.704 33.6849 512.465 35.043L507.939 39.8145H516.498V43ZM528.529 43H524.578V27.7695L519.861 29.2324V26.0195L528.105 23.0664H528.529V43ZM474.361 68.0156L472.229 70.3125V76H468.127V56.0938H472.229V65.1172L474.033 62.6426L479.105 56.0938H484.15L477.082 64.9395L484.355 76H479.475L474.361 68.0156ZM490.002 68.9863V76H485.9V56.0938H493.666C495.161 56.0938 496.473 56.3672 497.604 56.9141C498.743 57.4609 499.618 58.2402 500.229 59.252C500.839 60.2546 501.145 61.3984 501.145 62.6836C501.145 64.6341 500.475 66.1745 499.135 67.3047C497.804 68.4258 495.958 68.9863 493.598 68.9863H490.002ZM490.002 65.6641H493.666C494.751 65.6641 495.576 65.4089 496.141 64.8984C496.715 64.388 497.002 63.6589 497.002 62.7109C497.002 61.7357 496.715 60.9473 496.141 60.3457C495.566 59.7441 494.773 59.4342 493.762 59.416H490.002V65.6641ZM514.297 70.7773C514.297 70.0026 514.023 69.4102 513.477 69C512.93 68.5807 511.945 68.1432 510.523 67.6875C509.102 67.2227 507.976 66.7669 507.146 66.3203C504.886 65.099 503.756 63.4538 503.756 61.3848C503.756 60.3092 504.057 59.3522 504.658 58.5137C505.269 57.666 506.139 57.0052 507.27 56.5312C508.409 56.0573 509.685 55.8203 511.098 55.8203C512.52 55.8203 513.786 56.0801 514.898 56.5996C516.01 57.11 516.872 57.8346 517.482 58.7734C518.102 59.7122 518.412 60.7786 518.412 61.9727H514.311C514.311 61.0612 514.023 60.3548 513.449 59.8535C512.875 59.3431 512.068 59.0879 511.029 59.0879C510.027 59.0879 509.247 59.3021 508.691 59.7305C508.135 60.1497 507.857 60.7057 507.857 61.3984C507.857 62.0456 508.181 62.5879 508.828 63.0254C509.484 63.4629 510.446 63.873 511.713 64.2559C514.046 64.9577 515.746 65.8281 516.812 66.8672C517.879 67.9062 518.412 69.2005 518.412 70.75C518.412 72.4727 517.76 73.8262 516.457 74.8105C515.154 75.7858 513.399 76.2734 511.193 76.2734C509.662 76.2734 508.268 75.9954 507.01 75.4395C505.752 74.8743 504.79 74.1042 504.125 73.1289C503.469 72.1536 503.141 71.0234 503.141 69.7383H507.256C507.256 71.9349 508.568 73.0332 511.193 73.0332C512.169 73.0332 512.93 72.8372 513.477 72.4453C514.023 72.0443 514.297 71.4883 514.297 70.7773ZM531.523 70.7773C531.523 70.0026 531.25 69.4102 530.703 69C530.156 68.5807 529.172 68.1432 527.75 67.6875C526.328 67.2227 525.202 66.7669 524.373 66.3203C522.113 65.099 520.982 63.4538 520.982 61.3848C520.982 60.3092 521.283 59.3522 521.885 58.5137C522.495 57.666 523.366 57.0052 524.496 56.5312C525.635 56.0573 526.911 55.8203 528.324 55.8203C529.746 55.8203 531.013 56.0801 532.125 56.5996C533.237 57.11 534.098 57.8346 534.709 58.7734C535.329 59.7122 535.639 60.7786 535.639 61.9727H531.537C531.537 61.0612 531.25 60.3548 530.676 59.8535C530.102 59.3431 529.295 59.0879 528.256 59.0879C527.253 59.0879 526.474 59.3021 525.918 59.7305C525.362 60.1497 525.084 60.7057 525.084 61.3984C525.084 62.0456 525.408 62.5879 526.055 63.0254C526.711 63.4629 527.673 63.873 528.939 64.2559C531.273 64.9577 532.973 65.8281 534.039 66.8672C535.105 67.9062 535.639 69.2005 535.639 70.75C535.639 72.4727 534.987 73.8262 533.684 74.8105C532.38 75.7858 530.626 76.2734 528.42 76.2734C526.889 76.2734 525.494 75.9954 524.236 75.4395C522.979 74.8743 522.017 74.1042 521.352 73.1289C520.695 72.1536 520.367 71.0234 520.367 69.7383H524.482C524.482 71.9349 525.795 73.0332 528.42 73.0332C529.395 73.0332 530.156 72.8372 530.703 72.4453C531.25 72.0443 531.523 71.4883 531.523 70.7773Z" fill="white"/>
<path d="M61.3825 792.496C61.6975 792.676 61.93 792.871 62.08 793.081C62.215 793.276 62.2825 793.524 62.2825 793.824C62.2825 794.139 62.17 794.484 61.945 794.859C61.705 795.219 61.4425 795.654 61.1575 796.164C60.8725 796.674 60.6175 797.274 60.3925 797.964C60.1525 798.639 60.0325 799.441 60.0325 800.371C60.0325 801.211 60.1375 801.946 60.3475 802.576C60.5425 803.206 60.82 803.739 61.18 804.174C61.54 804.594 61.975 804.909 62.485 805.119C62.98 805.329 63.5275 805.434 64.1275 805.434C64.8925 805.434 65.53 805.224 66.04 804.804C66.55 804.369 66.985 803.799 67.345 803.094C67.705 802.389 68.0275 801.586 68.3125 800.686C68.5975 799.786 68.905 798.864 69.235 797.919C69.55 796.974 69.925 796.051 70.36 795.151C70.78 794.251 71.32 793.449 71.98 792.744C72.625 792.039 73.42 791.476 74.365 791.056C75.31 790.621 76.4575 790.404 77.8075 790.404C79.2775 790.404 80.6575 790.659 81.9475 791.169C83.2225 791.664 84.34 792.399 85.3 793.374C86.245 794.334 86.995 795.511 87.55 796.906C88.09 798.301 88.36 799.899 88.36 801.699C88.36 802.734 88.255 803.754 88.045 804.759C87.85 805.764 87.565 806.731 87.19 807.661C86.815 808.576 86.365 809.439 85.84 810.249C85.315 811.059 84.73 811.779 84.085 812.409L81.1825 810.631C80.9725 810.481 80.8 810.286 80.665 810.046C80.515 809.806 80.44 809.551 80.44 809.281C80.44 808.906 80.5975 808.501 80.9125 808.066C81.2125 807.631 81.55 807.114 81.925 806.514C82.3 805.914 82.645 805.216 82.96 804.421C83.26 803.611 83.41 802.644 83.41 801.519C83.41 799.794 83.005 798.459 82.195 797.514C81.37 796.569 80.1925 796.096 78.6625 796.096C77.8075 796.096 77.11 796.314 76.57 796.749C76.03 797.169 75.58 797.731 75.22 798.436C74.845 799.141 74.53 799.944 74.275 800.844C74.02 801.744 73.7425 802.659 73.4425 803.589C73.1425 804.519 72.7825 805.434 72.3625 806.334C71.9425 807.234 71.395 808.036 70.72 808.741C70.045 809.446 69.205 810.016 68.2 810.451C67.18 810.871 65.9275 811.081 64.4425 811.081C63.2575 811.081 62.1025 810.849 60.9775 810.384C59.8525 809.904 58.855 809.214 57.985 808.314C57.115 807.414 56.4175 806.304 55.8925 804.984C55.3675 803.664 55.105 802.149 55.105 800.439C55.105 798.519 55.405 796.749 56.005 795.129C56.605 793.509 57.445 792.129 58.525 790.989L61.3825 792.496ZM88 772.299L88 778.374L55.465 778.374L55.465 772.299L88 772.299ZM55.465 730.837L88 730.837L88 733.942C88 734.422 87.925 734.827 87.775 735.157C87.61 735.472 87.34 735.78 86.965 736.08L65.275 753.067C66.265 752.977 67.18 752.932 68.02 752.932L88 752.932L88 758.265L55.465 758.265L55.465 755.092C55.465 754.837 55.48 754.62 55.51 754.44C55.525 754.245 55.57 754.08 55.645 753.945C55.705 753.795 55.8025 753.652 55.9375 753.517C56.0575 753.382 56.2225 753.232 56.4325 753.067L78.2125 736.012C77.6875 736.057 77.17 736.095 76.66 736.125C76.15 736.155 75.6775 736.17 75.2425 736.17L55.465 736.17L55.465 730.837ZM88 710.767L88 716.842L55.465 716.842L55.465 710.767L88 710.767ZM60.28 690.657L69.91 690.657L69.91 678.462L74.7475 678.462L74.7475 690.657L88 690.657L88 696.732L55.465 696.732L55.465 676.212L60.28 676.212L60.28 690.657ZM75.4 635.73L88 635.73L88 641.76L75.4 641.76L55.465 653.617L55.465 648.285C55.465 647.76 55.5925 647.347 55.8475 647.047C56.1025 646.732 56.425 646.47 56.815 646.26L67.6825 640.32C68.3275 639.975 68.935 639.675 69.505 639.42C70.075 639.15 70.645 638.91 71.215 638.7C70.645 638.505 70.075 638.28 69.505 638.025C68.935 637.77 68.3275 637.477 67.6825 637.147L56.815 631.23C56.485 631.065 56.1775 630.817 55.8925 630.487C55.6075 630.157 55.465 629.737 55.465 629.227L55.465 623.872L75.4 635.73ZM75.715 599.966L64.8925 603.926C64.4125 604.121 63.8425 604.324 63.1825 604.534C62.5225 604.744 61.81 604.954 61.045 605.164C61.81 605.359 62.53 605.561 63.205 605.771C63.865 605.981 64.4425 606.184 64.9375 606.379L75.715 610.316L75.715 599.966ZM88 589.279L88 593.959C88 594.484 87.8725 594.911 87.6175 595.241C87.3475 595.571 87.0175 595.819 86.6275 595.984L79.99 598.414L79.99 611.891L86.6275 614.321C86.9725 614.441 87.2875 614.674 87.5725 615.019C87.8575 615.364 88 615.791 88 616.301L88 621.026L55.465 608.224L55.465 602.059L88 589.279ZM75.4 568.572L88 568.572L88 574.602L75.4 574.602L55.465 586.46L55.465 581.127C55.465 580.602 55.5925 580.19 55.8475 579.89C56.1025 579.575 56.425 579.312 56.815 579.102L67.6825 573.162C68.3275 572.817 68.935 572.517 69.505 572.262C70.075 571.992 70.645 571.752 71.215 571.542C70.645 571.347 70.075 571.122 69.505 570.867C68.935 570.612 68.3275 570.32 67.6825 569.99L56.815 564.072C56.485 563.907 56.1775 563.66 55.8925 563.33C55.6075 563 55.465 562.58 55.465 562.07L55.465 556.715L75.4 568.572ZM88 540.54L88 546.615L55.465 546.615L55.465 540.54L88 540.54ZM55.465 499.078L88 499.078L88 502.183C88 502.663 87.925 503.068 87.775 503.398C87.61 503.713 87.34 504.021 86.965 504.321L65.275 521.308C66.265 521.218 67.18 521.173 68.02 521.173L88 521.173L88 526.506L55.465 526.506L55.465 523.333C55.465 523.078 55.48 522.861 55.51 522.681C55.525 522.486 55.57 522.321 55.645 522.186C55.705 522.036 55.8025 521.893 55.9375 521.758C56.0575 521.623 56.2225 521.473 56.4325 521.308L78.2125 504.253C77.6875 504.298 77.17 504.336 76.66 504.366C76.15 504.396 75.6775 504.411 75.2425 504.411L55.465 504.411L55.465 499.078ZM83.005 466.026L88 466.026L88 485.083L55.465 485.083L55.465 479.031L83.005 479.031L83.005 466.026ZM75.715 437.764L64.8925 441.724C64.4125 441.919 63.8425 442.122 63.1825 442.332C62.5225 442.542 61.81 442.752 61.045 442.962C61.81 443.157 62.53 443.359 63.205 443.569C63.865 443.779 64.4425 443.982 64.9375 444.177L75.715 448.114L75.715 437.764ZM88 427.077L88 431.757C88 432.282 87.8725 432.709 87.6175 433.039C87.3475 433.369 87.0175 433.617 86.6275 433.782L79.99 436.212L79.99 449.689L86.6275 452.119C86.9725 452.239 87.2875 452.472 87.5725 452.817C87.8575 453.162 88 453.589 88 454.099L88 458.824L55.465 446.022L55.465 439.857L88 427.077ZM70.945 407.127C70.945 405.987 70.8025 404.997 70.5175 404.157C70.2325 403.302 69.8425 402.604 69.3475 402.064C68.8375 401.509 68.2375 401.097 67.5475 400.827C66.8575 400.557 66.1 400.422 65.275 400.422C63.625 400.422 62.3575 400.969 61.4725 402.064C60.5875 403.144 60.145 404.802 60.145 407.037L60.145 410.907L70.945 410.907L70.945 407.127ZM88 391.557L88 397.024C88 398.059 87.595 398.809 86.785 399.274L76.3675 406.114C75.9775 406.369 75.7 406.654 75.535 406.969C75.37 407.269 75.2875 407.719 75.2875 408.319L75.2875 410.907L88 410.907L88 416.959L55.465 416.959L55.465 407.037C55.465 404.832 55.6975 402.942 56.1625 401.367C56.6125 399.777 57.25 398.479 58.075 397.474C58.9 396.454 59.89 395.704 61.045 395.224C62.185 394.744 63.445 394.504 64.825 394.504C65.92 394.504 66.955 394.669 67.93 394.999C68.905 395.314 69.79 395.779 70.585 396.394C71.38 396.994 72.0775 397.744 72.6775 398.644C73.2775 399.529 73.75 400.542 74.095 401.682C74.32 401.292 74.59 400.932 74.905 400.602C75.205 400.272 75.565 399.972 75.985 399.702L88 391.557ZM88 375.218L88 381.293L55.465 381.293L55.465 375.218L88 375.218Z" fill="#B41717"/>
<path d="M99.7125 166.162C97.7375 168.637 95.3375 170.587 92.5125 172.012C89.6875 173.412 86.35 174.25 82.5 174.525L82.0125 176.288C84.3625 176.838 86.0125 177.575 86.9625 178.5C87.9125 179.45 88.3875 180.575 88.3875 181.875C88.3875 182.725 88.1625 183.488 87.7125 184.163C87.2875 184.838 86.6625 185.413 85.8375 185.888C85.0375 186.363 84.075 186.725 82.95 186.975C81.825 187.225 80.5875 187.35 79.2375 187.35C78.2125 187.35 77.25 187.275 76.35 187.125C75.475 187 74.6 186.8 73.725 186.525L74.5875 183.637C74.7375 183.063 75.1 182.775 75.675 182.775C76.025 182.775 76.4 182.863 76.8 183.038C77.225 183.238 77.8375 183.338 78.6375 183.338C79.4625 183.338 80.075 183.175 80.475 182.85C80.9 182.55 81.1125 182.175 81.1125 181.725C81.1125 181 80.6625 180.475 79.7625 180.15C78.8625 179.85 77.475 179.563 75.6 179.288L77.25 174.488C73.65 174.163 70.4 173.262 67.5 171.787C64.625 170.287 62.175 168.325 60.15 165.9C58.125 163.475 56.575 160.65 55.5 157.425C54.425 154.2 53.8875 150.687 53.8875 146.887C53.8875 142.812 54.5375 139.087 55.8375 135.712C57.1375 132.312 58.9625 129.387 61.3125 126.937C63.6875 124.487 66.5125 122.587 69.7875 121.237C73.0625 119.862 76.6875 119.175 80.6625 119.175C84.6125 119.175 88.1125 119.825 91.1625 121.125C94.2375 122.425 96.85 124.125 99 126.225L95.625 130.912C95.425 131.212 95.1625 131.475 94.8375 131.7C94.5375 131.925 94.1125 132.037 93.5625 132.037C93.1875 132.037 92.8 131.937 92.4 131.737C92 131.512 91.5625 131.25 91.0875 130.95C90.6125 130.625 90.0625 130.275 89.4375 129.9C88.8125 129.525 88.0875 129.187 87.2625 128.887C86.4375 128.562 85.475 128.3 84.375 128.1C83.3 127.875 82.05 127.762 80.625 127.762C78.2 127.762 75.975 128.2 73.95 129.075C71.95 129.925 70.225 131.175 68.775 132.825C67.325 134.45 66.2 136.45 65.4 138.825C64.6 141.175 64.2 143.862 64.2 146.887C64.2 149.937 64.625 152.65 65.475 155.025C66.35 157.4 67.525 159.4 69 161.025C70.475 162.65 72.2125 163.9 74.2125 164.775C76.2125 165.625 78.3625 166.05 80.6625 166.05C82.0375 166.05 83.275 165.975 84.375 165.825C85.5 165.675 86.525 165.437 87.45 165.112C88.4 164.787 89.2875 164.375 90.1125 163.875C90.9625 163.35 91.8 162.712 92.625 161.962C92.875 161.737 93.1375 161.562 93.4125 161.437C93.6875 161.287 93.975 161.212 94.275 161.212C94.825 161.212 95.3125 161.425 95.7375 161.85L99.7125 166.162ZM160.913 146.887C160.913 150.862 160.251 154.55 158.926 157.95C157.626 161.325 155.776 164.25 153.376 166.725C150.976 169.2 148.088 171.137 144.713 172.537C141.338 173.913 137.588 174.6 133.463 174.6C129.363 174.6 125.626 173.913 122.251 172.537C118.876 171.137 115.976 169.2 113.551 166.725C111.151 164.25 109.288 161.325 107.963 157.95C106.638 154.55 105.976 150.862 105.976 146.887C105.976 142.912 106.638 139.237 107.963 135.862C109.288 132.462 111.151 129.525 113.551 127.05C115.976 124.575 118.876 122.65 122.251 121.275C125.626 119.875 129.363 119.175 133.463 119.175C136.213 119.175 138.801 119.5 141.226 120.15C143.651 120.775 145.876 121.675 147.901 122.85C149.926 124 151.738 125.412 153.338 127.087C154.963 128.737 156.338 130.587 157.463 132.637C158.588 134.687 159.438 136.912 160.013 139.312C160.613 141.712 160.913 144.237 160.913 146.887ZM150.601 146.887C150.601 143.912 150.201 141.25 149.401 138.9C148.601 136.525 147.463 134.512 145.988 132.862C144.513 131.212 142.713 129.95 140.588 129.075C138.488 128.2 136.113 127.762 133.463 127.762C130.813 127.762 128.426 128.2 126.301 129.075C124.201 129.95 122.401 131.212 120.901 132.862C119.426 134.512 118.288 136.525 117.488 138.9C116.688 141.25 116.288 143.912 116.288 146.887C116.288 149.862 116.688 152.537 117.488 154.912C118.288 157.262 119.426 159.262 120.901 160.912C122.401 162.537 124.201 163.787 126.301 164.662C128.426 165.537 130.813 165.975 133.463 165.975C136.113 165.975 138.488 165.537 140.588 164.662C142.713 163.787 144.513 162.537 145.988 160.912C147.463 159.262 148.601 157.262 149.401 154.912C150.201 152.537 150.601 149.862 150.601 146.887ZM210.759 161.212C211.309 161.212 211.797 161.425 212.222 161.85L216.197 166.162C213.997 168.887 211.284 170.975 208.059 172.425C204.859 173.875 201.009 174.6 196.509 174.6C192.484 174.6 188.859 173.913 185.634 172.537C182.434 171.162 179.697 169.25 177.422 166.8C175.147 164.35 173.397 161.425 172.172 158.025C170.972 154.625 170.372 150.912 170.372 146.887C170.372 142.812 171.022 139.087 172.322 135.712C173.622 132.312 175.447 129.387 177.797 126.937C180.172 124.487 182.997 122.587 186.272 121.237C189.547 119.862 193.172 119.175 197.147 119.175C201.097 119.175 204.597 119.825 207.647 121.125C210.722 122.425 213.334 124.125 215.484 126.225L212.109 130.912C211.909 131.212 211.647 131.475 211.322 131.7C211.022 131.925 210.597 132.037 210.047 132.037C209.672 132.037 209.284 131.937 208.884 131.737C208.484 131.512 208.047 131.25 207.572 130.95C207.097 130.625 206.547 130.275 205.922 129.9C205.297 129.525 204.572 129.187 203.747 128.887C202.922 128.562 201.959 128.3 200.859 128.1C199.784 127.875 198.534 127.762 197.109 127.762C194.684 127.762 192.459 128.2 190.434 129.075C188.434 129.925 186.709 131.175 185.259 132.825C183.809 134.45 182.684 136.45 181.884 138.825C181.084 141.175 180.684 143.862 180.684 146.887C180.684 149.937 181.109 152.65 181.959 155.025C182.834 157.4 184.009 159.4 185.484 161.025C186.959 162.65 188.697 163.9 190.697 164.775C192.697 165.625 194.847 166.05 197.147 166.05C198.522 166.05 199.759 165.975 200.859 165.825C201.984 165.675 203.009 165.437 203.934 165.112C204.884 164.787 205.772 164.375 206.597 163.875C207.447 163.35 208.284 162.712 209.109 161.962C209.359 161.737 209.622 161.562 209.897 161.437C210.172 161.287 210.459 161.212 210.759 161.212ZM248.682 165.862C250.632 165.862 252.369 165.537 253.894 164.887C255.444 164.237 256.744 163.325 257.794 162.15C258.844 160.975 259.644 159.55 260.194 157.875C260.769 156.2 261.057 154.325 261.057 152.25V119.775H271.144V152.25C271.144 155.475 270.619 158.462 269.569 161.212C268.544 163.937 267.057 166.3 265.107 168.3C263.182 170.275 260.832 171.825 258.057 172.95C255.282 174.05 252.157 174.6 248.682 174.6C245.182 174.6 242.044 174.05 239.269 172.95C236.494 171.825 234.132 170.275 232.182 168.3C230.257 166.3 228.769 163.937 227.719 161.212C226.694 158.462 226.182 155.475 226.182 152.25V119.775H236.269V152.212C236.269 154.287 236.544 156.162 237.094 157.837C237.669 159.512 238.482 160.95 239.532 162.15C240.607 163.325 241.907 164.237 243.432 164.887C244.982 165.537 246.732 165.862 248.682 165.862ZM296.358 142.5H298.721C299.671 142.5 300.458 142.375 301.083 142.125C301.708 141.85 302.246 141.425 302.696 140.85L317.658 121.912C318.283 121.112 318.933 120.562 319.608 120.262C320.308 119.937 321.183 119.775 322.233 119.775H330.933L312.671 142.312C311.596 143.687 310.483 144.662 309.333 145.237C310.158 145.537 310.896 145.962 311.546 146.512C312.221 147.037 312.858 147.737 313.458 148.612L332.283 174H323.396C322.196 174 321.296 173.837 320.696 173.512C320.121 173.162 319.633 172.662 319.233 172.012L303.896 151.987C303.421 151.312 302.871 150.837 302.246 150.562C301.621 150.287 300.721 150.15 299.546 150.15H296.358V174H286.271V119.775H296.358V142.5ZM67.1625 217.8V232.837H86.1375V240.6H67.1625V255.937H91.2375V264H57.0375V209.775H91.2375V217.8H67.1625ZM152.077 236.887C152.077 240.862 151.415 244.512 150.09 247.837C148.765 251.162 146.902 254.025 144.502 256.425C142.102 258.825 139.215 260.687 135.84 262.012C132.465 263.337 128.715 264 124.59 264H103.927V209.775H124.59C128.715 209.775 132.465 210.45 135.84 211.8C139.215 213.125 142.102 214.987 144.502 217.387C146.902 219.762 148.765 222.612 150.09 225.937C151.415 229.262 152.077 232.912 152.077 236.887ZM141.727 236.887C141.727 233.912 141.327 231.25 140.527 228.9C139.752 226.525 138.615 224.525 137.115 222.9C135.64 221.25 133.84 219.987 131.715 219.112C129.615 218.237 127.24 217.8 124.59 217.8H114.052V255.975H124.59C127.24 255.975 129.615 255.537 131.715 254.662C133.84 253.787 135.64 252.537 137.115 250.912C138.615 249.262 139.752 247.262 140.527 244.912C141.327 242.537 141.727 239.862 141.727 236.887ZM174.858 217.8V232.837H193.833V240.6H174.858V255.937H198.933V264H164.733V209.775H198.933V217.8H174.858ZM231.91 256.125C233.785 256.125 235.36 255.9 236.635 255.45C237.91 255 238.922 254.4 239.672 253.65C240.447 252.9 240.997 252.025 241.322 251.025C241.672 250.025 241.847 248.962 241.847 247.837C241.847 246.662 241.66 245.612 241.285 244.687C240.91 243.737 240.322 242.937 239.522 242.287C238.722 241.612 237.685 241.1 236.41 240.75C235.16 240.4 233.647 240.225 231.872 240.225H221.71V256.125H231.91ZM221.71 217.575V233.25H229.735C233.185 233.25 235.785 232.625 237.535 231.375C239.31 230.125 240.197 228.137 240.197 225.412C240.197 222.587 239.397 220.575 237.797 219.375C236.197 218.175 233.697 217.575 230.297 217.575H221.71ZM230.297 209.775C233.847 209.775 236.885 210.112 239.41 210.787C241.935 211.462 243.997 212.425 245.597 213.675C247.222 214.925 248.41 216.437 249.16 218.212C249.91 219.987 250.285 221.987 250.285 224.212C250.285 225.487 250.097 226.712 249.722 227.887C249.347 229.037 248.76 230.125 247.96 231.15C247.185 232.15 246.185 233.062 244.96 233.887C243.76 234.712 242.322 235.412 240.647 235.987C248.097 237.662 251.822 241.687 251.822 248.062C251.822 250.362 251.385 252.487 250.51 254.437C249.635 256.387 248.36 258.075 246.685 259.5C245.01 260.9 242.947 262 240.497 262.8C238.047 263.6 235.247 264 232.097 264H211.622V209.775H230.297ZM274.863 264H264.738V209.775H274.863V264ZM275.575 200.475C275.575 201.225 275.413 201.937 275.088 202.612C274.788 203.262 274.375 203.85 273.85 204.375C273.325 204.875 272.713 205.275 272.013 205.575C271.313 205.875 270.575 206.025 269.8 206.025C269.075 206.025 268.375 205.875 267.7 205.575C267.025 205.275 266.425 204.875 265.9 204.375C265.4 203.85 265 203.262 264.7 202.612C264.4 201.937 264.25 201.225 264.25 200.475C264.25 199.7 264.4 198.975 264.7 198.3C265 197.6 265.4 197 265.9 196.5C266.425 195.975 267.025 195.562 267.7 195.262C268.375 194.962 269.075 194.812 269.8 194.812C270.575 194.812 271.313 194.962 272.013 195.262C272.713 195.562 273.325 195.975 273.85 196.5C274.375 197 274.788 197.6 275.088 198.3C275.413 198.975 275.575 199.7 275.575 200.475ZM314.041 243V264H303.991V243L284.228 209.775H293.116C293.991 209.775 294.678 209.987 295.178 210.412C295.703 210.837 296.141 211.375 296.491 212.025L306.391 230.137C306.966 231.212 307.466 232.225 307.891 233.175C308.341 234.125 308.741 235.075 309.091 236.025C309.416 235.075 309.791 234.125 310.216 233.175C310.641 232.225 311.128 231.212 311.678 230.137L321.541 212.025C321.816 211.475 322.228 210.962 322.778 210.487C323.328 210.012 324.028 209.775 324.878 209.775H333.803L314.041 243ZM366.146 243.525L359.546 225.487C359.221 224.687 358.884 223.737 358.534 222.637C358.184 221.537 357.834 220.35 357.484 219.075C357.159 220.35 356.821 221.55 356.471 222.675C356.121 223.775 355.784 224.737 355.459 225.562L348.896 243.525H366.146ZM383.959 264H376.159C375.284 264 374.571 263.787 374.021 263.362C373.471 262.912 373.059 262.362 372.784 261.712L368.734 250.65H346.271L342.221 261.712C342.021 262.287 341.634 262.812 341.059 263.287C340.484 263.762 339.771 264 338.921 264H331.046L352.384 209.775H362.659L383.959 264ZM425.923 218.062H409.573V264H399.486V218.062H383.136V209.775H425.923V218.062ZM446.894 264H436.769V209.775H446.894V264Z" fill="#DA1B1B"/>
<rect x="77" y="59" width="243" height="40" rx="20" fill="#DA1B1B"/>
<path d="M117.718 76.536C117.654 76.648 117.585 76.7307 117.51 76.784C117.441 76.832 117.353 76.856 117.246 76.856C117.134 76.856 117.012 76.816 116.878 76.736C116.75 76.6507 116.596 76.5573 116.414 76.456C116.233 76.3547 116.02 76.264 115.774 76.184C115.534 76.0987 115.249 76.056 114.918 76.056C114.62 76.056 114.358 76.0933 114.134 76.168C113.91 76.2373 113.721 76.336 113.566 76.464C113.417 76.592 113.305 76.7467 113.23 76.928C113.156 77.104 113.118 77.2987 113.118 77.512C113.118 77.784 113.193 78.0107 113.342 78.192C113.497 78.3733 113.7 78.528 113.95 78.656C114.201 78.784 114.486 78.8987 114.806 79C115.126 79.1013 115.454 79.2107 115.79 79.328C116.126 79.44 116.454 79.5733 116.774 79.728C117.094 79.8773 117.38 80.0693 117.63 80.304C117.881 80.5333 118.081 80.816 118.23 81.152C118.385 81.488 118.462 81.896 118.462 82.376C118.462 82.8987 118.372 83.3893 118.19 83.848C118.014 84.3013 117.753 84.6987 117.406 85.04C117.065 85.376 116.646 85.6427 116.15 85.84C115.654 86.032 115.086 86.128 114.446 86.128C114.078 86.128 113.716 86.0907 113.358 86.016C113.001 85.9467 112.657 85.8453 112.326 85.712C112.001 85.5787 111.694 85.4187 111.406 85.232C111.118 85.0453 110.862 84.8373 110.638 84.608L111.27 83.576C111.324 83.5013 111.393 83.44 111.478 83.392C111.564 83.3387 111.654 83.312 111.75 83.312C111.884 83.312 112.028 83.368 112.182 83.48C112.337 83.5867 112.521 83.7067 112.734 83.84C112.948 83.9733 113.196 84.096 113.478 84.208C113.766 84.3147 114.11 84.368 114.51 84.368C115.124 84.368 115.598 84.224 115.934 83.936C116.27 83.6427 116.438 83.224 116.438 82.68C116.438 82.376 116.361 82.128 116.206 81.936C116.057 81.744 115.857 81.584 115.606 81.456C115.356 81.3227 115.07 81.2107 114.75 81.12C114.43 81.0293 114.105 80.9307 113.774 80.824C113.444 80.7173 113.118 80.5893 112.798 80.44C112.478 80.2907 112.193 80.096 111.942 79.856C111.692 79.616 111.489 79.3173 111.334 78.96C111.185 78.5973 111.11 78.152 111.11 77.624C111.11 77.2027 111.193 76.792 111.358 76.392C111.529 75.992 111.774 75.6373 112.094 75.328C112.414 75.0187 112.809 74.7707 113.278 74.584C113.748 74.3973 114.286 74.304 114.894 74.304C115.577 74.304 116.206 74.4107 116.782 74.624C117.358 74.8373 117.849 75.136 118.254 75.52L117.718 76.536ZM123.3 86H121.14V74.432H123.3V86ZM136.442 74.432V86H135.338C135.167 86 135.023 85.9733 134.906 85.92C134.794 85.8613 134.684 85.7653 134.578 85.632L128.538 77.92C128.57 78.272 128.586 78.5973 128.586 78.896V86H126.69V74.432H127.818C127.908 74.432 127.986 74.4373 128.05 74.448C128.119 74.4533 128.178 74.4693 128.226 74.496C128.279 74.5173 128.33 74.552 128.378 74.6C128.426 74.6427 128.479 74.7013 128.538 74.776L134.602 82.52C134.586 82.3333 134.572 82.1493 134.562 81.968C134.551 81.7867 134.546 81.6187 134.546 81.464V74.432H136.442ZM141.978 86H139.818V74.432H141.978V86ZM147.528 76.144V79.568H151.864V81.288H147.528V86H145.368V74.432H152.664V76.144H147.528ZM170.562 80.216C170.562 81.064 170.421 81.8507 170.138 82.576C169.861 83.296 169.466 83.92 168.954 84.448C168.442 84.976 167.826 85.3893 167.106 85.688C166.386 85.9813 165.586 86.128 164.706 86.128C163.832 86.128 163.034 85.9813 162.314 85.688C161.594 85.3893 160.976 84.976 160.458 84.448C159.946 83.92 159.549 83.296 159.266 82.576C158.984 81.8507 158.842 81.064 158.842 80.216C158.842 79.368 158.984 78.584 159.266 77.864C159.549 77.1387 159.946 76.512 160.458 75.984C160.976 75.456 161.594 75.0453 162.314 74.752C163.034 74.4533 163.832 74.304 164.706 74.304C165.293 74.304 165.845 74.3733 166.362 74.512C166.88 74.6453 167.354 74.8373 167.786 75.088C168.218 75.3333 168.605 75.6347 168.946 75.992C169.293 76.344 169.586 76.7387 169.826 77.176C170.066 77.6133 170.248 78.088 170.37 78.6C170.498 79.112 170.562 79.6507 170.562 80.216ZM168.362 80.216C168.362 79.5813 168.277 79.0133 168.106 78.512C167.936 78.0053 167.693 77.576 167.378 77.224C167.064 76.872 166.68 76.6027 166.226 76.416C165.778 76.2293 165.272 76.136 164.706 76.136C164.141 76.136 163.632 76.2293 163.178 76.416C162.73 76.6027 162.346 76.872 162.026 77.224C161.712 77.576 161.469 78.0053 161.298 78.512C161.128 79.0133 161.042 79.5813 161.042 80.216C161.042 80.8507 161.128 81.4213 161.298 81.928C161.469 82.4293 161.712 82.856 162.026 83.208C162.346 83.5547 162.73 83.8213 163.178 84.008C163.632 84.1947 164.141 84.288 164.706 84.288C165.272 84.288 165.778 84.1947 166.226 84.008C166.68 83.8213 167.064 83.5547 167.378 83.208C167.693 82.856 167.936 82.4293 168.106 81.928C168.277 81.4213 168.362 80.8507 168.362 80.216ZM164.034 72.664C164.034 72.808 164.005 72.944 163.946 73.072C163.888 73.2 163.808 73.312 163.706 73.408C163.61 73.504 163.496 73.5787 163.362 73.632C163.229 73.6853 163.088 73.712 162.938 73.712C162.8 73.712 162.666 73.6853 162.538 73.632C162.416 73.5787 162.306 73.504 162.21 73.408C162.114 73.312 162.037 73.2 161.978 73.072C161.92 72.944 161.89 72.808 161.89 72.664C161.89 72.52 161.92 72.384 161.978 72.256C162.037 72.1227 162.114 72.008 162.21 71.912C162.306 71.8107 162.416 71.7307 162.538 71.672C162.666 71.6133 162.8 71.584 162.938 71.584C163.088 71.584 163.229 71.6133 163.362 71.672C163.496 71.7307 163.61 71.8107 163.706 71.912C163.808 72.008 163.888 72.1227 163.946 72.256C164.005 72.384 164.034 72.52 164.034 72.664ZM167.554 72.664C167.554 72.808 167.525 72.944 167.466 73.072C167.413 73.2 167.336 73.312 167.234 73.408C167.138 73.504 167.024 73.5787 166.89 73.632C166.762 73.6853 166.626 73.712 166.482 73.712C166.333 73.712 166.192 73.6853 166.058 73.632C165.93 73.5787 165.818 73.504 165.722 73.408C165.626 73.312 165.549 73.2 165.49 73.072C165.437 72.944 165.41 72.808 165.41 72.664C165.41 72.52 165.437 72.384 165.49 72.256C165.549 72.1227 165.626 72.008 165.722 71.912C165.818 71.8107 165.93 71.7307 166.058 71.672C166.192 71.6133 166.333 71.584 166.482 71.584C166.626 71.584 166.762 71.6133 166.89 71.672C167.024 71.7307 167.138 71.8107 167.234 71.912C167.336 72.008 167.413 72.1227 167.466 72.256C167.525 72.384 167.554 72.52 167.554 72.664ZM182.788 80.2V84.88C182.201 85.312 181.575 85.6293 180.908 85.832C180.247 86.0293 179.537 86.128 178.78 86.128C177.836 86.128 176.98 85.9813 176.212 85.688C175.449 85.3947 174.796 84.9867 174.252 84.464C173.713 83.9413 173.297 83.3173 173.004 82.592C172.711 81.8667 172.564 81.0747 172.564 80.216C172.564 79.3467 172.705 78.5493 172.988 77.824C173.271 77.0987 173.671 76.4747 174.188 75.952C174.711 75.4293 175.343 75.024 176.084 74.736C176.825 74.448 177.657 74.304 178.58 74.304C179.049 74.304 179.487 74.3413 179.892 74.416C180.303 74.4907 180.681 74.5947 181.028 74.728C181.38 74.856 181.7 75.0133 181.988 75.2C182.276 75.3867 182.54 75.592 182.78 75.816L182.164 76.792C182.068 76.9467 181.943 77.0427 181.788 77.08C181.633 77.112 181.465 77.072 181.284 76.96C181.108 76.8587 180.932 76.7573 180.756 76.656C180.58 76.5547 180.383 76.4667 180.164 76.392C179.951 76.3173 179.708 76.256 179.436 76.208C179.169 76.16 178.86 76.136 178.508 76.136C177.937 76.136 177.42 76.232 176.956 76.424C176.497 76.616 176.105 76.8907 175.78 77.248C175.455 77.6053 175.204 78.0347 175.028 78.536C174.852 79.0373 174.764 79.5973 174.764 80.216C174.764 80.8773 174.857 81.4693 175.044 81.992C175.236 82.5093 175.503 82.9493 175.844 83.312C176.191 83.6693 176.607 83.944 177.092 84.136C177.577 84.3227 178.119 84.416 178.716 84.416C179.143 84.416 179.524 84.3707 179.86 84.28C180.196 84.1893 180.524 84.0667 180.844 83.912V81.816H179.388C179.249 81.816 179.14 81.7787 179.06 81.704C178.985 81.624 178.948 81.528 178.948 81.416V80.2H182.788ZM178.564 73.632C178.164 73.632 177.801 73.5893 177.476 73.504C177.151 73.4133 176.873 73.28 176.644 73.104C176.415 72.9227 176.236 72.696 176.108 72.424C175.985 72.1467 175.924 71.8213 175.924 71.448H177.436C177.436 71.608 177.455 71.7493 177.492 71.872C177.529 71.9947 177.591 72.0987 177.676 72.184C177.767 72.2693 177.884 72.336 178.028 72.384C178.172 72.4267 178.351 72.448 178.564 72.448C178.985 72.448 179.279 72.3627 179.444 72.192C179.609 72.016 179.692 71.768 179.692 71.448H181.204C181.204 71.7893 181.14 72.096 181.012 72.368C180.889 72.6347 180.713 72.864 180.484 73.056C180.255 73.2427 179.977 73.3867 179.652 73.488C179.327 73.584 178.964 73.632 178.564 73.632ZM189.157 79.936C189.563 79.936 189.915 79.8853 190.213 79.784C190.517 79.6827 190.765 79.544 190.957 79.368C191.155 79.1867 191.301 78.9733 191.397 78.728C191.493 78.4827 191.541 78.2133 191.541 77.92C191.541 77.3333 191.347 76.8827 190.957 76.568C190.573 76.2533 189.984 76.096 189.189 76.096H187.813V79.936H189.157ZM194.693 86H192.749C192.381 86 192.115 85.856 191.949 85.568L189.517 81.864C189.427 81.7253 189.325 81.6267 189.213 81.568C189.107 81.5093 188.947 81.48 188.733 81.48H187.813V86H185.661V74.432H189.189C189.973 74.432 190.645 74.5147 191.205 74.68C191.771 74.84 192.232 75.0667 192.589 75.36C192.952 75.6533 193.219 76.0053 193.389 76.416C193.56 76.8213 193.645 77.2693 193.645 77.76C193.645 78.1493 193.587 78.5173 193.469 78.864C193.357 79.2107 193.192 79.5253 192.973 79.808C192.76 80.0907 192.493 80.3387 192.173 80.552C191.859 80.7653 191.499 80.9333 191.093 81.056C191.232 81.136 191.36 81.232 191.477 81.344C191.595 81.4507 191.701 81.5787 191.797 81.728L194.693 86ZM198.903 76.144V79.352H202.951V81.008H198.903V84.28H204.039V86H196.743V74.432H204.039V76.144H198.903ZM214.826 76.2H211.338V86H209.186V76.2H205.698V74.432H214.826V76.2ZM229.684 74.432V86H227.788V78.528C227.788 78.2293 227.804 77.9067 227.836 77.56L224.34 84.128C224.174 84.4427 223.921 84.6 223.58 84.6H223.276C222.934 84.6 222.681 84.4427 222.516 84.128L218.98 77.536C218.996 77.712 219.009 77.8853 219.02 78.056C219.03 78.2267 219.036 78.384 219.036 78.528V86H217.14V74.432H218.764C218.86 74.432 218.942 74.4347 219.012 74.44C219.081 74.4453 219.142 74.4587 219.196 74.48C219.254 74.5013 219.305 74.536 219.348 74.584C219.396 74.632 219.441 74.696 219.484 74.776L222.948 81.2C223.038 81.3707 223.121 81.5467 223.196 81.728C223.276 81.9093 223.353 82.096 223.428 82.288C223.502 82.0907 223.58 81.9013 223.66 81.72C223.74 81.5333 223.825 81.3547 223.916 81.184L227.332 74.776C227.374 74.696 227.42 74.632 227.468 74.584C227.516 74.536 227.566 74.5013 227.62 74.48C227.678 74.4587 227.742 74.4453 227.812 74.44C227.881 74.4347 227.964 74.432 228.06 74.432H229.684ZM235.225 76.144V79.352H239.273V81.008H235.225V84.28H240.361V86H233.065V74.432H240.361V76.144H235.225ZM252.82 74.432V86H251.716C251.545 86 251.401 85.9733 251.284 85.92C251.172 85.8613 251.062 85.7653 250.956 85.632L244.916 77.92C244.948 78.272 244.964 78.5973 244.964 78.896V86H243.068V74.432H244.196C244.286 74.432 244.364 74.4373 244.428 74.448C244.497 74.4533 244.556 74.4693 244.604 74.496C244.657 74.5173 244.708 74.552 244.756 74.6C244.804 74.6427 244.857 74.7013 244.916 74.776L250.98 82.52C250.964 82.3333 250.95 82.1493 250.94 81.968C250.929 81.7867 250.924 81.6187 250.924 81.464V74.432H252.82ZM262.972 84.224V86H256.196V74.432H258.348V84.224H262.972ZM267.468 86H265.308V74.432H267.468V86ZM267.62 72.448C267.62 72.608 267.586 72.76 267.516 72.904C267.452 73.0427 267.364 73.168 267.252 73.28C267.14 73.3867 267.01 73.472 266.86 73.536C266.711 73.6 266.554 73.632 266.388 73.632C266.234 73.632 266.084 73.6 265.94 73.536C265.796 73.472 265.668 73.3867 265.556 73.28C265.45 73.168 265.364 73.0427 265.3 72.904C265.236 72.76 265.204 72.608 265.204 72.448C265.204 72.2827 265.236 72.128 265.3 71.984C265.364 71.8347 265.45 71.7067 265.556 71.6C265.668 71.488 265.796 71.4 265.94 71.336C266.084 71.272 266.234 71.24 266.388 71.24C266.554 71.24 266.711 71.272 266.86 71.336C267.01 71.4 267.14 71.488 267.252 71.6C267.364 71.7067 267.452 71.8347 267.516 71.984C267.586 72.128 267.62 72.2827 267.62 72.448ZM280.394 80.2V84.88C279.808 85.312 279.181 85.6293 278.514 85.832C277.853 86.0293 277.144 86.128 276.386 86.128C275.442 86.128 274.586 85.9813 273.818 85.688C273.056 85.3947 272.402 84.9867 271.858 84.464C271.32 83.9413 270.904 83.3173 270.61 82.592C270.317 81.8667 270.17 81.0747 270.17 80.216C270.17 79.3467 270.312 78.5493 270.594 77.824C270.877 77.0987 271.277 76.4747 271.794 75.952C272.317 75.4293 272.949 75.024 273.69 74.736C274.432 74.448 275.264 74.304 276.186 74.304C276.656 74.304 277.093 74.3413 277.498 74.416C277.909 74.4907 278.288 74.5947 278.634 74.728C278.986 74.856 279.306 75.0133 279.594 75.2C279.882 75.3867 280.146 75.592 280.386 75.816L279.77 76.792C279.674 76.9467 279.549 77.0427 279.394 77.08C279.24 77.112 279.072 77.072 278.89 76.96C278.714 76.8587 278.538 76.7573 278.362 76.656C278.186 76.5547 277.989 76.4667 277.77 76.392C277.557 76.3173 277.314 76.256 277.042 76.208C276.776 76.16 276.466 76.136 276.114 76.136C275.544 76.136 275.026 76.232 274.562 76.424C274.104 76.616 273.712 76.8907 273.386 77.248C273.061 77.6053 272.81 78.0347 272.634 78.536C272.458 79.0373 272.37 79.5973 272.37 80.216C272.37 80.8773 272.464 81.4693 272.65 81.992C272.842 82.5093 273.109 82.9493 273.45 83.312C273.797 83.6693 274.213 83.944 274.698 84.136C275.184 84.3227 275.725 84.416 276.322 84.416C276.749 84.416 277.13 84.3707 277.466 84.28C277.802 84.1893 278.13 84.0667 278.45 83.912V81.816H276.994C276.856 81.816 276.746 81.7787 276.666 81.704C276.592 81.624 276.554 81.528 276.554 81.416V80.2H280.394ZM276.17 73.632C275.77 73.632 275.408 73.5893 275.082 73.504C274.757 73.4133 274.48 73.28 274.25 73.104C274.021 72.9227 273.842 72.696 273.714 72.424C273.592 72.1467 273.53 71.8213 273.53 71.448H275.042C275.042 71.608 275.061 71.7493 275.098 71.872C275.136 71.9947 275.197 72.0987 275.282 72.184C275.373 72.2693 275.49 72.336 275.634 72.384C275.778 72.4267 275.957 72.448 276.17 72.448C276.592 72.448 276.885 72.3627 277.05 72.192C277.216 72.016 277.298 71.768 277.298 71.448H278.81C278.81 71.7893 278.746 72.096 278.618 72.368C278.496 72.6347 278.32 72.864 278.09 73.056C277.861 73.2427 277.584 73.3867 277.258 73.488C276.933 73.584 276.57 73.632 276.17 73.632ZM285.428 86H283.268V74.432H285.428V86ZM285.58 72.448C285.58 72.608 285.545 72.76 285.476 72.904C285.412 73.0427 285.324 73.168 285.212 73.28C285.1 73.3867 284.969 73.472 284.82 73.536C284.67 73.6 284.513 73.632 284.348 73.632C284.193 73.632 284.044 73.6 283.9 73.536C283.756 73.472 283.628 73.3867 283.516 73.28C283.409 73.168 283.324 73.0427 283.26 72.904C283.196 72.76 283.164 72.608 283.164 72.448C283.164 72.2827 283.196 72.128 283.26 71.984C283.324 71.8347 283.409 71.7067 283.516 71.6C283.628 71.488 283.756 71.4 283.9 71.336C284.044 71.272 284.193 71.24 284.348 71.24C284.513 71.24 284.67 71.272 284.82 71.336C284.969 71.4 285.1 71.488 285.212 71.6C285.324 71.7067 285.412 71.8347 285.476 71.984C285.545 72.128 285.58 72.2827 285.58 72.448Z" fill="white"/>
<path d="M396.213 593H592.795C595.117 593 597 594.883 597 597.206V656.794C597 659.117 595.117 661 592.795 661H396.213C392.467 661 390.591 656.469 393.24 653.82L417.077 629.974C418.719 628.332 418.719 625.668 417.077 624.026L393.24 600.18C390.591 597.531 392.467 593 396.213 593Z" fill="#DA1B1B"/>
<path d="M437.321 615.44H437.888C438.116 615.44 438.305 615.41 438.455 615.35C438.605 615.284 438.734 615.182 438.842 615.044L442.433 610.499C442.583 610.307 442.739 610.175 442.901 610.103C443.069 610.025 443.279 609.986 443.531 609.986H445.619L441.236 615.395C440.978 615.725 440.711 615.959 440.435 616.097C440.633 616.169 440.81 616.271 440.966 616.403C441.128 616.529 441.281 616.697 441.425 616.907L445.943 623H443.81C443.522 623 443.306 622.961 443.162 622.883C443.024 622.799 442.907 622.679 442.811 622.523L439.13 617.717C439.016 617.555 438.884 617.441 438.734 617.375C438.584 617.309 438.368 617.276 438.086 617.276H437.321V623H434.9V609.986H437.321V615.44ZM452.107 613.622C452.791 613.622 453.412 613.733 453.97 613.955C454.534 614.177 455.014 614.492 455.41 614.9C455.812 615.308 456.121 615.806 456.337 616.394C456.553 616.982 456.661 617.639 456.661 618.365C456.661 619.097 456.553 619.757 456.337 620.345C456.121 620.933 455.812 621.434 455.41 621.848C455.014 622.262 454.534 622.58 453.97 622.802C453.412 623.024 452.791 623.135 452.107 623.135C451.417 623.135 450.79 623.024 450.226 622.802C449.662 622.58 449.179 622.262 448.777 621.848C448.381 621.434 448.072 620.933 447.85 620.345C447.634 619.757 447.526 619.097 447.526 618.365C447.526 617.639 447.634 616.982 447.85 616.394C448.072 615.806 448.381 615.308 448.777 614.9C449.179 614.492 449.662 614.177 450.226 613.955C450.79 613.733 451.417 613.622 452.107 613.622ZM452.107 621.425C452.875 621.425 453.442 621.167 453.808 620.651C454.18 620.135 454.366 619.379 454.366 618.383C454.366 617.387 454.18 616.628 453.808 616.106C453.442 615.584 452.875 615.323 452.107 615.323C451.327 615.323 450.748 615.587 450.37 616.115C449.998 616.637 449.812 617.393 449.812 618.383C449.812 619.373 449.998 620.129 450.37 620.651C450.748 621.167 451.327 621.425 452.107 621.425ZM462.236 614.9C462.422 614.714 462.617 614.543 462.821 614.387C463.031 614.225 463.25 614.09 463.478 613.982C463.712 613.868 463.961 613.781 464.225 613.721C464.489 613.655 464.777 613.622 465.089 613.622C465.593 613.622 466.04 613.709 466.43 613.883C466.82 614.051 467.144 614.291 467.402 614.603C467.666 614.909 467.864 615.278 467.996 615.71C468.134 616.136 468.203 616.607 468.203 617.123V623H465.98V617.123C465.98 616.559 465.851 616.124 465.593 615.818C465.335 615.506 464.942 615.35 464.414 615.35C464.03 615.35 463.67 615.437 463.334 615.611C462.998 615.785 462.68 616.022 462.38 616.322V623H460.157V613.766H461.516C461.804 613.766 461.993 613.901 462.083 614.171L462.236 614.9ZM480.073 613.766V623H478.714C478.42 623 478.234 622.865 478.156 622.595L478.003 621.857C477.625 622.241 477.208 622.553 476.752 622.793C476.296 623.027 475.759 623.144 475.141 623.144C474.637 623.144 474.19 623.06 473.8 622.892C473.416 622.718 473.092 622.475 472.828 622.163C472.564 621.851 472.363 621.482 472.225 621.056C472.093 620.624 472.027 620.15 472.027 619.634V613.766H474.25V619.634C474.25 620.198 474.379 620.636 474.637 620.948C474.901 621.254 475.294 621.407 475.816 621.407C476.2 621.407 476.56 621.323 476.896 621.155C477.232 620.981 477.55 620.744 477.85 620.444V613.766H480.073ZM496.883 618.086L495.299 613.757C495.221 613.565 495.14 613.337 495.056 613.073C494.972 612.809 494.888 612.524 494.804 612.218C494.726 612.524 494.645 612.812 494.561 613.082C494.477 613.346 494.396 613.577 494.318 613.775L492.743 618.086H496.883ZM501.158 623H499.286C499.076 623 498.905 622.949 498.773 622.847C498.641 622.739 498.542 622.607 498.476 622.451L497.504 619.796H492.113L491.141 622.451C491.093 622.589 491 622.715 490.862 622.829C490.724 622.943 490.553 623 490.349 623H488.459L493.58 609.986H496.046L501.158 623ZM506.016 614.9C506.202 614.714 506.397 614.543 506.601 614.387C506.811 614.225 507.03 614.09 507.258 613.982C507.492 613.868 507.741 613.781 508.005 613.721C508.269 613.655 508.557 613.622 508.869 613.622C509.373 613.622 509.82 613.709 510.21 613.883C510.6 614.051 510.924 614.291 511.182 614.603C511.446 614.909 511.644 615.278 511.776 615.71C511.914 616.136 511.983 616.607 511.983 617.123V623H509.76V617.123C509.76 616.559 509.631 616.124 509.373 615.818C509.115 615.506 508.722 615.35 508.194 615.35C507.81 615.35 507.45 615.437 507.114 615.611C506.778 615.785 506.46 616.022 506.16 616.322V623H503.937V613.766H505.296C505.584 613.766 505.773 613.901 505.863 614.171L506.016 614.9ZM518.147 609.626V623H515.924V609.626H518.147ZM527.04 619.058C526.398 619.088 525.858 619.145 525.42 619.229C524.982 619.307 524.631 619.409 524.367 619.535C524.103 619.661 523.914 619.808 523.8 619.976C523.686 620.144 523.629 620.327 523.629 620.525C523.629 620.915 523.743 621.194 523.971 621.362C524.205 621.53 524.508 621.614 524.88 621.614C525.336 621.614 525.729 621.533 526.059 621.371C526.395 621.203 526.722 620.951 527.04 620.615V619.058ZM521.946 615.053C523.008 614.081 524.286 613.595 525.78 613.595C526.32 613.595 526.803 613.685 527.229 613.865C527.655 614.039 528.015 614.285 528.309 614.603C528.603 614.915 528.825 615.29 528.975 615.728C529.131 616.166 529.209 616.646 529.209 617.168V623H528.201C527.991 623 527.829 622.97 527.715 622.91C527.601 622.844 527.511 622.715 527.445 622.523L527.247 621.857C527.013 622.067 526.785 622.253 526.563 622.415C526.341 622.571 526.11 622.703 525.87 622.811C525.63 622.919 525.372 623 525.096 623.054C524.826 623.114 524.526 623.144 524.196 623.144C523.806 623.144 523.446 623.093 523.116 622.991C522.786 622.883 522.501 622.724 522.261 622.514C522.021 622.304 521.835 622.043 521.703 621.731C521.571 621.419 521.505 621.056 521.505 620.642C521.505 620.408 521.544 620.177 521.622 619.949C521.7 619.715 521.826 619.493 522 619.283C522.18 619.073 522.411 618.875 522.693 618.689C522.975 618.503 523.32 618.341 523.728 618.203C524.142 618.065 524.622 617.954 525.168 617.87C525.714 617.78 526.338 617.726 527.04 617.708V617.168C527.04 616.55 526.908 616.094 526.644 615.8C526.38 615.5 525.999 615.35 525.501 615.35C525.141 615.35 524.841 615.392 524.601 615.476C524.367 615.56 524.16 615.656 523.98 615.764C523.8 615.866 523.635 615.959 523.485 616.043C523.341 616.127 523.179 616.169 522.999 616.169C522.843 616.169 522.711 616.13 522.603 616.052C522.495 615.968 522.408 615.872 522.342 615.764L521.946 615.053ZM542.294 623H540.071V615.431H535.787V620.435C535.787 620.723 535.856 620.948 535.994 621.11C536.138 621.272 536.333 621.353 536.579 621.353C536.717 621.353 536.831 621.338 536.921 621.308C537.017 621.272 537.098 621.236 537.164 621.2C537.236 621.164 537.299 621.131 537.353 621.101C537.407 621.065 537.461 621.047 537.515 621.047C537.581 621.047 537.635 621.065 537.677 621.101C537.719 621.131 537.764 621.179 537.812 621.245L538.478 622.325C538.154 622.595 537.782 622.799 537.362 622.937C536.942 623.075 536.507 623.144 536.057 623.144C535.253 623.144 534.635 622.919 534.203 622.469C533.777 622.013 533.564 621.386 533.564 620.588V615.431H532.619C532.499 615.431 532.397 615.392 532.313 615.314C532.229 615.236 532.187 615.119 532.187 614.963V614.081L533.672 613.829L534.14 611.318C534.17 611.198 534.227 611.105 534.311 611.039C534.395 610.973 534.503 610.94 534.635 610.94H535.787V613.847H542.294V623ZM546.363 623V613.766H547.722C548.01 613.766 548.199 613.901 548.289 614.171L548.433 614.855C548.595 614.675 548.763 614.51 548.937 614.36C549.117 614.21 549.306 614.081 549.504 613.973C549.708 613.865 549.924 613.781 550.152 613.721C550.386 613.655 550.641 613.622 550.917 613.622C551.499 613.622 551.976 613.781 552.348 614.099C552.726 614.411 553.008 614.828 553.194 615.35C553.338 615.044 553.518 614.783 553.734 614.567C553.95 614.345 554.187 614.165 554.445 614.027C554.703 613.889 554.976 613.787 555.264 613.721C555.558 613.655 555.852 613.622 556.146 613.622C556.656 613.622 557.109 613.7 557.505 613.856C557.901 614.012 558.234 614.24 558.504 614.54C558.774 614.84 558.978 615.206 559.116 615.638C559.26 616.07 559.332 616.565 559.332 617.123V623H557.109V617.123C557.109 616.535 556.98 616.094 556.722 615.8C556.464 615.5 556.086 615.35 555.588 615.35C555.36 615.35 555.147 615.389 554.949 615.467C554.757 615.545 554.586 615.659 554.436 615.809C554.292 615.953 554.178 616.136 554.094 616.358C554.01 616.58 553.968 616.835 553.968 617.123V623H551.736V617.123C551.736 616.505 551.61 616.055 551.358 615.773C551.112 615.491 550.749 615.35 550.269 615.35C549.945 615.35 549.642 615.431 549.36 615.593C549.084 615.749 548.826 615.965 548.586 616.241V623H546.363ZM565.495 609.626V623H563.272V609.626H565.495ZM571.814 613.766V623H569.591V613.766H571.814ZM478.304 638.493C478.304 639.447 478.145 640.323 477.827 641.121C477.509 641.919 477.062 642.606 476.486 643.182C475.91 643.758 475.217 644.205 474.407 644.523C473.597 644.841 472.697 645 471.707 645H466.748V631.986H471.707C472.697 631.986 473.597 632.148 474.407 632.472C475.217 632.79 475.91 633.237 476.486 633.813C477.062 634.383 477.509 635.067 477.827 635.865C478.145 636.663 478.304 637.539 478.304 638.493ZM475.82 638.493C475.82 637.779 475.724 637.14 475.532 636.576C475.346 636.006 475.073 635.526 474.713 635.136C474.359 634.74 473.927 634.437 473.417 634.227C472.913 634.017 472.343 633.912 471.707 633.912H469.178V643.074H471.707C472.343 643.074 472.913 642.969 473.417 642.759C473.927 642.549 474.359 642.249 474.713 641.859C475.073 641.463 475.346 640.983 475.532 640.419C475.724 639.849 475.82 639.207 475.82 638.493ZM487.716 639.321C487.716 639.033 487.674 638.763 487.59 638.511C487.512 638.253 487.392 638.028 487.23 637.836C487.068 637.644 486.861 637.494 486.609 637.386C486.363 637.272 486.075 637.215 485.745 637.215C485.103 637.215 484.596 637.398 484.224 637.764C483.858 638.13 483.624 638.649 483.522 639.321H487.716ZM483.477 640.662C483.513 641.136 483.597 641.547 483.729 641.895C483.861 642.237 484.035 642.522 484.251 642.75C484.467 642.972 484.722 643.14 485.016 643.254C485.316 643.362 485.646 643.416 486.006 643.416C486.366 643.416 486.675 643.374 486.933 643.29C487.197 643.206 487.425 643.113 487.617 643.011C487.815 642.909 487.986 642.816 488.13 642.732C488.28 642.648 488.424 642.606 488.562 642.606C488.748 642.606 488.886 642.675 488.976 642.813L489.615 643.623C489.369 643.911 489.093 644.154 488.787 644.352C488.481 644.544 488.16 644.7 487.824 644.82C487.494 644.934 487.155 645.015 486.807 645.063C486.465 645.111 486.132 645.135 485.808 645.135C485.166 645.135 484.569 645.03 484.017 644.82C483.465 644.604 482.985 644.289 482.577 643.875C482.169 643.455 481.848 642.939 481.614 642.327C481.38 641.709 481.263 640.995 481.263 640.185C481.263 639.555 481.365 638.964 481.569 638.412C481.773 637.854 482.064 637.371 482.442 636.963C482.826 636.549 483.291 636.222 483.837 635.982C484.389 635.742 485.01 635.622 485.7 635.622C486.282 635.622 486.819 635.715 487.311 635.901C487.803 636.087 488.226 636.36 488.58 636.72C488.934 637.074 489.21 637.512 489.408 638.034C489.612 638.55 489.714 639.141 489.714 639.807C489.714 640.143 489.678 640.371 489.606 640.491C489.534 640.605 489.396 640.662 489.192 640.662H483.477ZM495.279 637.368C495.567 636.816 495.909 636.384 496.305 636.072C496.701 635.754 497.169 635.595 497.709 635.595C498.135 635.595 498.477 635.688 498.735 635.874L498.591 637.539C498.561 637.647 498.516 637.725 498.456 637.773C498.402 637.815 498.327 637.836 498.231 637.836C498.141 637.836 498.006 637.821 497.826 637.791C497.652 637.761 497.481 637.746 497.313 637.746C497.067 637.746 496.848 637.782 496.656 637.854C496.464 637.926 496.29 638.031 496.134 638.169C495.984 638.301 495.849 638.463 495.729 638.655C495.615 638.847 495.507 639.066 495.405 639.312V645H493.182V635.766H494.487C494.715 635.766 494.874 635.808 494.964 635.892C495.054 635.97 495.114 636.114 495.144 636.324L495.279 637.368ZM507.296 637.566C507.236 637.662 507.173 637.731 507.107 637.773C507.041 637.809 506.957 637.827 506.855 637.827C506.747 637.827 506.63 637.797 506.504 637.737C506.384 637.677 506.243 637.611 506.081 637.539C505.919 637.461 505.733 637.392 505.523 637.332C505.319 637.272 505.076 637.242 504.794 637.242C504.356 637.242 504.011 637.335 503.759 637.521C503.513 637.707 503.39 637.95 503.39 638.25C503.39 638.448 503.453 638.616 503.579 638.754C503.711 638.886 503.882 639.003 504.092 639.105C504.308 639.207 504.551 639.3 504.821 639.384C505.091 639.462 505.364 639.549 505.64 639.645C505.922 639.741 506.198 639.852 506.468 639.978C506.738 640.098 506.978 640.254 507.188 640.446C507.404 640.632 507.575 640.857 507.701 641.121C507.833 641.385 507.899 641.703 507.899 642.075C507.899 642.519 507.818 642.93 507.656 643.308C507.5 643.68 507.266 644.004 506.954 644.28C506.642 644.55 506.255 644.763 505.793 644.919C505.337 645.069 504.809 645.144 504.209 645.144C503.891 645.144 503.579 645.114 503.273 645.054C502.973 645 502.682 644.922 502.4 644.82C502.124 644.718 501.866 644.598 501.626 644.46C501.392 644.322 501.185 644.172 501.005 644.01L501.518 643.164C501.584 643.062 501.662 642.984 501.752 642.93C501.842 642.876 501.956 642.849 502.094 642.849C502.232 642.849 502.361 642.888 502.481 642.966C502.607 643.044 502.751 643.128 502.913 643.218C503.075 643.308 503.264 643.392 503.48 643.47C503.702 643.548 503.981 643.587 504.317 643.587C504.581 643.587 504.806 643.557 504.992 643.497C505.184 643.431 505.34 643.347 505.46 643.245C505.586 643.143 505.676 643.026 505.73 642.894C505.79 642.756 505.82 642.615 505.82 642.471C505.82 642.255 505.754 642.078 505.622 641.94C505.496 641.802 505.325 641.682 505.109 641.58C504.899 641.478 504.656 641.388 504.38 641.31C504.11 641.226 503.831 641.136 503.543 641.04C503.261 640.944 502.982 640.833 502.706 640.707C502.436 640.575 502.193 640.41 501.977 640.212C501.767 640.014 501.596 639.771 501.464 639.483C501.338 639.195 501.275 638.847 501.275 638.439C501.275 638.061 501.35 637.701 501.5 637.359C501.65 637.017 501.869 636.72 502.157 636.468C502.451 636.21 502.814 636.006 503.246 635.856C503.684 635.7 504.188 635.622 504.758 635.622C505.394 635.622 505.973 635.727 506.495 635.937C507.017 636.147 507.452 636.423 507.8 636.765L507.296 637.566ZM520.321 637.44H520.888C521.116 637.44 521.305 637.41 521.455 637.35C521.605 637.284 521.734 637.182 521.842 637.044L525.433 632.499C525.583 632.307 525.739 632.175 525.901 632.103C526.069 632.025 526.279 631.986 526.531 631.986H528.619L524.236 637.395C523.978 637.725 523.711 637.959 523.435 638.097C523.633 638.169 523.81 638.271 523.966 638.403C524.128 638.529 524.281 638.697 524.425 638.907L528.943 645H526.81C526.522 645 526.306 644.961 526.162 644.883C526.024 644.799 525.907 644.679 525.811 644.523L522.13 639.717C522.016 639.555 521.884 639.441 521.734 639.375C521.584 639.309 521.368 639.276 521.086 639.276H520.321V645H517.9V631.986H520.321V637.44ZM533.993 635.766V645H531.761V635.766H533.993ZM534.299 633.075C534.299 633.267 534.26 633.447 534.182 633.615C534.104 633.783 533.999 633.93 533.867 634.056C533.741 634.182 533.591 634.284 533.417 634.362C533.243 634.434 533.057 634.47 532.859 634.47C532.667 634.47 532.484 634.434 532.31 634.362C532.142 634.284 531.995 634.182 531.869 634.056C531.743 633.93 531.641 633.783 531.563 633.615C531.491 633.447 531.455 633.267 531.455 633.075C531.455 632.877 531.491 632.691 531.563 632.517C531.641 632.343 531.743 632.193 531.869 632.067C531.995 631.941 532.142 631.842 532.31 631.77C532.484 631.692 532.667 631.653 532.859 631.653C533.057 631.653 533.243 631.692 533.417 631.77C533.591 631.842 533.741 631.941 533.867 632.067C533.999 632.193 534.104 632.343 534.182 632.517C534.26 632.691 534.299 632.877 534.299 633.075ZM541.137 645.144C540.333 645.144 539.715 644.919 539.283 644.469C538.857 644.013 538.644 643.386 538.644 642.588V637.431H537.699C537.579 637.431 537.477 637.392 537.393 637.314C537.309 637.236 537.267 637.119 537.267 636.963V636.081L538.752 635.838L539.22 633.318C539.25 633.198 539.307 633.105 539.391 633.039C539.475 632.973 539.583 632.94 539.715 632.94H540.867V635.847H543.333V637.431H540.867V642.435C540.867 642.723 540.936 642.948 541.074 643.11C541.218 643.272 541.413 643.353 541.659 643.353C541.797 643.353 541.911 643.338 542.001 643.308C542.097 643.272 542.178 643.236 542.244 643.2C542.316 643.164 542.379 643.131 542.433 643.101C542.487 643.065 542.541 643.047 542.595 643.047C542.661 643.047 542.715 643.065 542.757 643.101C542.799 643.131 542.844 643.179 542.892 643.245L543.558 644.325C543.234 644.595 542.862 644.799 542.442 644.937C542.022 645.075 541.587 645.144 541.137 645.144ZM551.435 641.058C550.793 641.088 550.253 641.145 549.815 641.229C549.377 641.307 549.026 641.409 548.762 641.535C548.498 641.661 548.309 641.808 548.195 641.976C548.081 642.144 548.024 642.327 548.024 642.525C548.024 642.915 548.138 643.194 548.366 643.362C548.6 643.53 548.903 643.614 549.275 643.614C549.731 643.614 550.124 643.533 550.454 643.371C550.79 643.203 551.117 642.951 551.435 642.615V641.058ZM546.341 637.053C547.403 636.081 548.681 635.595 550.175 635.595C550.715 635.595 551.198 635.685 551.624 635.865C552.05 636.039 552.41 636.285 552.704 636.603C552.998 636.915 553.22 637.29 553.37 637.728C553.526 638.166 553.604 638.646 553.604 639.168V645H552.596C552.386 645 552.224 644.97 552.11 644.91C551.996 644.844 551.906 644.715 551.84 644.523L551.642 643.857C551.408 644.067 551.18 644.253 550.958 644.415C550.736 644.571 550.505 644.703 550.265 644.811C550.025 644.919 549.767 645 549.491 645.054C549.221 645.114 548.921 645.144 548.591 645.144C548.201 645.144 547.841 645.093 547.511 644.991C547.181 644.883 546.896 644.724 546.656 644.514C546.416 644.304 546.23 644.043 546.098 643.731C545.966 643.419 545.9 643.056 545.9 642.642C545.9 642.408 545.939 642.177 546.017 641.949C546.095 641.715 546.221 641.493 546.395 641.283C546.575 641.073 546.806 640.875 547.088 640.689C547.37 640.503 547.715 640.341 548.123 640.203C548.537 640.065 549.017 639.954 549.563 639.87C550.109 639.78 550.733 639.726 551.435 639.708V639.168C551.435 638.55 551.303 638.094 551.039 637.8C550.775 637.5 550.394 637.35 549.896 637.35C549.536 637.35 549.236 637.392 548.996 637.476C548.762 637.56 548.555 637.656 548.375 637.764C548.195 637.866 548.03 637.959 547.88 638.043C547.736 638.127 547.574 638.169 547.394 638.169C547.238 638.169 547.106 638.13 546.998 638.052C546.89 637.968 546.803 637.872 546.737 637.764L546.341 637.053ZM559.72 642.606C559.972 642.912 560.245 643.128 560.539 643.254C560.839 643.38 561.154 643.443 561.484 643.443C561.826 643.443 562.132 643.383 562.402 643.263C562.678 643.137 562.912 642.945 563.104 642.687C563.296 642.423 563.443 642.09 563.545 641.688C563.647 641.28 563.698 640.794 563.698 640.23C563.698 639.216 563.53 638.484 563.194 638.034C562.858 637.578 562.375 637.35 561.745 637.35C561.319 637.35 560.947 637.449 560.629 637.647C560.311 637.839 560.008 638.112 559.72 638.466V642.606ZM559.72 636.9C560.092 636.51 560.503 636.201 560.953 635.973C561.409 635.739 561.928 635.622 562.51 635.622C563.044 635.622 563.524 635.727 563.95 635.937C564.382 636.147 564.748 636.45 565.048 636.846C565.354 637.236 565.588 637.71 565.75 638.268C565.912 638.826 565.993 639.453 565.993 640.149C565.993 640.899 565.9 641.58 565.714 642.192C565.528 642.804 565.261 643.329 564.913 643.767C564.571 644.199 564.157 644.535 563.671 644.775C563.185 645.015 562.645 645.135 562.051 645.135C561.763 645.135 561.502 645.105 561.268 645.045C561.034 644.991 560.818 644.913 560.62 644.811C560.422 644.709 560.239 644.586 560.071 644.442C559.909 644.292 559.753 644.127 559.603 643.947L559.504 644.568C559.468 644.724 559.405 644.835 559.315 644.901C559.231 644.967 559.114 645 558.964 645H557.497V631.626H559.72V636.9ZM571.814 635.766V645H569.591V635.766H571.814Z" fill="white"/>
<path d="M59.939 89.22C60.681 89.22 61.3693 89.3437 62.004 89.591C62.634 89.8337 63.18 90.179 63.642 90.627C64.104 91.075 64.4657 91.614 64.727 92.244C64.9837 92.874 65.112 93.574 65.112 94.344C65.112 95.1093 64.9837 95.807 64.727 96.437C64.4657 97.067 64.104 97.6083 63.642 98.061C63.18 98.509 62.634 98.8567 62.004 99.104C61.3693 99.3513 60.681 99.475 59.939 99.475C59.197 99.475 58.511 99.3513 57.881 99.104C57.2463 98.8567 56.698 98.509 56.236 98.061C55.774 97.6083 55.4147 97.067 55.158 96.437C54.8967 95.807 54.766 95.1093 54.766 94.344C54.766 93.8307 54.8267 93.3477 54.948 92.895C55.0647 92.4423 55.2327 92.027 55.452 91.649C55.6667 91.271 55.9303 90.9327 56.243 90.634C56.551 90.3307 56.8963 90.074 57.279 89.864C57.6617 89.654 58.077 89.4953 58.525 89.388C58.973 89.276 59.4443 89.22 59.939 89.22ZM59.939 91.145C59.3837 91.145 58.8867 91.2197 58.448 91.369C58.0047 91.5183 57.629 91.7307 57.321 92.006C57.013 92.2813 56.7773 92.6173 56.614 93.014C56.4507 93.406 56.369 93.8493 56.369 94.344C56.369 94.8387 56.4507 95.2843 56.614 95.681C56.7773 96.073 57.013 96.409 57.321 96.689C57.629 96.9643 58.0047 97.1767 58.448 97.326C58.8867 97.4753 59.3837 97.55 59.939 97.55C60.4943 97.55 60.9937 97.4753 61.437 97.326C61.8757 97.1767 62.249 96.9643 62.557 96.689C62.8603 96.409 63.0937 96.073 63.257 95.681C63.4203 95.2843 63.502 94.8387 63.502 94.344C63.502 93.8493 63.4203 93.406 63.257 93.014C63.0937 92.6173 62.8603 92.2813 62.557 92.006C62.249 91.7307 61.8757 91.5183 61.437 91.369C60.9937 91.2197 60.4943 91.145 59.939 91.145ZM53.331 94.932C53.457 94.932 53.576 94.9577 53.688 95.009C53.8 95.0603 53.898 95.1303 53.982 95.219C54.066 95.303 54.1313 95.4033 54.178 95.52C54.2247 95.6367 54.248 95.7603 54.248 95.891C54.248 96.0123 54.2247 96.129 54.178 96.241C54.1313 96.3483 54.066 96.444 53.982 96.528C53.898 96.612 53.8 96.6797 53.688 96.731C53.576 96.7823 53.457 96.808 53.331 96.808C53.205 96.808 53.086 96.7823 52.974 96.731C52.8573 96.6797 52.757 96.612 52.673 96.528C52.5843 96.444 52.5143 96.3483 52.463 96.241C52.4117 96.129 52.386 96.0123 52.386 95.891C52.386 95.7603 52.4117 95.6367 52.463 95.52C52.5143 95.4033 52.5843 95.303 52.673 95.219C52.757 95.1303 52.8573 95.0603 52.974 95.009C53.086 94.9577 53.205 94.932 53.331 94.932ZM53.331 91.852C53.457 91.852 53.576 91.8777 53.688 91.929C53.8 91.9757 53.898 92.0433 53.982 92.132C54.066 92.216 54.1313 92.3163 54.178 92.433C54.2247 92.545 54.248 92.664 54.248 92.79C54.248 92.9207 54.2247 93.0443 54.178 93.161C54.1313 93.273 54.066 93.371 53.982 93.455C53.898 93.539 53.8 93.6067 53.688 93.658C53.576 93.7047 53.457 93.728 53.331 93.728C53.205 93.728 53.086 93.7047 52.974 93.658C52.8573 93.6067 52.757 93.539 52.673 93.455C52.5843 93.371 52.5143 93.273 52.463 93.161C52.4117 93.0443 52.386 92.9207 52.386 92.79C52.386 92.664 52.4117 92.545 52.463 92.433C52.5143 92.3163 52.5843 92.216 52.673 92.132C52.757 92.0433 52.8573 91.9757 52.974 91.929C53.086 91.8777 53.205 91.852 53.331 91.852ZM61.178 81.8328L57.811 83.0648C57.6617 83.1255 57.4843 83.1885 57.279 83.2538C57.0737 83.3191 56.852 83.3845 56.614 83.4498C56.852 83.5105 57.076 83.5735 57.286 83.6388C57.4913 83.7041 57.671 83.7671 57.825 83.8278L61.178 85.0528L61.178 81.8328ZM65 78.5078L65 79.9638C65 80.1271 64.9603 80.2601 64.881 80.3628C64.797 80.4655 64.6943 80.5425 64.573 80.5938L62.508 81.3498L62.508 85.5428L64.573 86.2988C64.6803 86.3361 64.7783 86.4085 64.867 86.5158C64.9557 86.6231 65 86.7561 65 86.9148L65 88.3848L54.878 84.4018L54.878 82.4838L65 78.5078ZM63.53 72.9731C63.53 72.6231 63.488 72.3291 63.404 72.0911C63.32 71.8531 63.208 71.6641 63.068 71.5241C62.928 71.3794 62.7647 71.2768 62.578 71.2161C62.3913 71.1508 62.193 71.1181 61.983 71.1181C61.7637 71.1181 61.5677 71.1531 61.395 71.2231C61.2177 71.2931 61.0683 71.4028 60.947 71.5521C60.821 71.7014 60.7253 71.8951 60.66 72.1331C60.5947 72.3664 60.562 72.6488 60.562 72.9801L60.562 74.8771L63.53 74.8771L63.53 72.9731ZM56.334 74.8771L59.26 74.8771L59.26 73.3791C59.26 72.7351 59.1433 72.2498 58.91 71.9231C58.6767 71.5918 58.3057 71.4261 57.797 71.4261C57.2697 71.4261 56.894 71.5754 56.67 71.8741C56.446 72.1728 56.334 72.6394 56.334 73.2741L56.334 74.8771ZM54.878 73.2741C54.878 72.6114 54.941 72.0444 55.067 71.5731C55.193 71.1018 55.3727 70.7168 55.606 70.4181C55.8393 70.1148 56.1217 69.8931 56.453 69.7531C56.7843 69.6131 57.1577 69.5431 57.573 69.5431C57.811 69.5431 58.0397 69.5781 58.259 69.6481C58.4737 69.7181 58.6767 69.8278 58.868 69.9771C59.0547 70.1218 59.225 70.3084 59.379 70.5371C59.533 70.7611 59.6637 71.0294 59.771 71.3421C60.0837 69.9514 60.835 69.2561 62.025 69.2561C62.4543 69.2561 62.851 69.3378 63.215 69.5011C63.579 69.6644 63.894 69.9024 64.16 70.2151C64.4213 70.5278 64.6267 70.9128 64.776 71.3701C64.9253 71.8274 65 72.3501 65 72.9381L65 76.7601L54.878 76.7601L54.878 73.2741ZM56.425 59.8846L56.425 62.9366L65 62.9366L65 64.8196L56.425 64.8196L56.425 67.8716L54.878 67.8716L54.878 59.8846L56.425 59.8846Z" fill="#DA1B1B"/>
</g>
<defs>
<clipPath id="clip0">
<rect width="595" height="842" fill="white"/>
</clipPath>
</defs>
</svg>
