<svg width="595" height="842" viewBox="0 0 595 842" fill="none" xmlns="http://www.w3.org/2000/svg">
<g clip-path="url(#clip0)">
<rect width="595" height="842" fill="white"/>
<path d="M452 0H552V94C552 97.3137 549.314 100 546 100H458C454.686 100 452 97.3137 452 94V0Z" fill="#78159B"/>
<path d="M484.342 43H470.697V40.293L477.137 33.4297C478.021 32.4635 478.673 31.6204 479.092 30.9004C479.52 30.1803 479.734 29.4967 479.734 28.8496C479.734 27.9655 479.511 27.2728 479.064 26.7715C478.618 26.2611 477.98 26.0059 477.15 26.0059C476.257 26.0059 475.551 26.3158 475.031 26.9355C474.521 27.5462 474.266 28.3529 474.266 29.3555H470.301C470.301 28.1432 470.588 27.0358 471.162 26.0332C471.745 25.0306 472.566 24.2467 473.623 23.6816C474.68 23.1074 475.879 22.8203 477.219 22.8203C479.27 22.8203 480.86 23.3125 481.99 24.2969C483.13 25.2812 483.699 26.6712 483.699 28.4668C483.699 29.4512 483.444 30.4538 482.934 31.4746C482.423 32.4954 481.548 33.6849 480.309 35.043L475.783 39.8145H484.342V43ZM500.174 34.7695C500.174 37.5221 499.604 39.6276 498.465 41.0859C497.326 42.5443 495.658 43.2734 493.461 43.2734C491.292 43.2734 489.633 42.5579 488.484 41.127C487.336 39.696 486.748 37.6452 486.721 34.9746V31.3105C486.721 28.5306 487.295 26.4206 488.443 24.9805C489.601 23.5404 491.264 22.8203 493.434 22.8203C495.603 22.8203 497.262 23.5358 498.41 24.9668C499.559 26.3887 500.146 28.4349 500.174 31.1055V34.7695ZM496.223 30.75C496.223 29.1003 495.995 27.9017 495.539 27.1543C495.092 26.3978 494.391 26.0195 493.434 26.0195C492.504 26.0195 491.816 26.3796 491.369 27.0996C490.932 27.8105 490.699 28.9271 490.672 30.4492V35.2891C490.672 36.9115 490.891 38.1191 491.328 38.9121C491.775 39.696 492.486 40.0879 493.461 40.0879C494.427 40.0879 495.124 39.7096 495.553 38.9531C495.981 38.1966 496.204 37.0391 496.223 35.4805V30.75ZM516.498 43H502.854V40.293L509.293 33.4297C510.177 32.4635 510.829 31.6204 511.248 30.9004C511.676 30.1803 511.891 29.4967 511.891 28.8496C511.891 27.9655 511.667 27.2728 511.221 26.7715C510.774 26.2611 510.136 26.0059 509.307 26.0059C508.413 26.0059 507.707 26.3158 507.188 26.9355C506.677 27.5462 506.422 28.3529 506.422 29.3555H502.457C502.457 28.1432 502.744 27.0358 503.318 26.0332C503.902 25.0306 504.722 24.2467 505.779 23.6816C506.837 23.1074 508.035 22.8203 509.375 22.8203C511.426 22.8203 513.016 23.3125 514.146 24.2969C515.286 25.2812 515.855 26.6712 515.855 28.4668C515.855 29.4512 515.6 30.4538 515.09 31.4746C514.579 32.4954 513.704 33.6849 512.465 35.043L507.939 39.8145H516.498V43ZM528.529 43H524.578V27.7695L519.861 29.2324V26.0195L528.105 23.0664H528.529V43ZM474.361 68.0156L472.229 70.3125V76H468.127V56.0938H472.229V65.1172L474.033 62.6426L479.105 56.0938H484.15L477.082 64.9395L484.355 76H479.475L474.361 68.0156ZM490.002 68.9863V76H485.9V56.0938H493.666C495.161 56.0938 496.473 56.3672 497.604 56.9141C498.743 57.4609 499.618 58.2402 500.229 59.252C500.839 60.2546 501.145 61.3984 501.145 62.6836C501.145 64.6341 500.475 66.1745 499.135 67.3047C497.804 68.4258 495.958 68.9863 493.598 68.9863H490.002ZM490.002 65.6641H493.666C494.751 65.6641 495.576 65.4089 496.141 64.8984C496.715 64.388 497.002 63.6589 497.002 62.7109C497.002 61.7357 496.715 60.9473 496.141 60.3457C495.566 59.7441 494.773 59.4342 493.762 59.416H490.002V65.6641ZM514.297 70.7773C514.297 70.0026 514.023 69.4102 513.477 69C512.93 68.5807 511.945 68.1432 510.523 67.6875C509.102 67.2227 507.976 66.7669 507.146 66.3203C504.886 65.099 503.756 63.4538 503.756 61.3848C503.756 60.3092 504.057 59.3522 504.658 58.5137C505.269 57.666 506.139 57.0052 507.27 56.5312C508.409 56.0573 509.685 55.8203 511.098 55.8203C512.52 55.8203 513.786 56.0801 514.898 56.5996C516.01 57.11 516.872 57.8346 517.482 58.7734C518.102 59.7122 518.412 60.7786 518.412 61.9727H514.311C514.311 61.0612 514.023 60.3548 513.449 59.8535C512.875 59.3431 512.068 59.0879 511.029 59.0879C510.027 59.0879 509.247 59.3021 508.691 59.7305C508.135 60.1497 507.857 60.7057 507.857 61.3984C507.857 62.0456 508.181 62.5879 508.828 63.0254C509.484 63.4629 510.446 63.873 511.713 64.2559C514.046 64.9577 515.746 65.8281 516.812 66.8672C517.879 67.9062 518.412 69.2005 518.412 70.75C518.412 72.4727 517.76 73.8262 516.457 74.8105C515.154 75.7858 513.399 76.2734 511.193 76.2734C509.662 76.2734 508.268 75.9954 507.01 75.4395C505.752 74.8743 504.79 74.1042 504.125 73.1289C503.469 72.1536 503.141 71.0234 503.141 69.7383H507.256C507.256 71.9349 508.568 73.0332 511.193 73.0332C512.169 73.0332 512.93 72.8372 513.477 72.4453C514.023 72.0443 514.297 71.4883 514.297 70.7773ZM531.523 70.7773C531.523 70.0026 531.25 69.4102 530.703 69C530.156 68.5807 529.172 68.1432 527.75 67.6875C526.328 67.2227 525.202 66.7669 524.373 66.3203C522.113 65.099 520.982 63.4538 520.982 61.3848C520.982 60.3092 521.283 59.3522 521.885 58.5137C522.495 57.666 523.366 57.0052 524.496 56.5312C525.635 56.0573 526.911 55.8203 528.324 55.8203C529.746 55.8203 531.013 56.0801 532.125 56.5996C533.237 57.11 534.098 57.8346 534.709 58.7734C535.329 59.7122 535.639 60.7786 535.639 61.9727H531.537C531.537 61.0612 531.25 60.3548 530.676 59.8535C530.102 59.3431 529.295 59.0879 528.256 59.0879C527.253 59.0879 526.474 59.3021 525.918 59.7305C525.362 60.1497 525.084 60.7057 525.084 61.3984C525.084 62.0456 525.408 62.5879 526.055 63.0254C526.711 63.4629 527.673 63.873 528.939 64.2559C531.273 64.9577 532.973 65.8281 534.039 66.8672C535.105 67.9062 535.639 69.2005 535.639 70.75C535.639 72.4727 534.987 73.8262 533.684 74.8105C532.38 75.7858 530.626 76.2734 528.42 76.2734C526.889 76.2734 525.494 75.9954 524.236 75.4395C522.979 74.8743 522.017 74.1042 521.352 73.1289C520.695 72.1536 520.367 71.0234 520.367 69.7383H524.482C524.482 71.9349 525.795 73.0332 528.42 73.0332C529.395 73.0332 530.156 72.8372 530.703 72.4453C531.25 72.0443 531.523 71.4883 531.523 70.7773Z" fill="white"/>
<path d="M61.3825 792.496C61.6975 792.676 61.93 792.871 62.08 793.081C62.215 793.276 62.2825 793.524 62.2825 793.824C62.2825 794.139 62.17 794.484 61.945 794.859C61.705 795.219 61.4425 795.654 61.1575 796.164C60.8725 796.674 60.6175 797.274 60.3925 797.964C60.1525 798.639 60.0325 799.441 60.0325 800.371C60.0325 801.211 60.1375 801.946 60.3475 802.576C60.5425 803.206 60.82 803.739 61.18 804.174C61.54 804.594 61.975 804.909 62.485 805.119C62.98 805.329 63.5275 805.434 64.1275 805.434C64.8925 805.434 65.53 805.224 66.04 804.804C66.55 804.369 66.985 803.799 67.345 803.094C67.705 802.389 68.0275 801.586 68.3125 800.686C68.5975 799.786 68.905 798.864 69.235 797.919C69.55 796.974 69.925 796.051 70.36 795.151C70.78 794.251 71.32 793.449 71.98 792.744C72.625 792.039 73.42 791.476 74.365 791.056C75.31 790.621 76.4575 790.404 77.8075 790.404C79.2775 790.404 80.6575 790.659 81.9475 791.169C83.2225 791.664 84.34 792.399 85.3 793.374C86.245 794.334 86.995 795.511 87.55 796.906C88.09 798.301 88.36 799.899 88.36 801.699C88.36 802.734 88.255 803.754 88.045 804.759C87.85 805.764 87.565 806.731 87.19 807.661C86.815 808.576 86.365 809.439 85.84 810.249C85.315 811.059 84.73 811.779 84.085 812.409L81.1825 810.631C80.9725 810.481 80.8 810.286 80.665 810.046C80.515 809.806 80.44 809.551 80.44 809.281C80.44 808.906 80.5975 808.501 80.9125 808.066C81.2125 807.631 81.55 807.114 81.925 806.514C82.3 805.914 82.645 805.216 82.96 804.421C83.26 803.611 83.41 802.644 83.41 801.519C83.41 799.794 83.005 798.459 82.195 797.514C81.37 796.569 80.1925 796.096 78.6625 796.096C77.8075 796.096 77.11 796.314 76.57 796.749C76.03 797.169 75.58 797.731 75.22 798.436C74.845 799.141 74.53 799.944 74.275 800.844C74.02 801.744 73.7425 802.659 73.4425 803.589C73.1425 804.519 72.7825 805.434 72.3625 806.334C71.9425 807.234 71.395 808.036 70.72 808.741C70.045 809.446 69.205 810.016 68.2 810.451C67.18 810.871 65.9275 811.081 64.4425 811.081C63.2575 811.081 62.1025 810.849 60.9775 810.384C59.8525 809.904 58.855 809.214 57.985 808.314C57.115 807.414 56.4175 806.304 55.8925 804.984C55.3675 803.664 55.105 802.149 55.105 800.439C55.105 798.519 55.405 796.749 56.005 795.129C56.605 793.509 57.445 792.129 58.525 790.989L61.3825 792.496ZM88 772.299L88 778.374L55.465 778.374L55.465 772.299L88 772.299ZM55.465 730.837L88 730.837L88 733.942C88 734.422 87.925 734.827 87.775 735.157C87.61 735.472 87.34 735.78 86.965 736.08L65.275 753.067C66.265 752.977 67.18 752.932 68.02 752.932L88 752.932L88 758.265L55.465 758.265L55.465 755.092C55.465 754.837 55.48 754.62 55.51 754.44C55.525 754.245 55.57 754.08 55.645 753.945C55.705 753.795 55.8025 753.652 55.9375 753.517C56.0575 753.382 56.2225 753.232 56.4325 753.067L78.2125 736.012C77.6875 736.057 77.17 736.095 76.66 736.125C76.15 736.155 75.6775 736.17 75.2425 736.17L55.465 736.17L55.465 730.837ZM88 710.767L88 716.842L55.465 716.842L55.465 710.767L88 710.767ZM60.28 690.657L69.91 690.657L69.91 678.462L74.7475 678.462L74.7475 690.657L88 690.657L88 696.732L55.465 696.732L55.465 676.212L60.28 676.212L60.28 690.657ZM75.4 635.73L88 635.73L88 641.76L75.4 641.76L55.465 653.617L55.465 648.285C55.465 647.76 55.5925 647.347 55.8475 647.047C56.1025 646.732 56.425 646.47 56.815 646.26L67.6825 640.32C68.3275 639.975 68.935 639.675 69.505 639.42C70.075 639.15 70.645 638.91 71.215 638.7C70.645 638.505 70.075 638.28 69.505 638.025C68.935 637.77 68.3275 637.477 67.6825 637.147L56.815 631.23C56.485 631.065 56.1775 630.817 55.8925 630.487C55.6075 630.157 55.465 629.737 55.465 629.227L55.465 623.872L75.4 635.73ZM75.715 599.966L64.8925 603.926C64.4125 604.121 63.8425 604.324 63.1825 604.534C62.5225 604.744 61.81 604.954 61.045 605.164C61.81 605.359 62.53 605.561 63.205 605.771C63.865 605.981 64.4425 606.184 64.9375 606.379L75.715 610.316L75.715 599.966ZM88 589.279L88 593.959C88 594.484 87.8725 594.911 87.6175 595.241C87.3475 595.571 87.0175 595.819 86.6275 595.984L79.99 598.414L79.99 611.891L86.6275 614.321C86.9725 614.441 87.2875 614.674 87.5725 615.019C87.8575 615.364 88 615.791 88 616.301L88 621.026L55.465 608.224L55.465 602.059L88 589.279ZM75.4 568.572L88 568.572L88 574.602L75.4 574.602L55.465 586.46L55.465 581.127C55.465 580.602 55.5925 580.19 55.8475 579.89C56.1025 579.575 56.425 579.312 56.815 579.102L67.6825 573.162C68.3275 572.817 68.935 572.517 69.505 572.262C70.075 571.992 70.645 571.752 71.215 571.542C70.645 571.347 70.075 571.122 69.505 570.867C68.935 570.612 68.3275 570.32 67.6825 569.99L56.815 564.072C56.485 563.907 56.1775 563.66 55.8925 563.33C55.6075 563 55.465 562.58 55.465 562.07L55.465 556.715L75.4 568.572ZM88 540.54L88 546.615L55.465 546.615L55.465 540.54L88 540.54ZM55.465 499.078L88 499.078L88 502.183C88 502.663 87.925 503.068 87.775 503.398C87.61 503.713 87.34 504.021 86.965 504.321L65.275 521.308C66.265 521.218 67.18 521.173 68.02 521.173L88 521.173L88 526.506L55.465 526.506L55.465 523.333C55.465 523.078 55.48 522.861 55.51 522.681C55.525 522.486 55.57 522.321 55.645 522.186C55.705 522.036 55.8025 521.893 55.9375 521.758C56.0575 521.623 56.2225 521.473 56.4325 521.308L78.2125 504.253C77.6875 504.298 77.17 504.336 76.66 504.366C76.15 504.396 75.6775 504.411 75.2425 504.411L55.465 504.411L55.465 499.078ZM83.005 466.026L88 466.026L88 485.083L55.465 485.083L55.465 479.031L83.005 479.031L83.005 466.026ZM75.715 437.764L64.8925 441.724C64.4125 441.919 63.8425 442.122 63.1825 442.332C62.5225 442.542 61.81 442.752 61.045 442.962C61.81 443.157 62.53 443.359 63.205 443.569C63.865 443.779 64.4425 443.982 64.9375 444.177L75.715 448.114L75.715 437.764ZM88 427.077L88 431.757C88 432.282 87.8725 432.709 87.6175 433.039C87.3475 433.369 87.0175 433.617 86.6275 433.782L79.99 436.212L79.99 449.689L86.6275 452.119C86.9725 452.239 87.2875 452.472 87.5725 452.817C87.8575 453.162 88 453.589 88 454.099L88 458.824L55.465 446.022L55.465 439.857L88 427.077ZM70.945 407.127C70.945 405.987 70.8025 404.997 70.5175 404.157C70.2325 403.302 69.8425 402.604 69.3475 402.064C68.8375 401.509 68.2375 401.097 67.5475 400.827C66.8575 400.557 66.1 400.422 65.275 400.422C63.625 400.422 62.3575 400.969 61.4725 402.064C60.5875 403.144 60.145 404.802 60.145 407.037L60.145 410.907L70.945 410.907L70.945 407.127ZM88 391.557L88 397.024C88 398.059 87.595 398.809 86.785 399.274L76.3675 406.114C75.9775 406.369 75.7 406.654 75.535 406.969C75.37 407.269 75.2875 407.719 75.2875 408.319L75.2875 410.907L88 410.907L88 416.959L55.465 416.959L55.465 407.037C55.465 404.832 55.6975 402.942 56.1625 401.367C56.6125 399.777 57.25 398.479 58.075 397.474C58.9 396.454 59.89 395.704 61.045 395.224C62.185 394.744 63.445 394.504 64.825 394.504C65.92 394.504 66.955 394.669 67.93 394.999C68.905 395.314 69.79 395.779 70.585 396.394C71.38 396.994 72.0775 397.744 72.6775 398.644C73.2775 399.529 73.75 400.542 74.095 401.682C74.32 401.292 74.59 400.932 74.905 400.602C75.205 400.272 75.565 399.972 75.985 399.702L88 391.557ZM88 375.218L88 381.293L55.465 381.293L55.465 375.218L88 375.218Z" fill="#78159B"/>
<path d="M81.375 166.575C83.65 166.575 85.625 166.375 87.3 165.975C89 165.55 90.6125 164.975 92.1375 164.25V154.387H85.35C84.7 154.387 84.1875 154.212 83.8125 153.862C83.4375 153.487 83.25 153.037 83.25 152.512V146.812H101.288V168.75C99.9125 169.75 98.475 170.625 96.975 171.375C95.5 172.1 93.9125 172.7 92.2125 173.175C90.5375 173.65 88.7375 174 86.8125 174.225C84.8875 174.475 82.8125 174.6 80.5875 174.6C76.6375 174.6 73 173.913 69.675 172.537C66.35 171.162 63.475 169.25 61.05 166.8C58.625 164.35 56.725 161.425 55.35 158.025C54 154.625 53.325 150.912 53.325 146.887C53.325 142.812 53.9875 139.075 55.3125 135.675C56.6375 132.275 58.5125 129.35 60.9375 126.9C63.3875 124.45 66.35 122.55 69.825 121.2C73.3 119.85 77.2 119.175 81.525 119.175C85.95 119.175 89.775 119.837 93 121.162C96.25 122.462 99 124.162 101.25 126.262L98.325 130.837C97.75 131.762 96.9875 132.225 96.0375 132.225C95.4375 132.225 94.825 132.025 94.2 131.625C93.4 131.15 92.575 130.675 91.725 130.2C90.9 129.725 89.975 129.312 88.95 128.962C87.95 128.612 86.8125 128.325 85.5375 128.1C84.2875 127.875 82.8375 127.762 81.1875 127.762C78.5125 127.762 76.0875 128.212 73.9125 129.112C71.7625 130.012 69.925 131.3 68.4 132.975C66.875 134.65 65.7 136.662 64.875 139.012C64.05 141.362 63.6375 143.987 63.6375 146.887C63.6375 150.012 64.075 152.8 64.95 155.25C65.825 157.675 67.05 159.725 68.625 161.4C70.2 163.075 72.075 164.362 74.25 165.262C76.425 166.137 78.8 166.575 81.375 166.575ZM148.624 119.775V127.8H124.587V142.837H143.524V150.6H124.587V165.937H148.624V174H114.424V119.775H148.624ZM166.382 119.775C166.832 119.775 167.207 119.8 167.507 119.85C167.807 119.875 168.069 119.95 168.294 120.075C168.544 120.175 168.782 120.337 169.007 120.562C169.232 120.762 169.482 121.037 169.757 121.387L198.219 157.65C198.119 156.775 198.044 155.925 197.994 155.1C197.969 154.25 197.957 153.462 197.957 152.737V119.775H206.844V174H201.632C200.832 174 200.169 173.875 199.644 173.625C199.119 173.375 198.607 172.925 198.107 172.275L169.757 136.162C169.832 136.962 169.882 137.762 169.907 138.562C169.957 139.337 169.982 140.05 169.982 140.7V174H161.094V119.775H166.382ZM255.734 119.775V127.8H231.696V142.837H250.634V150.6H231.696V165.937H255.734V174H221.534V119.775H255.734ZM278.291 165.675H300.004V174H268.204V119.775H278.291V165.675ZM56.475 264V209.775H75.1875C78.7375 209.775 81.7625 210.112 84.2625 210.787C86.7875 211.462 88.85 212.425 90.45 213.675C92.075 214.925 93.2625 216.437 94.0125 218.212C94.7625 219.987 95.1375 221.987 95.1375 224.212C95.1375 225.487 94.95 226.712 94.575 227.887C94.2 229.037 93.6125 230.125 92.8125 231.15C92.0375 232.15 91.0375 233.062 89.8125 233.887C88.6125 234.712 87.175 235.412 85.5 235.987C92.95 237.662 96.675 241.687 96.675 248.062C96.675 250.362 96.2375 252.487 95.3625 254.437C94.4875 256.387 93.2125 258.075 91.5375 259.5C89.8625 260.9 87.8 262 85.35 262.8C82.9 263.6 80.1 264 76.95 264H56.475ZM66.5625 240.225V256.125H76.8C78.675 256.125 80.2375 255.9 81.4875 255.45C82.7625 255 83.775 254.4 84.525 253.65C85.3 252.9 85.85 252.025 86.175 251.025C86.525 250.025 86.7 248.962 86.7 247.837C86.7 246.662 86.5125 245.612 86.1375 244.687C85.7625 243.737 85.175 242.937 84.375 242.287C83.575 241.612 82.55 241.1 81.3 240.75C80.05 240.4 78.5375 240.225 76.7625 240.225H66.5625ZM66.5625 233.25H74.625C78.05 233.25 80.65 232.625 82.425 231.375C84.2 230.125 85.0875 228.137 85.0875 225.412C85.0875 222.587 84.2875 220.575 82.6875 219.375C81.0875 218.175 78.5875 217.575 75.1875 217.575H66.5625V233.25ZM130.378 264H106.003V257.55L112.528 254.55V219.9L106.003 216.9V210.45H130.378V216.9L123.853 219.9V254.55L130.378 257.55V264ZM118.378 194.4C120.028 194.4 121.453 194.8 122.653 195.6C123.853 196.35 124.453 197.775 124.453 199.875C124.453 201.925 123.853 203.35 122.653 204.15C121.453 204.95 120.028 205.35 118.378 205.35C116.678 205.35 115.228 204.95 114.028 204.15C112.878 203.35 112.303 201.925 112.303 199.875C112.303 197.775 112.878 196.35 114.028 195.6C115.228 194.8 116.678 194.4 118.378 194.4ZM166.09 242.925V264H156.003V242.925L136.24 209.775H145.128C146.003 209.775 146.69 209.987 147.19 210.412C147.715 210.837 148.153 211.375 148.503 212.025L158.44 230.137C159.015 231.212 159.515 232.237 159.94 233.212C160.365 234.162 160.753 235.1 161.103 236.025C161.428 235.075 161.79 234.125 162.19 233.175C162.615 232.2 163.115 231.187 163.69 230.137L173.553 212.025C173.828 211.475 174.24 210.962 174.79 210.487C175.34 210.012 176.04 209.775 176.89 209.775H185.815L166.09 242.925ZM243.81 236.887C243.81 240.862 243.147 244.55 241.822 247.95C240.497 251.325 238.635 254.25 236.235 256.725C233.835 259.2 230.947 261.137 227.572 262.537C224.197 263.913 220.46 264.6 216.36 264.6C212.26 264.6 208.51 263.913 205.11 262.537C201.735 261.137 198.835 259.2 196.41 256.725C194.01 254.25 192.147 251.325 190.822 247.95C189.497 244.55 188.835 240.862 188.835 236.887C188.835 232.912 189.497 229.237 190.822 225.862C192.147 222.462 194.01 219.525 196.41 217.05C198.835 214.575 201.735 212.65 205.11 211.275C208.51 209.875 212.26 209.175 216.36 209.175C220.46 209.175 224.197 209.875 227.572 211.275C230.947 212.675 233.835 214.612 236.235 217.087C238.635 219.537 240.497 222.462 241.822 225.862C243.147 229.237 243.81 232.912 243.81 236.887ZM233.46 236.887C233.46 233.912 233.06 231.25 232.26 228.9C231.485 226.525 230.36 224.512 228.885 222.862C227.41 221.212 225.61 219.95 223.485 219.075C221.385 218.2 219.01 217.762 216.36 217.762C213.71 217.762 211.322 218.2 209.197 219.075C207.072 219.95 205.26 221.212 203.76 222.862C202.285 224.512 201.147 226.525 200.347 228.9C199.547 231.25 199.147 233.912 199.147 236.887C199.147 239.862 199.547 242.537 200.347 244.912C201.147 247.262 202.285 249.262 203.76 250.912C205.26 252.537 207.072 253.787 209.197 254.662C211.322 255.537 213.71 255.975 216.36 255.975C219.01 255.975 221.385 255.537 223.485 254.662C225.61 253.787 227.41 252.537 228.885 250.912C230.36 249.262 231.485 247.262 232.26 244.912C233.06 242.537 233.46 239.862 233.46 236.887ZM265.62 255.675H287.333V264H255.533V209.775H265.62V255.675ZM347.037 236.887C347.037 240.862 346.375 244.55 345.05 247.95C343.725 251.325 341.862 254.25 339.462 256.725C337.062 259.2 334.175 261.137 330.8 262.537C327.425 263.913 323.687 264.6 319.587 264.6C315.487 264.6 311.737 263.913 308.337 262.537C304.962 261.137 302.062 259.2 299.637 256.725C297.237 254.25 295.375 251.325 294.05 247.95C292.725 244.55 292.062 240.862 292.062 236.887C292.062 232.912 292.725 229.237 294.05 225.862C295.375 222.462 297.237 219.525 299.637 217.05C302.062 214.575 304.962 212.65 308.337 211.275C311.737 209.875 315.487 209.175 319.587 209.175C323.687 209.175 327.425 209.875 330.8 211.275C334.175 212.675 337.062 214.612 339.462 217.087C341.862 219.537 343.725 222.462 345.05 225.862C346.375 229.237 347.037 232.912 347.037 236.887ZM336.687 236.887C336.687 233.912 336.287 231.25 335.487 228.9C334.712 226.525 333.587 224.512 332.112 222.862C330.637 221.212 328.837 219.95 326.712 219.075C324.612 218.2 322.237 217.762 319.587 217.762C316.937 217.762 314.55 218.2 312.425 219.075C310.3 219.95 308.487 221.212 306.987 222.862C305.512 224.512 304.375 226.525 303.575 228.9C302.775 231.25 302.375 233.912 302.375 236.887C302.375 239.862 302.775 242.537 303.575 244.912C304.375 247.262 305.512 249.262 306.987 250.912C308.487 252.537 310.3 253.787 312.425 254.662C314.55 255.537 316.937 255.975 319.587 255.975C322.237 255.975 324.612 255.537 326.712 254.662C328.837 253.787 330.637 252.537 332.112 250.912C333.587 249.262 334.712 247.262 335.487 244.912C336.287 242.537 336.687 239.862 336.687 236.887ZM380.585 244.725C380.585 247.775 380.21 250.525 379.46 252.975C378.71 255.425 377.585 257.512 376.085 259.237C374.61 260.962 372.76 262.287 370.535 263.212C368.31 264.137 365.723 264.6 362.773 264.6C361.423 264.6 360.098 264.513 358.798 264.338C357.498 264.188 356.135 263.937 354.71 263.587L355.235 257.587C355.285 257.037 355.485 256.6 355.835 256.275C356.21 255.925 356.748 255.75 357.448 255.75C357.873 255.75 358.423 255.837 359.098 256.012C359.798 256.187 360.673 256.275 361.723 256.275C363.148 256.275 364.41 256.075 365.51 255.675C366.61 255.25 367.523 254.587 368.248 253.687C368.998 252.787 369.56 251.625 369.935 250.2C370.31 248.75 370.498 247 370.498 244.95V209.775H380.585V244.725ZM416.549 264H392.174V257.55L398.699 254.55V219.9L392.174 216.9V210.45H416.549V216.9L410.024 219.9V254.55L416.549 257.55V264ZM404.549 194.4C406.199 194.4 407.624 194.8 408.824 195.6C410.024 196.35 410.624 197.775 410.624 199.875C410.624 201.925 410.024 203.35 408.824 204.15C407.624 204.95 406.199 205.35 404.549 205.35C402.849 205.35 401.399 204.95 400.199 204.15C399.049 203.35 398.474 201.925 398.474 199.875C398.474 197.775 399.049 196.35 400.199 195.6C401.399 194.8 402.849 194.4 404.549 194.4Z" fill="#78159B"/>
<rect x="77" y="59" width="243" height="40" rx="20" fill="#78159B"/>
<path d="M116.693 76.536C116.634 76.6533 116.565 76.736 116.485 76.784C116.41 76.832 116.32 76.856 116.213 76.856C116.106 76.856 115.986 76.816 115.853 76.736C115.72 76.6507 115.562 76.5573 115.381 76.456C115.2 76.3547 114.986 76.264 114.741 76.184C114.501 76.0987 114.216 76.056 113.885 76.056C113.586 76.056 113.325 76.0933 113.101 76.168C112.882 76.2373 112.696 76.336 112.541 76.464C112.392 76.592 112.28 76.7467 112.205 76.928C112.13 77.104 112.093 77.2987 112.093 77.512C112.093 77.784 112.168 78.0107 112.317 78.192C112.472 78.3733 112.674 78.528 112.925 78.656C113.176 78.784 113.461 78.8987 113.781 79C114.101 79.1013 114.426 79.2107 114.757 79.328C115.093 79.44 115.421 79.5733 115.741 79.728C116.061 79.8773 116.346 80.0693 116.597 80.304C116.848 80.5333 117.048 80.816 117.197 81.152C117.352 81.488 117.429 81.896 117.429 82.376C117.429 82.8987 117.338 83.3893 117.157 83.848C116.981 84.3013 116.72 84.6987 116.373 85.04C116.032 85.376 115.613 85.6427 115.117 85.84C114.621 86.032 114.053 86.128 113.413 86.128C113.045 86.128 112.682 86.0907 112.325 86.016C111.968 85.9467 111.624 85.8453 111.293 85.712C110.968 85.5787 110.661 85.4187 110.373 85.232C110.09 85.0453 109.837 84.8373 109.613 84.608L110.237 83.576C110.296 83.5013 110.365 83.44 110.445 83.392C110.53 83.3387 110.624 83.312 110.725 83.312C110.858 83.312 111.002 83.368 111.157 83.48C111.312 83.5867 111.493 83.7067 111.701 83.84C111.914 83.9733 112.162 84.096 112.445 84.208C112.733 84.3147 113.077 84.368 113.477 84.368C114.09 84.368 114.565 84.224 114.901 83.936C115.237 83.6427 115.405 83.224 115.405 82.68C115.405 82.376 115.328 82.128 115.173 81.936C115.024 81.744 114.824 81.584 114.573 81.456C114.322 81.3227 114.037 81.2107 113.717 81.12C113.397 81.0293 113.072 80.9307 112.741 80.824C112.41 80.7173 112.085 80.5893 111.765 80.44C111.445 80.2907 111.16 80.096 110.909 79.856C110.658 79.616 110.456 79.3173 110.301 78.96C110.152 78.5973 110.077 78.152 110.077 77.624C110.077 77.2027 110.16 76.792 110.325 76.392C110.496 75.992 110.741 75.6373 111.061 75.328C111.386 75.0187 111.784 74.7707 112.253 74.584C112.722 74.3973 113.258 74.304 113.861 74.304C114.544 74.304 115.173 74.4107 115.749 74.624C116.325 74.8373 116.816 75.136 117.221 75.52L116.693 76.536ZM122.295 86H120.135V74.432H122.295V86ZM126.83 74.432C126.926 74.432 127.006 74.4373 127.07 74.448C127.134 74.4533 127.19 74.4693 127.238 74.496C127.292 74.5173 127.342 74.552 127.39 74.6C127.438 74.6427 127.492 74.7013 127.55 74.776L133.622 82.512C133.601 82.3253 133.585 82.144 133.574 81.968C133.569 81.7867 133.566 81.6187 133.566 81.464V74.432H135.462V86H134.35C134.18 86 134.038 85.9733 133.926 85.92C133.814 85.8667 133.705 85.7707 133.598 85.632L127.55 77.928C127.566 78.0987 127.577 78.2693 127.582 78.44C127.593 78.6053 127.598 78.7573 127.598 78.896V86H125.702V74.432H126.83ZM141.02 86H138.86V74.432H141.02V86ZM151.723 74.432V76.144H146.595V79.568H150.923V81.288H146.595V86H144.427V74.432H151.723ZM169.201 80.216C169.201 81.064 169.06 81.8507 168.777 82.576C168.495 83.296 168.097 83.92 167.585 84.448C167.073 84.976 166.457 85.3893 165.737 85.688C165.017 85.9813 164.22 86.128 163.345 86.128C162.471 86.128 161.671 85.9813 160.945 85.688C160.225 85.3893 159.607 84.976 159.089 84.448C158.577 83.92 158.18 83.296 157.897 82.576C157.615 81.8507 157.473 81.064 157.473 80.216C157.473 79.368 157.615 78.584 157.897 77.864C158.18 77.1387 158.577 76.512 159.089 75.984C159.607 75.456 160.225 75.0453 160.945 74.752C161.671 74.4533 162.471 74.304 163.345 74.304C164.22 74.304 165.017 74.4533 165.737 74.752C166.457 75.0507 167.073 75.464 167.585 75.992C168.097 76.5147 168.495 77.1387 168.777 77.864C169.06 78.584 169.201 79.368 169.201 80.216ZM166.993 80.216C166.993 79.5813 166.908 79.0133 166.737 78.512C166.572 78.0053 166.332 77.576 166.017 77.224C165.703 76.872 165.319 76.6027 164.865 76.416C164.417 76.2293 163.911 76.136 163.345 76.136C162.78 76.136 162.271 76.2293 161.817 76.416C161.364 76.6027 160.977 76.872 160.657 77.224C160.343 77.576 160.1 78.0053 159.929 78.512C159.759 79.0133 159.673 79.5813 159.673 80.216C159.673 80.8507 159.759 81.4213 159.929 81.928C160.1 82.4293 160.343 82.856 160.657 83.208C160.977 83.5547 161.364 83.8213 161.817 84.008C162.271 84.1947 162.78 84.288 163.345 84.288C163.911 84.288 164.417 84.1947 164.865 84.008C165.319 83.8213 165.703 83.5547 166.017 83.208C166.332 82.856 166.572 82.4293 166.737 81.928C166.908 81.4213 166.993 80.8507 166.993 80.216ZM162.705 72.664C162.705 72.808 162.676 72.944 162.617 73.072C162.559 73.2 162.479 73.312 162.377 73.408C162.276 73.504 162.159 73.5787 162.025 73.632C161.892 73.6853 161.751 73.712 161.601 73.712C161.463 73.712 161.329 73.6853 161.201 73.632C161.079 73.5787 160.969 73.504 160.873 73.408C160.777 73.312 160.7 73.2 160.641 73.072C160.588 72.944 160.561 72.808 160.561 72.664C160.561 72.52 160.588 72.384 160.641 72.256C160.7 72.1227 160.777 72.008 160.873 71.912C160.969 71.8107 161.079 71.7307 161.201 71.672C161.329 71.6133 161.463 71.584 161.601 71.584C161.751 71.584 161.892 71.6133 162.025 71.672C162.159 71.7307 162.276 71.8107 162.377 71.912C162.479 72.008 162.559 72.1227 162.617 72.256C162.676 72.384 162.705 72.52 162.705 72.664ZM166.161 72.664C166.161 72.808 166.132 72.944 166.073 73.072C166.02 73.2 165.945 73.312 165.849 73.408C165.753 73.504 165.639 73.5787 165.505 73.632C165.377 73.6853 165.239 73.712 165.089 73.712C164.945 73.712 164.807 73.6853 164.673 73.632C164.545 73.5787 164.431 73.504 164.329 73.408C164.233 73.312 164.156 73.2 164.097 73.072C164.044 72.944 164.017 72.808 164.017 72.664C164.017 72.52 164.044 72.384 164.097 72.256C164.156 72.1227 164.233 72.008 164.329 71.912C164.431 71.8107 164.545 71.7307 164.673 71.672C164.807 71.6133 164.945 71.584 165.089 71.584C165.239 71.584 165.377 71.6133 165.505 71.672C165.639 71.7307 165.753 71.8107 165.849 71.912C165.945 72.008 166.02 72.1227 166.073 72.256C166.132 72.384 166.161 72.52 166.161 72.664ZM176.31 79.584H180.838V85.504C180.241 85.7067 179.617 85.8667 178.966 85.984C178.326 86.1013 177.596 86.16 176.774 86.16C175.068 86.16 173.756 85.6587 172.838 84.656C171.921 83.6533 171.462 82.192 171.462 80.272C171.462 79.0773 171.692 78.0427 172.15 77.168C172.62 76.2933 173.297 75.616 174.182 75.136C175.068 74.656 176.15 74.416 177.43 74.416C178.038 74.416 178.636 74.48 179.222 74.608C179.809 74.736 180.342 74.9067 180.822 75.12L180.022 77.056C179.67 76.8747 179.27 76.7253 178.822 76.608C178.374 76.4907 177.905 76.432 177.414 76.432C176.71 76.432 176.097 76.592 175.574 76.912C175.062 77.232 174.662 77.6853 174.374 78.272C174.097 78.848 173.958 79.5307 173.958 80.32C173.958 81.0667 174.06 81.728 174.262 82.304C174.465 82.88 174.785 83.3333 175.222 83.664C175.66 83.984 176.23 84.144 176.934 84.144C177.276 84.144 177.564 84.128 177.798 84.096C178.044 84.064 178.268 84.0267 178.47 83.984V81.6H176.31V79.584ZM180.054 70.976C180.001 71.7547 179.692 72.3893 179.126 72.88C178.561 73.3707 177.836 73.616 176.95 73.616C176.033 73.616 175.308 73.376 174.774 72.896C174.241 72.416 173.953 71.776 173.91 70.976H175.238C175.27 71.2747 175.361 71.4933 175.51 71.632C175.67 71.7707 175.878 71.8613 176.134 71.904C176.39 71.936 176.668 71.952 176.966 71.952C177.222 71.952 177.473 71.9307 177.718 71.888C177.974 71.8347 178.193 71.7387 178.374 71.6C178.556 71.4613 178.662 71.2533 178.694 70.976H180.054ZM186.304 81.48V86H184.152V74.432H187.68C188.47 74.432 189.144 74.5147 189.704 74.68C190.27 74.84 190.731 75.0667 191.088 75.36C191.451 75.6533 191.715 76.0053 191.88 76.416C192.051 76.8213 192.136 77.2693 192.136 77.76C192.136 78.1493 192.078 78.5173 191.96 78.864C191.848 79.2107 191.683 79.5253 191.464 79.808C191.251 80.0907 190.984 80.3387 190.664 80.552C190.35 80.7653 189.99 80.936 189.584 81.064C189.856 81.2187 190.091 81.44 190.288 81.728L193.184 86H191.248C191.062 86 190.902 85.9627 190.768 85.888C190.64 85.8133 190.531 85.7067 190.44 85.568L188.008 81.864C187.918 81.7253 187.816 81.6267 187.704 81.568C187.598 81.5093 187.438 81.48 187.224 81.48H186.304ZM186.304 79.936H187.648C188.054 79.936 188.406 79.8853 188.704 79.784C189.008 79.6827 189.256 79.544 189.448 79.368C189.646 79.1867 189.792 78.9733 189.888 78.728C189.984 78.4827 190.032 78.2133 190.032 77.92C190.032 77.3333 189.838 76.8827 189.448 76.568C189.064 76.2533 188.475 76.096 187.68 76.096H186.304V79.936ZM202.661 74.432V76.144H197.533V79.352H201.573V81.008H197.533V84.28H202.661V86H195.365V74.432H202.661ZM213.473 74.432V76.2H209.993V86H207.841V76.2H204.345V74.432H213.473ZM221.445 81.2C221.535 81.3707 221.618 81.5493 221.693 81.736C221.773 81.9173 221.85 82.1013 221.925 82.288C221.999 82.096 222.077 81.9067 222.157 81.72C222.237 81.5333 222.322 81.3547 222.413 81.184L225.837 74.776C225.879 74.696 225.922 74.632 225.965 74.584C226.013 74.536 226.063 74.5013 226.117 74.48C226.175 74.4587 226.239 74.4453 226.309 74.44C226.378 74.4347 226.461 74.432 226.557 74.432H228.181V86H226.285V78.528C226.285 78.3893 226.287 78.2373 226.293 78.072C226.303 77.9067 226.317 77.7387 226.333 77.568L222.837 84.128C222.757 84.2773 222.653 84.3947 222.525 84.48C222.397 84.56 222.247 84.6 222.077 84.6H221.781C221.61 84.6 221.461 84.56 221.333 84.48C221.205 84.3947 221.101 84.2773 221.021 84.128L217.477 77.544C217.498 77.72 217.511 77.8933 217.517 78.064C217.527 78.2293 217.533 78.384 217.533 78.528V86H215.637V74.432H217.261C217.357 74.432 217.439 74.4347 217.509 74.44C217.578 74.4453 217.639 74.4587 217.693 74.48C217.751 74.5013 217.805 74.536 217.853 74.584C217.901 74.632 217.946 74.696 217.989 74.776L221.445 81.2ZM238.608 74.432V76.144H233.48V79.352H237.52V81.008H233.48V84.28H238.608V86H231.312V74.432H238.608ZM242.396 74.432C242.492 74.432 242.572 74.4373 242.636 74.448C242.7 74.4533 242.756 74.4693 242.804 74.496C242.857 74.5173 242.908 74.552 242.956 74.6C243.004 74.6427 243.057 74.7013 243.116 74.776L249.188 82.512C249.167 82.3253 249.151 82.144 249.14 81.968C249.135 81.7867 249.132 81.6187 249.132 81.464V74.432H251.028V86H249.916C249.745 86 249.604 85.9733 249.492 85.92C249.38 85.8667 249.271 85.7707 249.164 85.632L243.116 77.928C243.132 78.0987 243.143 78.2693 243.148 78.44C243.159 78.6053 243.164 78.7573 243.164 78.896V86H241.268V74.432H242.396ZM256.314 84.224H260.946V86H254.162V74.432H256.314V84.224ZM267.771 86H262.571V84.624L263.963 83.984V76.592L262.571 75.952V74.576H267.771V75.952L266.379 76.592V83.984L267.771 84.624V86ZM265.211 71.152C265.563 71.152 265.867 71.2373 266.123 71.408C266.379 71.568 266.507 71.872 266.507 72.32C266.507 72.7573 266.379 73.0613 266.123 73.232C265.867 73.4027 265.563 73.488 265.211 73.488C264.849 73.488 264.539 73.4027 264.283 73.232C264.038 73.0613 263.915 72.7573 263.915 72.32C263.915 71.872 264.038 71.568 264.283 71.408C264.539 71.2373 264.849 71.152 265.211 71.152ZM274.854 79.584H279.382V85.504C278.785 85.7067 278.161 85.8667 277.51 85.984C276.87 86.1013 276.139 86.16 275.318 86.16C273.611 86.16 272.299 85.6587 271.382 84.656C270.465 83.6533 270.006 82.192 270.006 80.272C270.006 79.0773 270.235 78.0427 270.694 77.168C271.163 76.2933 271.841 75.616 272.726 75.136C273.611 74.656 274.694 74.416 275.974 74.416C276.582 74.416 277.179 74.48 277.766 74.608C278.353 74.736 278.886 74.9067 279.366 75.12L278.566 77.056C278.214 76.8747 277.814 76.7253 277.366 76.608C276.918 76.4907 276.449 76.432 275.958 76.432C275.254 76.432 274.641 76.592 274.118 76.912C273.606 77.232 273.206 77.6853 272.918 78.272C272.641 78.848 272.502 79.5307 272.502 80.32C272.502 81.0667 272.603 81.728 272.806 82.304C273.009 82.88 273.329 83.3333 273.766 83.664C274.203 83.984 274.774 84.144 275.478 84.144C275.819 84.144 276.107 84.128 276.342 84.096C276.587 84.064 276.811 84.0267 277.014 83.984V81.6H274.854V79.584ZM278.598 70.976C278.545 71.7547 278.235 72.3893 277.67 72.88C277.105 73.3707 276.379 73.616 275.494 73.616C274.577 73.616 273.851 73.376 273.318 72.896C272.785 72.416 272.497 71.776 272.454 70.976H273.782C273.814 71.2747 273.905 71.4933 274.054 71.632C274.214 71.7707 274.422 71.8613 274.678 71.904C274.934 71.936 275.211 71.952 275.51 71.952C275.766 71.952 276.017 71.9307 276.262 71.888C276.518 71.8347 276.737 71.7387 276.918 71.6C277.099 71.4613 277.206 71.2533 277.238 70.976H278.598ZM287.168 86H281.968V84.624L283.36 83.984V76.592L281.968 75.952V74.576H287.168V75.952L285.776 76.592V83.984L287.168 84.624V86ZM284.608 71.152C284.96 71.152 285.264 71.2373 285.52 71.408C285.776 71.568 285.904 71.872 285.904 72.32C285.904 72.7573 285.776 73.0613 285.52 73.232C285.264 73.4027 284.96 73.488 284.608 73.488C284.246 73.488 283.936 73.4027 283.68 73.232C283.435 73.0613 283.312 72.7573 283.312 72.32C283.312 71.872 283.435 71.568 283.68 71.408C283.936 71.2373 284.246 71.152 284.608 71.152Z" fill="white"/>
<path d="M396.213 593H592.795C595.117 593 597 594.883 597 597.206V656.794C597 659.117 595.117 661 592.795 661H396.213C392.467 661 390.591 656.469 393.24 653.82L417.077 629.974C418.719 628.332 418.719 625.668 417.077 624.026L393.24 600.18C390.591 597.531 392.467 593 396.213 593Z" fill="#78159B"/>
<path d="M437.321 615.44H437.888C438.116 615.44 438.305 615.41 438.455 615.35C438.605 615.284 438.734 615.182 438.842 615.044L442.433 610.499C442.583 610.307 442.739 610.175 442.901 610.103C443.069 610.025 443.279 609.986 443.531 609.986H445.619L441.236 615.395C440.978 615.725 440.711 615.959 440.435 616.097C440.633 616.169 440.81 616.271 440.966 616.403C441.128 616.529 441.281 616.697 441.425 616.907L445.943 623H443.81C443.522 623 443.306 622.961 443.162 622.883C443.024 622.799 442.907 622.679 442.811 622.523L439.13 617.717C439.016 617.555 438.884 617.441 438.734 617.375C438.584 617.309 438.368 617.276 438.086 617.276H437.321V623H434.9V609.986H437.321V615.44ZM452.107 613.622C452.791 613.622 453.412 613.733 453.97 613.955C454.534 614.177 455.014 614.492 455.41 614.9C455.812 615.308 456.121 615.806 456.337 616.394C456.553 616.982 456.661 617.639 456.661 618.365C456.661 619.097 456.553 619.757 456.337 620.345C456.121 620.933 455.812 621.434 455.41 621.848C455.014 622.262 454.534 622.58 453.97 622.802C453.412 623.024 452.791 623.135 452.107 623.135C451.417 623.135 450.79 623.024 450.226 622.802C449.662 622.58 449.179 622.262 448.777 621.848C448.381 621.434 448.072 620.933 447.85 620.345C447.634 619.757 447.526 619.097 447.526 618.365C447.526 617.639 447.634 616.982 447.85 616.394C448.072 615.806 448.381 615.308 448.777 614.9C449.179 614.492 449.662 614.177 450.226 613.955C450.79 613.733 451.417 613.622 452.107 613.622ZM452.107 621.425C452.875 621.425 453.442 621.167 453.808 620.651C454.18 620.135 454.366 619.379 454.366 618.383C454.366 617.387 454.18 616.628 453.808 616.106C453.442 615.584 452.875 615.323 452.107 615.323C451.327 615.323 450.748 615.587 450.37 616.115C449.998 616.637 449.812 617.393 449.812 618.383C449.812 619.373 449.998 620.129 450.37 620.651C450.748 621.167 451.327 621.425 452.107 621.425ZM462.236 614.9C462.422 614.714 462.617 614.543 462.821 614.387C463.031 614.225 463.25 614.09 463.478 613.982C463.712 613.868 463.961 613.781 464.225 613.721C464.489 613.655 464.777 613.622 465.089 613.622C465.593 613.622 466.04 613.709 466.43 613.883C466.82 614.051 467.144 614.291 467.402 614.603C467.666 614.909 467.864 615.278 467.996 615.71C468.134 616.136 468.203 616.607 468.203 617.123V623H465.98V617.123C465.98 616.559 465.851 616.124 465.593 615.818C465.335 615.506 464.942 615.35 464.414 615.35C464.03 615.35 463.67 615.437 463.334 615.611C462.998 615.785 462.68 616.022 462.38 616.322V623H460.157V613.766H461.516C461.804 613.766 461.993 613.901 462.083 614.171L462.236 614.9ZM480.073 613.766V623H478.714C478.42 623 478.234 622.865 478.156 622.595L478.003 621.857C477.625 622.241 477.208 622.553 476.752 622.793C476.296 623.027 475.759 623.144 475.141 623.144C474.637 623.144 474.19 623.06 473.8 622.892C473.416 622.718 473.092 622.475 472.828 622.163C472.564 621.851 472.363 621.482 472.225 621.056C472.093 620.624 472.027 620.15 472.027 619.634V613.766H474.25V619.634C474.25 620.198 474.379 620.636 474.637 620.948C474.901 621.254 475.294 621.407 475.816 621.407C476.2 621.407 476.56 621.323 476.896 621.155C477.232 620.981 477.55 620.744 477.85 620.444V613.766H480.073ZM496.883 618.086L495.299 613.757C495.221 613.565 495.14 613.337 495.056 613.073C494.972 612.809 494.888 612.524 494.804 612.218C494.726 612.524 494.645 612.812 494.561 613.082C494.477 613.346 494.396 613.577 494.318 613.775L492.743 618.086H496.883ZM501.158 623H499.286C499.076 623 498.905 622.949 498.773 622.847C498.641 622.739 498.542 622.607 498.476 622.451L497.504 619.796H492.113L491.141 622.451C491.093 622.589 491 622.715 490.862 622.829C490.724 622.943 490.553 623 490.349 623H488.459L493.58 609.986H496.046L501.158 623ZM506.016 614.9C506.202 614.714 506.397 614.543 506.601 614.387C506.811 614.225 507.03 614.09 507.258 613.982C507.492 613.868 507.741 613.781 508.005 613.721C508.269 613.655 508.557 613.622 508.869 613.622C509.373 613.622 509.82 613.709 510.21 613.883C510.6 614.051 510.924 614.291 511.182 614.603C511.446 614.909 511.644 615.278 511.776 615.71C511.914 616.136 511.983 616.607 511.983 617.123V623H509.76V617.123C509.76 616.559 509.631 616.124 509.373 615.818C509.115 615.506 508.722 615.35 508.194 615.35C507.81 615.35 507.45 615.437 507.114 615.611C506.778 615.785 506.46 616.022 506.16 616.322V623H503.937V613.766H505.296C505.584 613.766 505.773 613.901 505.863 614.171L506.016 614.9ZM518.147 609.626V623H515.924V609.626H518.147ZM527.04 619.058C526.398 619.088 525.858 619.145 525.42 619.229C524.982 619.307 524.631 619.409 524.367 619.535C524.103 619.661 523.914 619.808 523.8 619.976C523.686 620.144 523.629 620.327 523.629 620.525C523.629 620.915 523.743 621.194 523.971 621.362C524.205 621.53 524.508 621.614 524.88 621.614C525.336 621.614 525.729 621.533 526.059 621.371C526.395 621.203 526.722 620.951 527.04 620.615V619.058ZM521.946 615.053C523.008 614.081 524.286 613.595 525.78 613.595C526.32 613.595 526.803 613.685 527.229 613.865C527.655 614.039 528.015 614.285 528.309 614.603C528.603 614.915 528.825 615.29 528.975 615.728C529.131 616.166 529.209 616.646 529.209 617.168V623H528.201C527.991 623 527.829 622.97 527.715 622.91C527.601 622.844 527.511 622.715 527.445 622.523L527.247 621.857C527.013 622.067 526.785 622.253 526.563 622.415C526.341 622.571 526.11 622.703 525.87 622.811C525.63 622.919 525.372 623 525.096 623.054C524.826 623.114 524.526 623.144 524.196 623.144C523.806 623.144 523.446 623.093 523.116 622.991C522.786 622.883 522.501 622.724 522.261 622.514C522.021 622.304 521.835 622.043 521.703 621.731C521.571 621.419 521.505 621.056 521.505 620.642C521.505 620.408 521.544 620.177 521.622 619.949C521.7 619.715 521.826 619.493 522 619.283C522.18 619.073 522.411 618.875 522.693 618.689C522.975 618.503 523.32 618.341 523.728 618.203C524.142 618.065 524.622 617.954 525.168 617.87C525.714 617.78 526.338 617.726 527.04 617.708V617.168C527.04 616.55 526.908 616.094 526.644 615.8C526.38 615.5 525.999 615.35 525.501 615.35C525.141 615.35 524.841 615.392 524.601 615.476C524.367 615.56 524.16 615.656 523.98 615.764C523.8 615.866 523.635 615.959 523.485 616.043C523.341 616.127 523.179 616.169 522.999 616.169C522.843 616.169 522.711 616.13 522.603 616.052C522.495 615.968 522.408 615.872 522.342 615.764L521.946 615.053ZM542.294 623H540.071V615.431H535.787V620.435C535.787 620.723 535.856 620.948 535.994 621.11C536.138 621.272 536.333 621.353 536.579 621.353C536.717 621.353 536.831 621.338 536.921 621.308C537.017 621.272 537.098 621.236 537.164 621.2C537.236 621.164 537.299 621.131 537.353 621.101C537.407 621.065 537.461 621.047 537.515 621.047C537.581 621.047 537.635 621.065 537.677 621.101C537.719 621.131 537.764 621.179 537.812 621.245L538.478 622.325C538.154 622.595 537.782 622.799 537.362 622.937C536.942 623.075 536.507 623.144 536.057 623.144C535.253 623.144 534.635 622.919 534.203 622.469C533.777 622.013 533.564 621.386 533.564 620.588V615.431H532.619C532.499 615.431 532.397 615.392 532.313 615.314C532.229 615.236 532.187 615.119 532.187 614.963V614.081L533.672 613.829L534.14 611.318C534.17 611.198 534.227 611.105 534.311 611.039C534.395 610.973 534.503 610.94 534.635 610.94H535.787V613.847H542.294V623ZM546.363 623V613.766H547.722C548.01 613.766 548.199 613.901 548.289 614.171L548.433 614.855C548.595 614.675 548.763 614.51 548.937 614.36C549.117 614.21 549.306 614.081 549.504 613.973C549.708 613.865 549.924 613.781 550.152 613.721C550.386 613.655 550.641 613.622 550.917 613.622C551.499 613.622 551.976 613.781 552.348 614.099C552.726 614.411 553.008 614.828 553.194 615.35C553.338 615.044 553.518 614.783 553.734 614.567C553.95 614.345 554.187 614.165 554.445 614.027C554.703 613.889 554.976 613.787 555.264 613.721C555.558 613.655 555.852 613.622 556.146 613.622C556.656 613.622 557.109 613.7 557.505 613.856C557.901 614.012 558.234 614.24 558.504 614.54C558.774 614.84 558.978 615.206 559.116 615.638C559.26 616.07 559.332 616.565 559.332 617.123V623H557.109V617.123C557.109 616.535 556.98 616.094 556.722 615.8C556.464 615.5 556.086 615.35 555.588 615.35C555.36 615.35 555.147 615.389 554.949 615.467C554.757 615.545 554.586 615.659 554.436 615.809C554.292 615.953 554.178 616.136 554.094 616.358C554.01 616.58 553.968 616.835 553.968 617.123V623H551.736V617.123C551.736 616.505 551.61 616.055 551.358 615.773C551.112 615.491 550.749 615.35 550.269 615.35C549.945 615.35 549.642 615.431 549.36 615.593C549.084 615.749 548.826 615.965 548.586 616.241V623H546.363ZM565.495 609.626V623H563.272V609.626H565.495ZM571.814 613.766V623H569.591V613.766H571.814ZM478.304 638.493C478.304 639.447 478.145 640.323 477.827 641.121C477.509 641.919 477.062 642.606 476.486 643.182C475.91 643.758 475.217 644.205 474.407 644.523C473.597 644.841 472.697 645 471.707 645H466.748V631.986H471.707C472.697 631.986 473.597 632.148 474.407 632.472C475.217 632.79 475.91 633.237 476.486 633.813C477.062 634.383 477.509 635.067 477.827 635.865C478.145 636.663 478.304 637.539 478.304 638.493ZM475.82 638.493C475.82 637.779 475.724 637.14 475.532 636.576C475.346 636.006 475.073 635.526 474.713 635.136C474.359 634.74 473.927 634.437 473.417 634.227C472.913 634.017 472.343 633.912 471.707 633.912H469.178V643.074H471.707C472.343 643.074 472.913 642.969 473.417 642.759C473.927 642.549 474.359 642.249 474.713 641.859C475.073 641.463 475.346 640.983 475.532 640.419C475.724 639.849 475.82 639.207 475.82 638.493ZM487.716 639.321C487.716 639.033 487.674 638.763 487.59 638.511C487.512 638.253 487.392 638.028 487.23 637.836C487.068 637.644 486.861 637.494 486.609 637.386C486.363 637.272 486.075 637.215 485.745 637.215C485.103 637.215 484.596 637.398 484.224 637.764C483.858 638.13 483.624 638.649 483.522 639.321H487.716ZM483.477 640.662C483.513 641.136 483.597 641.547 483.729 641.895C483.861 642.237 484.035 642.522 484.251 642.75C484.467 642.972 484.722 643.14 485.016 643.254C485.316 643.362 485.646 643.416 486.006 643.416C486.366 643.416 486.675 643.374 486.933 643.29C487.197 643.206 487.425 643.113 487.617 643.011C487.815 642.909 487.986 642.816 488.13 642.732C488.28 642.648 488.424 642.606 488.562 642.606C488.748 642.606 488.886 642.675 488.976 642.813L489.615 643.623C489.369 643.911 489.093 644.154 488.787 644.352C488.481 644.544 488.16 644.7 487.824 644.82C487.494 644.934 487.155 645.015 486.807 645.063C486.465 645.111 486.132 645.135 485.808 645.135C485.166 645.135 484.569 645.03 484.017 644.82C483.465 644.604 482.985 644.289 482.577 643.875C482.169 643.455 481.848 642.939 481.614 642.327C481.38 641.709 481.263 640.995 481.263 640.185C481.263 639.555 481.365 638.964 481.569 638.412C481.773 637.854 482.064 637.371 482.442 636.963C482.826 636.549 483.291 636.222 483.837 635.982C484.389 635.742 485.01 635.622 485.7 635.622C486.282 635.622 486.819 635.715 487.311 635.901C487.803 636.087 488.226 636.36 488.58 636.72C488.934 637.074 489.21 637.512 489.408 638.034C489.612 638.55 489.714 639.141 489.714 639.807C489.714 640.143 489.678 640.371 489.606 640.491C489.534 640.605 489.396 640.662 489.192 640.662H483.477ZM495.279 637.368C495.567 636.816 495.909 636.384 496.305 636.072C496.701 635.754 497.169 635.595 497.709 635.595C498.135 635.595 498.477 635.688 498.735 635.874L498.591 637.539C498.561 637.647 498.516 637.725 498.456 637.773C498.402 637.815 498.327 637.836 498.231 637.836C498.141 637.836 498.006 637.821 497.826 637.791C497.652 637.761 497.481 637.746 497.313 637.746C497.067 637.746 496.848 637.782 496.656 637.854C496.464 637.926 496.29 638.031 496.134 638.169C495.984 638.301 495.849 638.463 495.729 638.655C495.615 638.847 495.507 639.066 495.405 639.312V645H493.182V635.766H494.487C494.715 635.766 494.874 635.808 494.964 635.892C495.054 635.97 495.114 636.114 495.144 636.324L495.279 637.368ZM507.296 637.566C507.236 637.662 507.173 637.731 507.107 637.773C507.041 637.809 506.957 637.827 506.855 637.827C506.747 637.827 506.63 637.797 506.504 637.737C506.384 637.677 506.243 637.611 506.081 637.539C505.919 637.461 505.733 637.392 505.523 637.332C505.319 637.272 505.076 637.242 504.794 637.242C504.356 637.242 504.011 637.335 503.759 637.521C503.513 637.707 503.39 637.95 503.39 638.25C503.39 638.448 503.453 638.616 503.579 638.754C503.711 638.886 503.882 639.003 504.092 639.105C504.308 639.207 504.551 639.3 504.821 639.384C505.091 639.462 505.364 639.549 505.64 639.645C505.922 639.741 506.198 639.852 506.468 639.978C506.738 640.098 506.978 640.254 507.188 640.446C507.404 640.632 507.575 640.857 507.701 641.121C507.833 641.385 507.899 641.703 507.899 642.075C507.899 642.519 507.818 642.93 507.656 643.308C507.5 643.68 507.266 644.004 506.954 644.28C506.642 644.55 506.255 644.763 505.793 644.919C505.337 645.069 504.809 645.144 504.209 645.144C503.891 645.144 503.579 645.114 503.273 645.054C502.973 645 502.682 644.922 502.4 644.82C502.124 644.718 501.866 644.598 501.626 644.46C501.392 644.322 501.185 644.172 501.005 644.01L501.518 643.164C501.584 643.062 501.662 642.984 501.752 642.93C501.842 642.876 501.956 642.849 502.094 642.849C502.232 642.849 502.361 642.888 502.481 642.966C502.607 643.044 502.751 643.128 502.913 643.218C503.075 643.308 503.264 643.392 503.48 643.47C503.702 643.548 503.981 643.587 504.317 643.587C504.581 643.587 504.806 643.557 504.992 643.497C505.184 643.431 505.34 643.347 505.46 643.245C505.586 643.143 505.676 643.026 505.73 642.894C505.79 642.756 505.82 642.615 505.82 642.471C505.82 642.255 505.754 642.078 505.622 641.94C505.496 641.802 505.325 641.682 505.109 641.58C504.899 641.478 504.656 641.388 504.38 641.31C504.11 641.226 503.831 641.136 503.543 641.04C503.261 640.944 502.982 640.833 502.706 640.707C502.436 640.575 502.193 640.41 501.977 640.212C501.767 640.014 501.596 639.771 501.464 639.483C501.338 639.195 501.275 638.847 501.275 638.439C501.275 638.061 501.35 637.701 501.5 637.359C501.65 637.017 501.869 636.72 502.157 636.468C502.451 636.21 502.814 636.006 503.246 635.856C503.684 635.7 504.188 635.622 504.758 635.622C505.394 635.622 505.973 635.727 506.495 635.937C507.017 636.147 507.452 636.423 507.8 636.765L507.296 637.566ZM520.321 637.44H520.888C521.116 637.44 521.305 637.41 521.455 637.35C521.605 637.284 521.734 637.182 521.842 637.044L525.433 632.499C525.583 632.307 525.739 632.175 525.901 632.103C526.069 632.025 526.279 631.986 526.531 631.986H528.619L524.236 637.395C523.978 637.725 523.711 637.959 523.435 638.097C523.633 638.169 523.81 638.271 523.966 638.403C524.128 638.529 524.281 638.697 524.425 638.907L528.943 645H526.81C526.522 645 526.306 644.961 526.162 644.883C526.024 644.799 525.907 644.679 525.811 644.523L522.13 639.717C522.016 639.555 521.884 639.441 521.734 639.375C521.584 639.309 521.368 639.276 521.086 639.276H520.321V645H517.9V631.986H520.321V637.44ZM533.993 635.766V645H531.761V635.766H533.993ZM534.299 633.075C534.299 633.267 534.26 633.447 534.182 633.615C534.104 633.783 533.999 633.93 533.867 634.056C533.741 634.182 533.591 634.284 533.417 634.362C533.243 634.434 533.057 634.47 532.859 634.47C532.667 634.47 532.484 634.434 532.31 634.362C532.142 634.284 531.995 634.182 531.869 634.056C531.743 633.93 531.641 633.783 531.563 633.615C531.491 633.447 531.455 633.267 531.455 633.075C531.455 632.877 531.491 632.691 531.563 632.517C531.641 632.343 531.743 632.193 531.869 632.067C531.995 631.941 532.142 631.842 532.31 631.77C532.484 631.692 532.667 631.653 532.859 631.653C533.057 631.653 533.243 631.692 533.417 631.77C533.591 631.842 533.741 631.941 533.867 632.067C533.999 632.193 534.104 632.343 534.182 632.517C534.26 632.691 534.299 632.877 534.299 633.075ZM541.137 645.144C540.333 645.144 539.715 644.919 539.283 644.469C538.857 644.013 538.644 643.386 538.644 642.588V637.431H537.699C537.579 637.431 537.477 637.392 537.393 637.314C537.309 637.236 537.267 637.119 537.267 636.963V636.081L538.752 635.838L539.22 633.318C539.25 633.198 539.307 633.105 539.391 633.039C539.475 632.973 539.583 632.94 539.715 632.94H540.867V635.847H543.333V637.431H540.867V642.435C540.867 642.723 540.936 642.948 541.074 643.11C541.218 643.272 541.413 643.353 541.659 643.353C541.797 643.353 541.911 643.338 542.001 643.308C542.097 643.272 542.178 643.236 542.244 643.2C542.316 643.164 542.379 643.131 542.433 643.101C542.487 643.065 542.541 643.047 542.595 643.047C542.661 643.047 542.715 643.065 542.757 643.101C542.799 643.131 542.844 643.179 542.892 643.245L543.558 644.325C543.234 644.595 542.862 644.799 542.442 644.937C542.022 645.075 541.587 645.144 541.137 645.144ZM551.435 641.058C550.793 641.088 550.253 641.145 549.815 641.229C549.377 641.307 549.026 641.409 548.762 641.535C548.498 641.661 548.309 641.808 548.195 641.976C548.081 642.144 548.024 642.327 548.024 642.525C548.024 642.915 548.138 643.194 548.366 643.362C548.6 643.53 548.903 643.614 549.275 643.614C549.731 643.614 550.124 643.533 550.454 643.371C550.79 643.203 551.117 642.951 551.435 642.615V641.058ZM546.341 637.053C547.403 636.081 548.681 635.595 550.175 635.595C550.715 635.595 551.198 635.685 551.624 635.865C552.05 636.039 552.41 636.285 552.704 636.603C552.998 636.915 553.22 637.29 553.37 637.728C553.526 638.166 553.604 638.646 553.604 639.168V645H552.596C552.386 645 552.224 644.97 552.11 644.91C551.996 644.844 551.906 644.715 551.84 644.523L551.642 643.857C551.408 644.067 551.18 644.253 550.958 644.415C550.736 644.571 550.505 644.703 550.265 644.811C550.025 644.919 549.767 645 549.491 645.054C549.221 645.114 548.921 645.144 548.591 645.144C548.201 645.144 547.841 645.093 547.511 644.991C547.181 644.883 546.896 644.724 546.656 644.514C546.416 644.304 546.23 644.043 546.098 643.731C545.966 643.419 545.9 643.056 545.9 642.642C545.9 642.408 545.939 642.177 546.017 641.949C546.095 641.715 546.221 641.493 546.395 641.283C546.575 641.073 546.806 640.875 547.088 640.689C547.37 640.503 547.715 640.341 548.123 640.203C548.537 640.065 549.017 639.954 549.563 639.87C550.109 639.78 550.733 639.726 551.435 639.708V639.168C551.435 638.55 551.303 638.094 551.039 637.8C550.775 637.5 550.394 637.35 549.896 637.35C549.536 637.35 549.236 637.392 548.996 637.476C548.762 637.56 548.555 637.656 548.375 637.764C548.195 637.866 548.03 637.959 547.88 638.043C547.736 638.127 547.574 638.169 547.394 638.169C547.238 638.169 547.106 638.13 546.998 638.052C546.89 637.968 546.803 637.872 546.737 637.764L546.341 637.053ZM559.72 642.606C559.972 642.912 560.245 643.128 560.539 643.254C560.839 643.38 561.154 643.443 561.484 643.443C561.826 643.443 562.132 643.383 562.402 643.263C562.678 643.137 562.912 642.945 563.104 642.687C563.296 642.423 563.443 642.09 563.545 641.688C563.647 641.28 563.698 640.794 563.698 640.23C563.698 639.216 563.53 638.484 563.194 638.034C562.858 637.578 562.375 637.35 561.745 637.35C561.319 637.35 560.947 637.449 560.629 637.647C560.311 637.839 560.008 638.112 559.72 638.466V642.606ZM559.72 636.9C560.092 636.51 560.503 636.201 560.953 635.973C561.409 635.739 561.928 635.622 562.51 635.622C563.044 635.622 563.524 635.727 563.95 635.937C564.382 636.147 564.748 636.45 565.048 636.846C565.354 637.236 565.588 637.71 565.75 638.268C565.912 638.826 565.993 639.453 565.993 640.149C565.993 640.899 565.9 641.58 565.714 642.192C565.528 642.804 565.261 643.329 564.913 643.767C564.571 644.199 564.157 644.535 563.671 644.775C563.185 645.015 562.645 645.135 562.051 645.135C561.763 645.135 561.502 645.105 561.268 645.045C561.034 644.991 560.818 644.913 560.62 644.811C560.422 644.709 560.239 644.586 560.071 644.442C559.909 644.292 559.753 644.127 559.603 643.947L559.504 644.568C559.468 644.724 559.405 644.835 559.315 644.901C559.231 644.967 559.114 645 558.964 645H557.497V631.626H559.72V636.9ZM571.814 635.766V645H569.591V635.766H571.814Z" fill="white"/>
<path d="M59.939 89.269C60.681 89.269 61.3693 89.3927 62.004 89.64C62.634 89.8873 63.18 90.235 63.642 90.683C64.104 91.131 64.4657 91.67 64.727 92.3C64.9837 92.93 65.112 93.6277 65.112 94.393C65.112 95.1583 64.9837 95.8583 64.727 96.493C64.4657 97.123 64.104 97.6643 63.642 98.117C63.18 98.565 62.634 98.9127 62.004 99.16C61.3693 99.4073 60.681 99.531 59.939 99.531C59.197 99.531 58.511 99.4073 57.881 99.16C57.2463 98.9127 56.698 98.565 56.236 98.117C55.774 97.6643 55.4147 97.123 55.158 96.493C54.8967 95.8583 54.766 95.1583 54.766 94.393C54.766 93.6277 54.8967 92.93 55.158 92.3C55.4193 91.67 55.781 91.131 56.243 90.683C56.7003 90.235 57.2463 89.8873 57.881 89.64C58.511 89.3927 59.197 89.269 59.939 89.269ZM59.939 91.201C59.3837 91.201 58.8867 91.2757 58.448 91.425C58.0047 91.5697 57.629 91.7797 57.321 92.055C57.013 92.3303 56.7773 92.6663 56.614 93.063C56.4507 93.455 56.369 93.8983 56.369 94.393C56.369 94.8877 56.4507 95.3333 56.614 95.73C56.7773 96.1267 57.013 96.465 57.321 96.745C57.629 97.0203 58.0047 97.2327 58.448 97.382C58.8867 97.5313 59.3837 97.606 59.939 97.606C60.4943 97.606 60.9937 97.5313 61.437 97.382C61.8757 97.2327 62.249 97.0203 62.557 96.745C62.8603 96.465 63.0937 96.1267 63.257 95.73C63.4203 95.3333 63.502 94.8877 63.502 94.393C63.502 93.8983 63.4203 93.455 63.257 93.063C63.0937 92.6663 62.8603 92.3303 62.557 92.055C62.249 91.7797 61.8757 91.5697 61.437 91.425C60.9937 91.2757 60.4943 91.201 59.939 91.201ZM53.331 94.953C53.457 94.953 53.576 94.9787 53.688 95.03C53.8 95.0813 53.898 95.1513 53.982 95.24C54.066 95.3287 54.1313 95.4313 54.178 95.548C54.2247 95.6647 54.248 95.7883 54.248 95.919C54.248 96.0403 54.2247 96.157 54.178 96.269C54.1313 96.3763 54.066 96.472 53.982 96.556C53.898 96.64 53.8 96.7077 53.688 96.759C53.576 96.8057 53.457 96.829 53.331 96.829C53.205 96.829 53.086 96.8057 52.974 96.759C52.8573 96.7077 52.757 96.64 52.673 96.556C52.5843 96.472 52.5143 96.3763 52.463 96.269C52.4117 96.157 52.386 96.0403 52.386 95.919C52.386 95.7883 52.4117 95.6647 52.463 95.548C52.5143 95.4313 52.5843 95.3287 52.673 95.24C52.757 95.1513 52.8573 95.0813 52.974 95.03C53.086 94.9787 53.205 94.953 53.331 94.953ZM53.331 91.929C53.457 91.929 53.576 91.9547 53.688 92.006C53.8 92.0527 53.898 92.118 53.982 92.202C54.066 92.286 54.1313 92.3863 54.178 92.503C54.2247 92.615 54.248 92.7363 54.248 92.867C54.248 92.993 54.2247 93.1143 54.178 93.231C54.1313 93.343 54.066 93.4433 53.982 93.532C53.898 93.616 53.8 93.6837 53.688 93.735C53.576 93.7817 53.457 93.805 53.331 93.805C53.205 93.805 53.086 93.7817 52.974 93.735C52.8573 93.6837 52.757 93.616 52.673 93.532C52.5843 93.4433 52.5143 93.343 52.463 93.231C52.4117 93.1143 52.386 92.993 52.386 92.867C52.386 92.7363 52.4117 92.615 52.463 92.503C52.5143 92.3863 52.5843 92.286 52.673 92.202C52.757 92.118 52.8573 92.0527 52.974 92.006C53.086 91.9547 53.205 91.929 53.331 91.929ZM65 78.5392L65 79.9952C65 80.1585 64.9603 80.2939 64.881 80.4012C64.797 80.5039 64.6943 80.5785 64.573 80.6252L62.508 81.3812L62.508 85.5742L64.573 86.3302C64.6803 86.3675 64.7783 86.4422 64.867 86.5542C64.9557 86.6615 65 86.7945 65 86.9532L65 88.4162L54.878 84.4402L54.878 82.5152L65 78.5392ZM61.178 85.0912L61.178 81.8642L57.811 83.0962C57.6617 83.1522 57.4867 83.2152 57.286 83.2852C57.0807 83.3505 56.859 83.4159 56.621 83.4812C56.859 83.5465 57.0807 83.6119 57.286 83.6772C57.4913 83.7379 57.671 83.7985 57.825 83.8592L61.178 85.0912ZM65 76.7967L54.878 76.7968L54.878 73.3037C54.878 72.6411 54.941 72.0764 55.067 71.6098C55.193 71.1384 55.3727 70.7534 55.606 70.4547C55.8393 70.1514 56.1217 69.9297 56.453 69.7897C56.7843 69.6497 57.1577 69.5797 57.573 69.5797C57.811 69.5797 58.0397 69.6147 58.259 69.6847C58.4737 69.7547 58.6767 69.8644 58.868 70.0137C59.0547 70.1584 59.225 70.3451 59.379 70.5737C59.533 70.7977 59.6637 71.0661 59.771 71.3787C60.0837 69.9881 60.835 69.2927 62.025 69.2927C62.4543 69.2927 62.851 69.3744 63.215 69.5377C63.579 69.7011 63.894 69.9391 64.16 70.2517C64.4213 70.5644 64.6267 70.9494 64.776 71.4067C64.9253 71.8641 65 72.3867 65 72.9747L65 76.7967ZM60.562 74.9137L63.53 74.9137L63.53 73.0027C63.53 72.6527 63.488 72.3611 63.404 72.1277C63.32 71.8897 63.208 71.7007 63.068 71.5607C62.928 71.4161 62.7647 71.3134 62.578 71.2527C62.3913 71.1874 62.193 71.1547 61.983 71.1547C61.7637 71.1547 61.5677 71.1897 61.395 71.2597C61.2177 71.3297 61.0683 71.4394 60.947 71.5887C60.821 71.7381 60.7253 71.9294 60.66 72.1627C60.5947 72.3961 60.562 72.6784 60.562 73.0097L60.562 74.9137ZM59.26 74.9137L59.26 73.4087C59.26 72.7694 59.1433 72.2841 58.91 71.9527C58.6767 71.6214 58.3057 71.4557 57.797 71.4557C57.2697 71.4557 56.894 71.6051 56.67 71.9037C56.446 72.2024 56.334 72.6691 56.334 73.3037L56.334 74.9137L59.26 74.9137ZM54.878 59.8446L56.425 59.8446L56.425 62.8896L65 62.8896L65 64.7726L56.425 64.7726L56.425 67.8316L54.878 67.8316L54.878 59.8446Z" fill="#78159B"/>
</g>
<defs>
<clipPath id="clip0">
<rect width="595" height="842" fill="white"/>
</clipPath>
</defs>
</svg>
