<svg width="36" height="34" viewBox="0 0 36 34" fill="none" xmlns="http://www.w3.org/2000/svg">
<circle cx="17" cy="17" r="17" fill="#B4FF91"/>
<path fill-rule="evenodd" clip-rule="evenodd" d="M28.4403 23.3038C31.1281 23.3038 33.307 21.1249 33.307 18.4371C33.307 15.7493 31.1281 13.5704 28.4403 13.5704C25.7525 13.5704 23.5736 15.7493 23.5736 18.4371C23.5736 21.1249 25.7525 23.3038 28.4403 23.3038ZM28.4403 24.5648C31.8245 24.5648 34.568 21.8213 34.568 18.4371C34.568 15.0529 31.8245 12.3094 28.4403 12.3094C25.0561 12.3094 22.3126 15.0529 22.3126 18.4371C22.3126 21.8213 25.0561 24.5648 28.4403 24.5648Z" fill="white"/>
<path fill-rule="evenodd" clip-rule="evenodd" d="M26.4967 29.6712V24.0688H27.7578V29.6712C27.7578 30.1288 28.1287 30.4997 28.5862 30.4997C29.0438 30.4997 29.4147 30.1288 29.4147 29.6712V24.0688H30.6757V29.6712C30.6757 30.8252 29.7402 31.7607 28.5862 31.7607C27.4322 31.7607 26.4967 30.8252 26.4967 29.6712Z" fill="white"/>
<path fill-rule="evenodd" clip-rule="evenodd" d="M21.8202 3.24839C19.983 2.21289 15.8786 0.987843 12.0649 3.3915C11.9111 3.48845 11.8146 3.65879 11.8146 3.84491V5.13436H10.522C9.12916 5.13436 8 6.26352 8 7.6564V19.0056C8 20.3985 9.12916 21.5277 10.522 21.5277H18.9954C19.405 21.5277 19.8202 21.7625 20.3453 22.1379C20.714 22.4016 21.1859 22.6179 21.7324 22.6399C22.1701 22.6575 22.6172 22.5488 23.0552 22.2935C22.81 21.9536 22.5963 21.5894 22.4184 21.2053C22.172 21.3485 21.9598 21.387 21.7832 21.3799C21.5445 21.3703 21.3053 21.2741 21.0787 21.1121C20.5717 20.7496 19.8546 20.2666 18.9954 20.2666H10.522C9.8256 20.2666 9.26102 19.7021 9.26102 19.0056V7.6564C9.26102 6.95996 9.8256 6.39538 10.522 6.39538H11.8146V18.4015C11.8146 18.6 11.919 18.7636 12.0668 18.8568V18.911H12.1796C12.2884 18.9488 12.4096 18.9522 12.5259 18.911H21.6071C21.6718 18.9319 21.7393 18.9399 21.8059 18.9361C21.8132 18.9371 21.8205 18.9379 21.8278 18.9385C21.8148 18.7692 21.8082 18.598 21.8082 18.4254C21.8082 17.5258 21.9876 16.6681 22.3126 15.8862V4.05607C25.6728 2.08249 29.2766 3.16315 30.8876 4.07829V12.2767C31.2167 12.4085 31.5328 12.5659 31.8333 12.7465V6.39538H33.0628C33.7593 6.39538 34.3239 6.95996 34.3239 7.6564V15.4099C34.7874 16.3142 35.0489 17.3393 35.0489 18.4254C35.0489 19.3704 34.8509 20.2691 34.4942 21.0824C35.1531 20.6274 35.5849 19.867 35.5849 19.0056V7.6564C35.5849 6.26352 34.4557 5.13436 33.0628 5.13436H31.8333V3.84503C31.8333 3.67076 31.7477 3.49424 31.5819 3.39097C29.9186 2.3551 25.744 0.933186 21.8202 3.24839ZM24.7961 12.8897H24.2041C23.943 12.8897 23.7313 13.1014 23.7313 13.3625C23.7313 13.4743 23.7701 13.5771 23.8349 13.658C24.1303 13.3734 24.452 13.1159 24.7961 12.8897ZM20.026 17.9653C17.8503 16.9586 15.7164 17.3112 14.1874 17.9653H20.026ZM21.3353 4.0605C19.7042 3.14642 16.1078 2.08862 12.7604 4.07468V17.6349C14.6217 16.5218 18.0031 15.5146 21.3353 17.6005V4.0605ZM14.4627 5.67029C14.4627 5.40913 14.6745 5.19741 14.9356 5.19741H19.2231C19.4843 5.19741 19.696 5.40913 19.696 5.67029C19.696 5.93146 19.4843 6.14318 19.2231 6.14318H14.9356C14.6745 6.14318 14.4627 5.93146 14.4627 5.67029ZM14.9356 7.84556C14.6745 7.84556 14.4627 8.05728 14.4627 8.31844C14.4627 8.57961 14.6745 8.79133 14.9356 8.79133H19.2231C19.4843 8.79133 19.696 8.57961 19.696 8.31844C19.696 8.05728 19.4843 7.84556 19.2231 7.84556H14.9356ZM14.4627 10.8405C14.4627 10.5793 14.6745 10.3676 14.9356 10.3676H19.2231C19.4843 10.3676 19.696 10.5793 19.696 10.8405C19.696 11.1017 19.4843 11.3134 19.2231 11.3134H14.9356C14.6745 11.3134 14.4627 11.1017 14.4627 10.8405ZM14.9356 12.8897C14.6745 12.8897 14.4627 13.1014 14.4627 13.3625C14.4627 13.6237 14.6745 13.8354 14.9356 13.8354H19.2231C19.4843 13.8354 19.696 13.6237 19.696 13.3625C19.696 13.1014 19.4843 12.8897 19.2231 12.8897H14.9356ZM23.7313 5.67029C23.7313 5.40913 23.943 5.19741 24.2041 5.19741H28.4916C28.7528 5.19741 28.9645 5.40913 28.9645 5.67029C28.9645 5.93146 28.7528 6.14318 28.4916 6.14318H24.2041C23.943 6.14318 23.7313 5.93146 23.7313 5.67029ZM24.2041 7.84556C23.943 7.84556 23.7313 8.05728 23.7313 8.31844C23.7313 8.57961 23.943 8.79133 24.2041 8.79133H28.4916C28.7528 8.79133 28.9645 8.57961 28.9645 8.31844C28.9645 8.05728 28.7528 7.84556 28.4916 7.84556H24.2041ZM23.7313 10.8405C23.7313 10.5793 23.943 10.3676 24.2041 10.3676H28.4916C28.7528 10.3676 28.9645 10.5793 28.9645 10.8405C28.9645 11.1017 28.7528 11.3134 28.4916 11.3134H24.2041C23.943 11.3134 23.7313 11.1017 23.7313 10.8405Z" fill="white"/>
<path fill-rule="evenodd" clip-rule="evenodd" d="M28.4403 22.3038C31.1281 22.3038 33.307 20.1249 33.307 17.4371C33.307 14.7493 31.1281 12.5704 28.4403 12.5704C25.7525 12.5704 23.5736 14.7493 23.5736 17.4371C23.5736 20.1249 25.7525 22.3038 28.4403 22.3038ZM28.4403 23.5648C31.8245 23.5648 34.568 20.8213 34.568 17.4371C34.568 14.0529 31.8245 11.3094 28.4403 11.3094C25.0561 11.3094 22.3126 14.0529 22.3126 17.4371C22.3126 20.8213 25.0561 23.5648 28.4403 23.5648Z" fill="#1C4D05"/>
<path fill-rule="evenodd" clip-rule="evenodd" d="M26.4967 28.6712V23.0688H27.7578V28.6712C27.7578 29.1288 28.1287 29.4997 28.5862 29.4997C29.0438 29.4997 29.4147 29.1288 29.4147 28.6712V23.0688H30.6757V28.6712C30.6757 29.8252 29.7402 30.7607 28.5862 30.7607C27.4322 30.7607 26.4967 29.8252 26.4967 28.6712Z" fill="#1C4D05"/>
<path fill-rule="evenodd" clip-rule="evenodd" d="M21.8202 2.24839C19.983 1.21289 15.8786 -0.0121573 12.0649 2.3915C11.9111 2.48845 11.8146 2.65879 11.8146 2.84491V4.13436H10.522C9.12916 4.13436 8 5.26352 8 6.6564V18.0056C8 19.3985 9.12916 20.5277 10.522 20.5277H18.9954C19.405 20.5277 19.8202 20.7625 20.3453 21.1379C20.714 21.4016 21.1859 21.6179 21.7324 21.6399C22.1701 21.6575 22.6172 21.5488 23.0552 21.2935C22.81 20.9536 22.5963 20.5894 22.4184 20.2053C22.172 20.3485 21.9598 20.387 21.7832 20.3799C21.5445 20.3703 21.3053 20.2741 21.0787 20.1121C20.5717 19.7496 19.8546 19.2666 18.9954 19.2666H10.522C9.8256 19.2666 9.26102 18.7021 9.26102 18.0056V6.6564C9.26102 5.95996 9.8256 5.39538 10.522 5.39538H11.8146V17.4015C11.8146 17.6 11.919 17.7636 12.0668 17.8568V17.911H12.1796C12.2884 17.9488 12.4096 17.9522 12.5259 17.911H21.6071C21.6718 17.9319 21.7393 17.9399 21.8059 17.9361C21.8132 17.9371 21.8205 17.9379 21.8278 17.9385C21.8148 17.7692 21.8082 17.598 21.8082 17.4254C21.8082 16.5258 21.9876 15.6681 22.3126 14.8862V3.05607C25.6728 1.08249 29.2766 2.16315 30.8876 3.07829V11.2767C31.2167 11.4085 31.5328 11.5659 31.8333 11.7465V5.39538H33.0628C33.7593 5.39538 34.3239 5.95996 34.3239 6.6564V14.4099C34.7874 15.3142 35.0489 16.3393 35.0489 17.4254C35.0489 18.3704 34.8509 19.2691 34.4942 20.0824C35.1531 19.6274 35.5849 18.867 35.5849 18.0056V6.6564C35.5849 5.26352 34.4557 4.13436 33.0628 4.13436H31.8333V2.84503C31.8333 2.67076 31.7477 2.49424 31.5819 2.39097C29.9186 1.3551 25.744 -0.0668142 21.8202 2.24839ZM24.7961 11.8897H24.2041C23.943 11.8897 23.7313 12.1014 23.7313 12.3625C23.7313 12.4743 23.7701 12.5771 23.8349 12.658C24.1303 12.3734 24.452 12.1159 24.7961 11.8897ZM20.026 16.9653C17.8503 15.9586 15.7164 16.3112 14.1874 16.9653H20.026ZM21.3353 3.0605C19.7042 2.14642 16.1078 1.08862 12.7604 3.07468V16.6349C14.6217 15.5218 18.0031 14.5146 21.3353 16.6005V3.0605ZM14.4627 4.67029C14.4627 4.40913 14.6745 4.19741 14.9356 4.19741H19.2231C19.4843 4.19741 19.696 4.40913 19.696 4.67029C19.696 4.93146 19.4843 5.14318 19.2231 5.14318H14.9356C14.6745 5.14318 14.4627 4.93146 14.4627 4.67029ZM14.9356 6.84556C14.6745 6.84556 14.4627 7.05728 14.4627 7.31844C14.4627 7.57961 14.6745 7.79133 14.9356 7.79133H19.2231C19.4843 7.79133 19.696 7.57961 19.696 7.31844C19.696 7.05728 19.4843 6.84556 19.2231 6.84556H14.9356ZM14.4627 9.84049C14.4627 9.57932 14.6745 9.36761 14.9356 9.36761H19.2231C19.4843 9.36761 19.696 9.57932 19.696 9.84049C19.696 10.1017 19.4843 10.3134 19.2231 10.3134H14.9356C14.6745 10.3134 14.4627 10.1017 14.4627 9.84049ZM14.9356 11.8897C14.6745 11.8897 14.4627 12.1014 14.4627 12.3625C14.4627 12.6237 14.6745 12.8354 14.9356 12.8354H19.2231C19.4843 12.8354 19.696 12.6237 19.696 12.3625C19.696 12.1014 19.4843 11.8897 19.2231 11.8897H14.9356ZM23.7313 4.67029C23.7313 4.40913 23.943 4.19741 24.2041 4.19741H28.4916C28.7528 4.19741 28.9645 4.40913 28.9645 4.67029C28.9645 4.93146 28.7528 5.14318 28.4916 5.14318H24.2041C23.943 5.14318 23.7313 4.93146 23.7313 4.67029ZM24.2041 6.84556C23.943 6.84556 23.7313 7.05728 23.7313 7.31844C23.7313 7.57961 23.943 7.79133 24.2041 7.79133H28.4916C28.7528 7.79133 28.9645 7.57961 28.9645 7.31844C28.9645 7.05728 28.7528 6.84556 28.4916 6.84556H24.2041ZM23.7313 9.84049C23.7313 9.57932 23.943 9.36761 24.2041 9.36761H28.4916C28.7528 9.36761 28.9645 9.57932 28.9645 9.84049C28.9645 10.1017 28.7528 10.3134 28.4916 10.3134H24.2041C23.943 10.3134 23.7313 10.1017 23.7313 9.84049Z" fill="#1C4D05"/>
</svg>
