<svg width="209" height="50" viewBox="0 0 209 50" fill="none" xmlns="http://www.w3.org/2000/svg">
<path d="M22.5401 15.9547C20.7041 17.9711 19.1533 21.183 17.8877 25.5905C16.8717 29.1058 15.8378 31.5326 14.7861 32.8709C13.7522 34.2092 12.2816 34.8784 10.3743 34.8784C8.46702 34.8784 6.96078 34.1557 5.85562 32.7103C4.75045 31.265 4.19786 29.1861 4.19786 26.4738C4.19786 23.5652 4.87522 21.2366 6.22995 19.4879C7.02449 18.5327 8.70796 16.7168 9.08555 17.0944C9.46313 17.472 11.0646 13.6726 11.8182 11.7257C9.55437 11.7257 7.53119 12.3502 5.74866 13.5993C3.96613 14.8662 2.55793 16.6596 1.52406 18.9793C0.508022 21.299 -5.27663e-07 23.7972 -6.44662e-07 26.4738C-8.2484e-07 30.5958 0.944739 33.888 2.83422 36.3505C4.74153 38.813 7.27273 40.0443 10.4278 40.0443C12.4064 40.0443 14.1266 39.5982 15.5882 38.706C17.0499 37.8316 18.3244 36.4754 19.4118 34.6375C20.5169 32.8174 21.5241 30.2835 22.4332 27.0359C23.3422 23.8061 24.3405 21.5132 25.4278 20.157C26.533 18.8187 27.8788 18.1496 29.4652 18.1496C31.4438 18.1496 32.9857 18.8544 34.0909 20.2641C35.2139 21.6916 35.7754 23.6723 35.7754 26.2062C35.7754 28.9363 35.098 31.0508 33.7433 32.5497C32.4064 34.0486 30.5615 34.7981 28.2086 34.7981L28.2086 39.964C30.3654 39.964 32.3529 39.384 34.1711 38.2242C35.9893 37.0821 37.4153 35.4583 38.4492 33.3527C39.4831 31.265 40 28.8828 40 26.2062C40 22.2805 38.9929 19.0864 36.9786 16.6239C34.9822 14.1792 32.451 12.9569 29.385 12.9569C26.6756 12.9569 24.3939 13.9562 22.5401 15.9547Z" fill="#3C51C2"/>
<path d="M22.5401 15.9547C20.7041 17.9711 19.1533 21.183 17.8877 25.5905C16.8717 29.1058 15.8378 31.5326 14.7861 32.8709C13.7522 34.2092 12.2816 34.8784 10.3743 34.8784C8.46702 34.8784 6.96078 34.1557 5.85562 32.7103C4.75045 31.265 4.19786 29.1861 4.19786 26.4738C4.19786 23.5652 4.87522 21.2366 6.22995 19.4879C7.02449 18.5327 8.70796 16.7168 9.08555 17.0944C9.46313 17.472 11.0646 13.6726 11.8182 11.7257C9.55437 11.7257 7.53119 12.3502 5.74866 13.5993C3.96613 14.8662 2.55793 16.6596 1.52406 18.9793C0.508022 21.299 -5.27663e-07 23.7972 -6.44662e-07 26.4738C-8.2484e-07 30.5958 0.944739 33.888 2.83422 36.3505C4.74153 38.813 7.27273 40.0443 10.4278 40.0443C12.4064 40.0443 14.1266 39.5982 15.5882 38.706C17.0499 37.8316 18.3244 36.4754 19.4118 34.6375C20.5169 32.8174 21.5241 30.2835 22.4332 27.0359C23.3422 23.8061 24.3405 21.5132 25.4278 20.157C26.533 18.8187 27.8788 18.1496 29.4652 18.1496C31.4438 18.1496 32.9857 18.8544 34.0909 20.2641C35.2139 21.6916 35.7754 23.6723 35.7754 26.2062C35.7754 28.9363 35.098 31.0508 33.7433 32.5497C32.4064 34.0486 30.5615 34.7981 28.2086 34.7981L28.2086 39.964C30.3654 39.964 32.3529 39.384 34.1711 38.2242C35.9893 37.0821 37.4153 35.4583 38.4492 33.3527C39.4831 31.265 40 28.8828 40 26.2062C40 22.2805 38.9929 19.0864 36.9786 16.6239C34.9822 14.1792 32.451 12.9569 29.385 12.9569C26.6756 12.9569 24.3939 13.9562 22.5401 15.9547Z" fill="#3C51C2"/>
<path d="M18.8206 27.1123C14.4131 25.8467 11.2012 24.2959 9.18477 22.4599C7.18623 20.6061 6.18696 18.3244 6.18696 15.615C6.18696 12.549 7.40928 10.0178 9.85392 8.02139C12.3164 6.00713 15.5105 5 19.4362 5C22.1128 5 24.495 5.51693 26.5828 6.5508C28.6884 7.58467 30.3122 9.0107 31.4542 10.8289C31.9764 11.7847 32.2566 14.1681 31.4542 14.9705C30.7446 15.6801 29.2422 16.3456 28.3456 16.6786C28.2338 16.7518 28.1274 16.7914 28.0281 16.7914C28.0281 14.4385 27.2787 12.5936 25.7798 11.2567C24.2809 9.90196 22.1664 9.2246 19.4362 9.2246C16.9023 9.2246 14.9216 9.7861 13.4941 10.9091C12.0844 12.0143 11.3796 13.5562 11.3796 15.5348C11.3796 17.1212 12.0487 18.467 13.3871 19.5722C14.7432 20.6595 17.0362 21.6578 20.266 22.5668C23.5136 23.4759 26.0474 24.4831 27.8675 25.5882C29.7055 26.6756 31.0616 27.9501 31.936 29.4118C32.8282 30.8734 33.2743 32.5936 33.2743 34.5722C33.2743 37.7273 32.0431 40.2585 29.5806 42.1658C27.1181 44.0553 23.8259 45 19.7039 45C17.0273 45 14.5291 44.492 12.2093 43.4759C9.88961 42.4421 8.09628 41.0339 6.82935 39.2513C5.28247 37.0438 8.00743 35.3788 10.195 36.9538L12.7179 38.7701C14.4666 40.1248 16.7953 40.8021 19.7039 40.8021C22.4162 40.8021 24.495 40.2496 25.9404 39.1444C27.3858 38.0392 28.1084 36.533 28.1084 34.6257C28.1084 32.7184 27.4393 31.2478 26.101 30.2139C24.7627 29.1622 22.3359 28.1283 18.8206 27.1123Z" fill="#3C51C2"/>
<path d="M18.8206 27.1123C14.4131 25.8467 11.2012 24.2959 9.18477 22.4599C7.18623 20.6061 6.18696 18.3244 6.18696 15.615C6.18696 12.549 7.40928 10.0178 9.85392 8.02139C12.3164 6.00713 15.5105 5 19.4362 5C22.1128 5 24.495 5.51693 26.5828 6.5508C28.6884 7.58467 30.3122 9.0107 31.4542 10.8289C31.9764 11.7847 32.2566 14.1681 31.4542 14.9705C30.7446 15.6801 29.2422 16.3456 28.3456 16.6786C28.2338 16.7518 28.1274 16.7914 28.0281 16.7914C28.0281 14.4385 27.2787 12.5936 25.7798 11.2567C24.2809 9.90196 22.1664 9.2246 19.4362 9.2246C16.9023 9.2246 14.9216 9.7861 13.4941 10.9091C12.0844 12.0143 11.3796 13.5562 11.3796 15.5348C11.3796 17.1212 12.0487 18.467 13.3871 19.5722C14.7432 20.6595 17.0362 21.6578 20.266 22.5668C23.5136 23.4759 26.0474 24.4831 27.8675 25.5882C29.7055 26.6756 31.0616 27.9501 31.936 29.4118C32.8282 30.8734 33.2743 32.5936 33.2743 34.5722C33.2743 37.7273 32.0431 40.2585 29.5806 42.1658C27.1181 44.0553 23.8259 45 19.7039 45C17.0273 45 14.5291 44.492 12.2093 43.4759C9.88961 42.4421 8.09628 41.0339 6.82935 39.2513C5.28247 37.0438 8.00743 35.3788 10.195 36.9538L12.7179 38.7701C14.4666 40.1248 16.7953 40.8021 19.7039 40.8021C22.4162 40.8021 24.495 40.2496 25.9404 39.1444C27.3858 38.0392 28.1084 36.533 28.1084 34.6257C28.1084 32.7184 27.4393 31.2478 26.101 30.2139C24.7627 29.1622 22.3359 28.1283 18.8206 27.1123Z" fill="#3C51C2"/>
<path d="M64.957 25.6621C63.349 25.1999 62.1771 24.6335 61.4414 23.9629C60.7122 23.2858 60.3477 22.4525 60.3477 21.4629C60.3477 20.3431 60.7936 19.4186 61.6855 18.6895C62.584 17.9538 63.7493 17.5859 65.1816 17.5859C66.1582 17.5859 67.0273 17.7747 67.7891 18.1523C68.5573 18.5299 69.1497 19.0508 69.5664 19.7148C69.9896 20.3789 70.2012 21.1048 70.2012 21.8926H68.3164C68.3164 21.0332 68.043 20.3594 67.4961 19.8711C66.9492 19.3763 66.1777 19.1289 65.1816 19.1289C64.2572 19.1289 63.5345 19.334 63.0137 19.7441C62.4993 20.1478 62.2422 20.7109 62.2422 21.4336C62.2422 22.013 62.4863 22.5046 62.9746 22.9082C63.4694 23.3053 64.306 23.6699 65.4844 24.002C66.6693 24.334 67.5938 24.7018 68.2578 25.1055C68.9284 25.5026 69.4232 25.9681 69.7422 26.502C70.0677 27.0358 70.2305 27.6641 70.2305 28.3867C70.2305 29.5391 69.7812 30.4635 68.8828 31.1602C67.9844 31.8503 66.7832 32.1953 65.2793 32.1953C64.3027 32.1953 63.3913 32.0098 62.5449 31.6387C61.6986 31.2611 61.0443 30.7467 60.582 30.0957C60.1263 29.4447 59.8984 28.7057 59.8984 27.8789H61.7832C61.7832 28.7383 62.099 29.4186 62.7305 29.9199C63.3685 30.4147 64.2181 30.6621 65.2793 30.6621C66.2689 30.6621 67.0273 30.4603 67.5547 30.0566C68.082 29.653 68.3457 29.1029 68.3457 28.4062C68.3457 27.7096 68.1016 27.1725 67.6133 26.7949C67.125 26.4108 66.2396 26.0332 64.957 25.6621ZM74.6543 32H72.7793V17.7812H74.6543V32ZM89.0195 32H87.1348L79.9766 21.043V32H78.0918V17.7812H79.9766L87.1543 28.7871V17.7812H89.0195V32ZM94.3613 32H92.4863V17.7812H94.3613V32ZM105.641 25.7207H99.6738V32H97.7988V17.7812H106.607V19.3242H99.6738V24.1875H105.641V25.7207ZM118.15 24.9199L121.861 17.7812H123.99L119.088 26.6973V32H117.213V26.6973L112.311 17.7812H114.459L118.15 24.9199ZM132.76 28.2891H126.803L125.465 32H123.531L128.961 17.7812H130.602L136.041 32H134.117L132.76 28.2891ZM127.369 26.7461H132.203L129.781 20.0957L127.369 26.7461ZM141.373 24.9199L145.084 17.7812H147.213L142.311 26.6973V32H140.436V26.6973L135.533 17.7812H137.682L141.373 24.9199ZM151.061 32H149.186V17.7812H151.061V32ZM165.426 32H163.541L156.383 21.043V32H154.498V17.7812H156.383L163.561 28.7871V17.7812H165.426V32ZM170.641 30.4668H177.379V32H168.756V17.7812H170.641V30.4668ZM187.564 28.2891H181.607L180.27 32H178.336L183.766 17.7812H185.406L190.846 32H188.922L187.564 28.2891ZM182.174 26.7461H187.008L184.586 20.0957L182.174 26.7461ZM197.975 26.248H194.635V32H192.75V17.7812H197.457C199.059 17.7812 200.289 18.1458 201.148 18.875C202.014 19.6042 202.447 20.6654 202.447 22.0586C202.447 22.944 202.206 23.7155 201.725 24.373C201.249 25.0306 200.585 25.5221 199.732 25.8477L203.072 31.8828V32H201.061L197.975 26.248ZM194.635 24.7148H197.516C198.447 24.7148 199.186 24.474 199.732 23.9922C200.286 23.5104 200.562 22.8659 200.562 22.0586C200.562 21.1797 200.299 20.5059 199.771 20.0371C199.251 19.5684 198.495 19.3307 197.506 19.3242H194.635V24.7148ZM207.096 32H205.221V17.7812H207.096V32Z" fill="#3C51C2"/>
</svg>
