<svg width="26" height="26" viewBox="0 0 26 26" fill="none" xmlns="http://www.w3.org/2000/svg">
<path d="M14.6511 7.12056C13.4577 8.43121 12.4496 10.519 11.627 13.3838C10.9666 15.6688 10.2946 17.2462 9.61096 18.1161C8.93895 18.986 7.98307 19.4209 6.74331 19.4209C5.50356 19.4209 4.52451 18.9512 3.80615 18.0117C3.08779 17.0722 2.72861 15.721 2.72861 13.958C2.72861 12.0674 3.1689 10.5538 4.04946 9.41709C4.56592 8.79625 5.66018 7.61592 5.90561 7.86135C6.15103 8.10678 7.19201 5.63716 7.68182 4.37167C6.21034 4.37167 4.89528 4.77763 3.73663 5.58953C2.57799 6.41304 1.66266 7.5787 0.990642 9.08653C0.330213 10.5944 -3.42981e-07 12.2182 -4.1903e-07 13.958C-5.36146e-07 16.6373 0.614082 18.7772 1.84224 20.3778C3.082 21.9784 4.72727 22.7788 6.77807 22.7788C8.06417 22.7788 9.18226 22.4888 10.1324 21.9089C11.0824 21.3405 11.9109 20.459 12.6176 19.2644C13.336 18.0813 13.9906 16.4343 14.5816 14.3233C15.1725 12.224 15.8213 10.7335 16.5281 9.85204C17.2464 8.98214 18.1212 8.54719 19.1524 8.54719C20.4385 8.54719 21.4407 9.00534 22.1591 9.92163C22.889 10.8495 23.254 12.137 23.254 13.784C23.254 15.5586 22.8137 16.933 21.9332 17.9073C21.0642 18.8816 19.865 19.3687 18.3356 19.3687L18.3356 22.7266C19.7375 22.7266 21.0294 22.3496 22.2112 21.5957C23.393 20.8534 24.32 19.7979 24.992 18.4293C25.664 17.0722 26 15.5238 26 13.784C26 11.2323 25.3454 9.15612 24.0361 7.55551C22.7384 5.96649 21.0931 5.17198 19.1003 5.17198C17.3391 5.17198 15.8561 5.82151 14.6511 7.12056Z" fill="#3C51C2"/>
<path d="M14.6511 7.12056C13.4577 8.43121 12.4496 10.519 11.627 13.3838C10.9666 15.6688 10.2946 17.2462 9.61096 18.1161C8.93895 18.986 7.98307 19.4209 6.74331 19.4209C5.50356 19.4209 4.52451 18.9512 3.80615 18.0117C3.08779 17.0722 2.72861 15.721 2.72861 13.958C2.72861 12.0674 3.1689 10.5538 4.04946 9.41709C4.56592 8.79625 5.66018 7.61592 5.90561 7.86135C6.15103 8.10678 7.19201 5.63716 7.68182 4.37167C6.21034 4.37167 4.89528 4.77763 3.73663 5.58953C2.57799 6.41304 1.66266 7.5787 0.990642 9.08653C0.330213 10.5944 -3.42981e-07 12.2182 -4.1903e-07 13.958C-5.36146e-07 16.6373 0.614082 18.7772 1.84224 20.3778C3.082 21.9784 4.72727 22.7788 6.77807 22.7788C8.06417 22.7788 9.18226 22.4888 10.1324 21.9089C11.0824 21.3405 11.9109 20.459 12.6176 19.2644C13.336 18.0813 13.9906 16.4343 14.5816 14.3233C15.1725 12.224 15.8213 10.7335 16.5281 9.85204C17.2464 8.98214 18.1212 8.54719 19.1524 8.54719C20.4385 8.54719 21.4407 9.00534 22.1591 9.92163C22.889 10.8495 23.254 12.137 23.254 13.784C23.254 15.5586 22.8137 16.933 21.9332 17.9073C21.0642 18.8816 19.865 19.3687 18.3356 19.3687L18.3356 22.7266C19.7375 22.7266 21.0294 22.3496 22.2112 21.5957C23.393 20.8534 24.32 19.7979 24.992 18.4293C25.664 17.0722 26 15.5238 26 13.784C26 11.2323 25.3454 9.15612 24.0361 7.55551C22.7384 5.96649 21.0931 5.17198 19.1003 5.17198C17.3391 5.17198 15.8561 5.82151 14.6511 7.12056Z" fill="#3C51C2"/>
<path d="M12.2334 14.373C9.36848 13.5504 7.28072 12.5423 5.97007 11.3489C4.67102 10.1439 4.0215 8.66087 4.0215 6.89973C4.0215 4.90686 4.81601 3.26159 6.40503 1.9639C8.00564 0.654635 10.0818 0 12.6335 0C14.3733 0 15.9217 0.336007 17.2788 1.00802C18.6474 1.68004 19.7029 2.60695 20.4452 3.78877C20.7846 4.41003 20.9667 5.95929 20.4452 6.48083C19.984 6.94207 19.0074 7.37462 18.4246 7.59106C18.3519 7.63869 18.2828 7.66444 18.2183 7.66444C18.2183 6.13503 17.7311 4.93583 16.7568 4.06684C15.7825 3.18627 14.4081 2.74599 12.6335 2.74599C10.9865 2.74599 9.69905 3.11096 8.77115 3.84091C7.85486 4.55927 7.39671 5.5615 7.39671 6.84759C7.39671 7.87879 7.83166 8.75357 8.70156 9.47193C9.58306 10.1787 11.0735 10.8275 13.1728 11.4184C15.2838 12.0094 16.9308 12.664 18.1139 13.3824C19.3085 14.0891 20.19 14.9176 20.7584 15.8676C21.3383 16.8177 21.6283 17.9358 21.6283 19.2219C21.6283 21.2727 20.828 22.918 19.2273 24.1578C17.6267 25.3859 15.4868 26 12.8075 26C11.0677 26 9.44388 25.6698 7.93605 25.0094C6.42822 24.3373 5.26256 23.422 4.43905 22.2634C3.43358 20.8285 5.2048 19.7462 6.62674 20.7699L8.26661 21.9505C9.40328 22.8311 10.9169 23.2714 12.8075 23.2714C14.5705 23.2714 15.9217 22.9122 16.8612 22.1938C17.8007 21.4755 18.2705 20.4964 18.2705 19.2567C18.2705 18.0169 17.8355 17.0611 16.9656 16.389C16.0957 15.7054 14.5183 15.0334 12.2334 14.373Z" fill="#3C51C2"/>
<path d="M12.2334 14.373C9.36848 13.5504 7.28072 12.5423 5.97007 11.3489C4.67102 10.1439 4.0215 8.66087 4.0215 6.89973C4.0215 4.90686 4.81601 3.26159 6.40503 1.9639C8.00564 0.654635 10.0818 0 12.6335 0C14.3733 0 15.9217 0.336007 17.2788 1.00802C18.6474 1.68004 19.7029 2.60695 20.4452 3.78877C20.7846 4.41003 20.9667 5.95929 20.4452 6.48083C19.984 6.94207 19.0074 7.37462 18.4246 7.59106C18.3519 7.63869 18.2828 7.66444 18.2183 7.66444C18.2183 6.13503 17.7311 4.93583 16.7568 4.06684C15.7825 3.18627 14.4081 2.74599 12.6335 2.74599C10.9865 2.74599 9.69905 3.11096 8.77115 3.84091C7.85486 4.55927 7.39671 5.5615 7.39671 6.84759C7.39671 7.87879 7.83166 8.75357 8.70156 9.47193C9.58306 10.1787 11.0735 10.8275 13.1728 11.4184C15.2838 12.0094 16.9308 12.664 18.1139 13.3824C19.3085 14.0891 20.19 14.9176 20.7584 15.8676C21.3383 16.8177 21.6283 17.9358 21.6283 19.2219C21.6283 21.2727 20.828 22.918 19.2273 24.1578C17.6267 25.3859 15.4868 26 12.8075 26C11.0677 26 9.44388 25.6698 7.93605 25.0094C6.42822 24.3373 5.26256 23.422 4.43905 22.2634C3.43358 20.8285 5.2048 19.7462 6.62674 20.7699L8.26661 21.9505C9.40328 22.8311 10.9169 23.2714 12.8075 23.2714C14.5705 23.2714 15.9217 22.9122 16.8612 22.1938C17.8007 21.4755 18.2705 20.4964 18.2705 19.2567C18.2705 18.0169 17.8355 17.0611 16.9656 16.389C16.0957 15.7054 14.5183 15.0334 12.2334 14.373Z" fill="#3C51C2"/>
</svg>
