<svg width="40" height="35" viewBox="0 0 40 35" fill="none" xmlns="http://www.w3.org/2000/svg">
<circle cx="17" cy="18" r="17" fill="#8ED6FE"/>
<path fill-rule="evenodd" clip-rule="evenodd" d="M31 13.1002C24.9178 10.1564 25.6869 4.47346 26.8317 2H17.6732C16.4286 2.36494 16.0391 3.38879 16 3.8551V19C16.9393 18.3674 17.7808 18.2498 18.0841 18.2701H31V13.1002ZM20.726 13.0394V11.8533H26.4207V13.0394H20.726ZM20.726 14.9857V16.1717H26.4207V14.9857H20.726Z" fill="#0D4C70"/>
<path fill-rule="evenodd" clip-rule="evenodd" d="M31 13.1002C24.9178 10.1564 25.6869 4.47346 26.8317 2H17.6732C16.4286 2.36494 16.0391 3.38879 16 3.8551V19C16.9393 18.3674 17.7808 18.2498 18.0841 18.2701H31V13.1002ZM20.726 13.0394V11.8533H26.4207V13.0394H20.726ZM20.726 14.9857V16.1717H26.4207V14.9857H20.726Z" fill="#0D4C70"/>
<path d="M16.0028 21.5862C15.9314 19.8483 17.2427 19.1379 17.9072 19H31C30.6667 19.6897 30.7024 20.6897 30.7619 21.1034H18.5618V22.3103H30.7619C30.5715 22.6966 30.8413 23.5977 31 24H17.9072C17.3022 23.9195 16.0742 23.3241 16.0028 21.5862Z" fill="#0D4C70"/>
<path d="M16.0028 21.5862C15.9314 19.8483 17.2427 19.1379 17.9072 19H31C30.6667 19.6897 30.7024 20.6897 30.7619 21.1034H18.5618V22.3103H30.7619C30.5715 22.6966 30.8413 23.5977 31 24H17.9072C17.3022 23.9195 16.0742 23.3241 16.0028 21.5862Z" fill="#0D4C70"/>
<path fill-rule="evenodd" clip-rule="evenodd" d="M33.5 12C37.0899 12 40 9.31371 40 6C40 2.68629 37.0899 0 33.5 0C29.9101 0 27 2.68629 27 6C27 9.31371 29.9101 12 33.5 12ZM33.1223 7.03122C33.0054 7.32717 32.9422 7.73034 32.9329 8.24075H34.2311C34.2311 7.58881 34.4019 7.08913 34.7434 6.74171L35.5083 6.04688C36.2662 5.31773 36.6452 4.57786 36.6452 3.82727C36.6452 3.0681 36.3972 2.47192 35.9013 2.03872C35.4101 1.60123 34.7223 1.38249 33.8381 1.38249C32.9867 1.38249 32.2943 1.59694 31.7609 2.02585C31.2323 2.45047 30.9633 3.0102 30.9539 3.70503H32.2522C32.2522 3.31472 32.3972 3.00377 32.6873 2.77215C32.9773 2.54054 33.3609 2.42474 33.8381 2.42474C34.3294 2.42474 34.7036 2.55341 34.9609 2.81076C35.2183 3.06381 35.3469 3.41552 35.3469 3.86587C35.3469 4.33338 35.1504 4.77087 34.7574 5.17834L33.8381 6.04688C33.4779 6.40716 33.2393 6.73528 33.1223 7.03122ZM33.0662 9.79769C32.9399 9.92636 32.8767 10.0872 32.8767 10.2802C32.8767 10.4732 32.9399 10.6341 33.0662 10.7627C33.1972 10.8871 33.389 10.9493 33.6416 10.9493C33.8943 10.9493 34.0861 10.8871 34.2171 10.7627C34.3481 10.6341 34.4136 10.4732 34.4136 10.2802C34.4136 10.0872 34.3481 9.92636 34.2171 9.79769C34.0861 9.66473 33.8943 9.59825 33.6416 9.59825C33.389 9.59825 33.1972 9.66473 33.0662 9.79769Z" fill="#0D4C70"/>
<path fill-rule="evenodd" clip-rule="evenodd" d="M33.5 12C37.0899 12 40 9.31371 40 6C40 2.68629 37.0899 0 33.5 0C29.9101 0 27 2.68629 27 6C27 9.31371 29.9101 12 33.5 12ZM33.1223 7.03122C33.0054 7.32717 32.9422 7.73034 32.9329 8.24075H34.2311C34.2311 7.58881 34.4019 7.08913 34.7434 6.74171L35.5083 6.04688C36.2662 5.31773 36.6452 4.57786 36.6452 3.82727C36.6452 3.0681 36.3972 2.47192 35.9013 2.03872C35.4101 1.60123 34.7223 1.38249 33.8381 1.38249C32.9867 1.38249 32.2943 1.59694 31.7609 2.02585C31.2323 2.45047 30.9633 3.0102 30.9539 3.70503H32.2522C32.2522 3.31472 32.3972 3.00377 32.6873 2.77215C32.9773 2.54054 33.3609 2.42474 33.8381 2.42474C34.3294 2.42474 34.7036 2.55341 34.9609 2.81076C35.2183 3.06381 35.3469 3.41552 35.3469 3.86587C35.3469 4.33338 35.1504 4.77087 34.7574 5.17834L33.8381 6.04688C33.4779 6.40716 33.2393 6.73528 33.1223 7.03122ZM33.0662 9.79769C32.9399 9.92636 32.8767 10.0872 32.8767 10.2802C32.8767 10.4732 32.9399 10.6341 33.0662 10.7627C33.1972 10.8871 33.389 10.9493 33.6416 10.9493C33.8943 10.9493 34.0861 10.8871 34.2171 10.7627C34.3481 10.6341 34.4136 10.4732 34.4136 10.2802C34.4136 10.0872 34.3481 9.92636 34.2171 9.79769C34.0861 9.66473 33.8943 9.59825 33.6416 9.59825C33.389 9.59825 33.1972 9.66473 33.0662 9.79769Z" fill="#0D4C70"/>
</svg>
